<?xml version="1.0" encoding="UTF-8"?>
<svg version="1.1" xmlns="http://www.w3.org/2000/svg" width="747" height="747">
<path d="M0 0 C0.89587839 -0.00175304 1.79175679 -0.00350607 2.71478301 -0.00531223 C5.72634921 -0.00997596 8.7378672 -0.00750575 11.74943542 -0.00507832 C13.92665585 -0.00694611 16.10387595 -0.00924669 18.2810955 -0.01194364 C24.27194717 -0.01807216 30.2627849 -0.0179268 36.25363898 -0.01674926 C42.71194153 -0.01654552 49.17023958 -0.02206159 55.62854004 -0.02680683 C68.28578966 -0.03533783 80.9430353 -0.03787495 93.6002875 -0.03841921 C103.88940437 -0.03887874 114.17851973 -0.04093704 124.46763611 -0.04411983 C127.42936071 -0.04501739 130.39108531 -0.0459072 133.35280991 -0.04679471 C134.0891142 -0.04701576 134.8254185 -0.04723681 135.58403505 -0.04746456 C156.29794115 -0.05361961 177.01184673 -0.05756505 197.72575378 -0.05712128 C198.50683771 -0.0571057 199.28792163 -0.05709012 200.09267476 -0.05707407 C204.0515129 -0.05699096 208.01035103 -0.05689192 211.96918917 -0.05678936 C213.14854059 -0.05675944 213.14854059 -0.05675944 214.35171729 -0.05672892 C215.94167656 -0.05668848 217.53163582 -0.05664669 219.12159508 -0.05660353 C243.84756402 -0.05599105 268.57351924 -0.06349192 293.29948425 -0.07717609 C321.08218438 -0.09254565 348.8648755 -0.10114175 376.64758015 -0.10021287 C379.61181959 -0.10013824 382.57605902 -0.10008954 385.54029846 -0.10005856 C386.63509398 -0.10004107 386.63509398 -0.10004107 387.75200658 -0.10002324 C399.48527085 -0.0999925 411.21852319 -0.106372 422.95178392 -0.11499082 C434.75156503 -0.123479 446.55132728 -0.12427701 458.3511098 -0.1178815 C464.74059237 -0.11461648 471.13003181 -0.11455898 477.51951027 -0.12323475 C483.37353434 -0.13110158 489.22748109 -0.12966634 495.08150327 -0.12095062 C497.19461456 -0.11941602 499.30773162 -0.12123025 501.42083609 -0.12681069 C538.78268598 -0.2189104 567.74871284 10.22004332 594.52360535 36.57394695 C620.64434236 63.74924788 625.19736806 98.33726335 625.17967224 134.38722515 C625.18226073 136.51431466 625.18527522 138.64140368 625.18867564 140.76849204 C625.19669166 146.57920404 625.19853217 152.38990366 625.19927311 158.20062053 C625.20113305 164.48096504 625.20868488 170.76130326 625.21540833 177.0416441 C625.2296574 191.47074805 625.23551229 205.89984875 625.24010027 220.32895843 C625.24244201 227.46868518 625.2460452 234.60841115 625.24979565 241.74813728 C625.26262356 266.21825682 625.27334488 290.68837593 625.27679825 315.15849876 C625.27701988 316.69206377 625.27724166 318.22562877 625.2774636 319.75919377 C625.27768423 321.29630738 625.27790472 322.83342099 625.27812505 324.3705346 C625.27856758 327.45388234 625.2790147 330.53723007 625.27946472 333.62057781 C625.27957411 334.38505817 625.2796835 335.14953852 625.27979621 335.93718495 C625.28342665 360.72409077 625.29935011 385.51096734 625.32265509 410.29786196 C625.34728659 436.54388116 625.36097255 462.78988364 625.36216617 489.03591472 C625.3623376 491.92036045 625.36255303 494.80480617 625.3628006 497.6892519 C625.36285637 498.39941158 625.36291214 499.10957126 625.36296959 499.84125094 C625.36411691 511.23531449 625.37511118 522.62934783 625.38968765 534.0234012 C625.40409928 545.48725426 625.40701213 556.95105484 625.39924768 568.41491713 C625.39535256 574.616878 625.39621516 580.81873784 625.41030502 587.02068615 C625.42311161 592.71000983 625.42178752 598.39915726 625.40971431 604.08848093 C625.40776901 606.13480994 625.41078101 608.18115174 625.41955867 610.22746285 C625.54816558 642.2650618 618.66517579 669.38807284 599.03923035 695.12863445 C598.32122253 696.08640789 597.60321472 697.04418133 596.8634491 698.0309782 C596.26145691 698.72320477 595.65946472 699.41543133 595.03923035 700.12863445 C594.37923035 700.12863445 593.71923035 700.12863445 593.03923035 700.12863445 C593.03923035 700.78863445 593.03923035 701.44863445 593.03923035 702.12863445 C592.37923035 702.12863445 591.71923035 702.12863445 591.03923035 702.12863445 C590.8071991 702.70226727 590.57516785 703.27590008 590.33610535 703.8669157 C580.82855539 720.44785374 553.45338531 729.87507644 536.24137878 734.61984539 C529.5246881 736.38546294 522.91564842 737.23383646 515.96528244 737.43993378 C515.28748447 737.46036198 514.60968651 737.48079018 513.91134921 737.50183742 C511.65100937 737.56737477 509.39057045 737.62546735 507.12998962 737.68205547 C505.92904142 737.71348403 505.92904142 737.71348403 504.70383164 737.74554751 C483.46852677 738.29005874 462.23154715 738.27871363 440.99065614 738.27401817 C435.09998999 738.27381041 429.20932844 738.27936734 423.31866455 738.28407574 C411.83908802 738.29229778 400.35951662 738.29512653 388.87993738 738.29568812 C379.54744216 738.29616651 370.21494851 738.29822703 360.88245392 738.30138874 C358.17775878 738.30228647 355.47306363 738.30317629 352.76836848 738.30406362 C352.09568991 738.30428467 351.42301133 738.30450571 350.72994856 738.30473346 C331.87754363 738.3108651 313.02513927 738.31483622 294.17273331 738.31439018 C293.46551738 738.3143746 292.75830146 738.31435903 292.02965475 738.31434297 C288.4466043 738.31425989 284.86355386 738.31416085 281.28050342 738.31405827 C280.56910461 738.31403832 279.8577058 738.31401838 279.12474946 738.31399783 C277.68614659 738.31395739 276.24754372 738.31391559 274.80894085 738.31387244 C252.37381605 738.31325825 229.93870631 738.32080194 207.50358582 738.334445 C182.20736077 738.3498222 156.91114562 738.3584106 131.61491561 738.35748178 C128.91650756 738.35740716 126.21809952 738.35735845 123.51969147 738.35732746 C122.85543019 738.35731581 122.19116891 738.35730415 121.5067785 738.35729215 C111.51309635 738.35726337 101.51942759 738.36259021 91.52574921 738.37065983 C80.1686308 738.37977321 68.81153721 738.38193248 57.45441672 738.3751504 C51.66787473 738.37189195 45.88138034 738.37180465 40.09484291 738.38050365 C34.78962131 738.38839718 29.48448483 738.38690833 24.17926523 738.37821952 C22.26958299 738.37669103 20.35989429 738.37847588 18.45021966 738.3840796 C3.25993091 738.4256721 -11.86574329 737.89377562 -26.52326965 733.50363445 C-27.39967102 733.24638592 -28.27607239 732.98913738 -29.17903137 732.72409344 C-37.6152591 730.12815398 -45.32299015 726.52183447 -52.96076965 722.12863445 C-53.96494934 721.55113445 -54.96912903 720.97363445 -56.0037384 720.37863445 C-70.4980619 711.54711436 -82.461962 700.1432687 -91.96076965 686.12863445 C-92.56920715 685.24175945 -93.17764465 684.35488445 -93.80451965 683.44113445 C-100.07654598 673.97807719 -104.58958824 664.15209028 -107.71076965 653.25363445 C-107.90944641 652.57163982 -108.10812317 651.8896452 -108.31282043 651.18698406 C-112.17300691 636.87253935 -112.24946739 622.44870761 -112.21473694 607.7426939 C-112.21704491 605.60180407 -112.22022368 603.46091504 -112.22419143 601.32002765 C-112.232502 595.47123036 -112.22843118 589.62249876 -112.22221899 583.77370131 C-112.21768007 577.45249378 -112.22468545 571.13129728 -112.23017883 564.81009197 C-112.23854699 553.15351268 -112.2378376 541.49695985 -112.2323559 529.84037991 C-112.2273153 519.06822027 -112.22601579 508.29606824 -112.22840118 497.52390766 C-112.22855395 496.80803702 -112.22870672 496.09216638 -112.22886412 495.35460269 C-112.22948685 492.44826908 -112.23012366 489.54193547 -112.23078365 486.63560187 C-112.2368958 459.3950963 -112.23136438 432.15460396 -112.22058986 404.91410044 C-112.21110236 380.74382409 -112.21194602 356.57356882 -112.22151184 332.40329266 C-112.23223601 305.21561717 -112.2364592 278.02795337 -112.23028731 250.84027606 C-112.22964593 247.93845356 -112.22902025 245.03663105 -112.22840118 242.13480854 C-112.22824303 241.42036456 -112.22808487 240.70592058 -112.22792193 239.96982678 C-112.22565283 229.20987481 -112.22829667 218.44993131 -112.23336029 207.68998051 C-112.23909394 195.44558928 -112.23742582 183.20122924 -112.2267988 170.95683964 C-112.22155893 164.71464477 -112.2194565 158.47249256 -112.22609711 152.23029804 C-112.23209383 146.50656682 -112.22872047 140.78291747 -112.218142 135.05919359 C-112.21592364 132.99809793 -112.2170087 130.93699523 -112.22189358 128.87590417 C-112.2561772 113.19723126 -112.19116376 97.07142063 -107.33576965 82.00363445 C-107.07779602 81.17798992 -106.81982239 80.35234539 -106.55403137 79.50168133 C-97.02440211 50.28872934 -76.07950925 25.83747622 -48.69514465 11.8903532 C-37.89969004 6.69378716 -26.69136797 3.47090381 -14.96076965 1.12863445 C-14.10956197 0.95709793 -13.25835428 0.78556141 -12.38135242 0.60882682 C-8.22443777 0.02526582 -4.19159801 -0.01039294 0 0 Z " fill="#EBEAEC" transform="translate(116.96076965332031,4.871365547180176)"/>
<path d="M0 0 C7.26845736 0.26972791 13.350989 2.99370656 20 5.76171875 C22.67887664 6.80581092 25.36943855 7.81736209 28.0625 8.82421875 C29.07908691 9.20719116 29.07908691 9.20719116 30.11621094 9.59790039 C34.15256074 11.10836752 38.20838255 12.5057976 42.3125 13.82421875 C46.07290453 15.04912264 49.61295856 16.44605726 53.1875 18.13671875 C58.60501055 20.68844473 64.15735792 22.64673971 69.80908203 24.60107422 C74.37413639 26.18108969 78.86928975 27.86261541 83.33984375 29.6953125 C88.21631241 31.65019641 93.14818979 33.46069371 98.0703125 35.296875 C98.71258789 35.53680176 99.35486328 35.77672852 100.01660156 36.02392578 C101.387017 36.53369873 102.7588605 37.03964315 104.13183594 37.54248047 C104.82825195 37.79916504 105.52466797 38.05584961 106.2421875 38.3203125 C106.86722168 38.54904053 107.49225586 38.77776855 108.13623047 39.01342773 C110.13942884 39.8176985 112.0692685 40.796353 114 41.76171875 C114.33 104.13171875 114.66 166.50171875 115 230.76171875 C120.72645722 219.36674937 120.72645722 219.36674937 126 207.76171875 C126.33 207.10171875 126.66 206.44171875 127 205.76171875 C127.09692189 203.1678893 127.13282787 200.6008428 127.12457275 198.0067749 C127.1259829 197.19667253 127.12739305 196.38657015 127.12884593 195.55191922 C127.13251233 192.82203053 127.12915664 190.09219335 127.12597656 187.36230469 C127.1273707 185.41117817 127.12926961 183.46005197 127.13163757 181.50892639 C127.13614152 177.29916897 127.13799081 173.08942132 127.13809967 168.87966156 C127.13923783 162.22405006 127.15206028 155.56849431 127.16766357 148.91290283 C127.17023643 147.79066779 127.17280928 146.66843275 127.1754601 145.51219058 C127.18072689 143.21696977 127.18601237 140.92174899 127.19131613 138.62652826 C127.22645505 123.1264986 127.25297743 107.62653762 127.25048828 92.12646484 C127.2489006 81.67838224 127.2649152 71.23048901 127.30119491 60.78246713 C127.31967367 55.25119984 127.32898111 49.72024877 127.31671906 44.18895721 C127.30529496 38.98497938 127.3169568 33.78156778 127.34635353 28.57766533 C127.35300246 26.66770133 127.35111305 24.75768564 127.34005547 22.84774208 C127.32620738 20.23934843 127.34304999 17.63287262 127.36749268 15.02459717 C127.3561373 14.26913975 127.34478192 13.51368232 127.33308244 12.73533225 C127.43765506 6.99442446 129.03823994 4.62437434 133 0.76171875 C139.20743751 -1.326244 145.90981502 1.90610025 151.5625 4.38671875 C153.32489399 5.12649513 155.08792379 5.86475847 156.8515625 6.6015625 C157.71942383 6.96878418 158.58728516 7.33600586 159.48144531 7.71435547 C163.09982549 9.21909092 166.76070333 10.59482605 170.4375 11.94921875 C175.01577815 13.64241436 179.57900193 15.36685938 184.1328125 17.125 C190.88107341 19.72533181 197.65428562 22.25419131 204.4375 24.76171875 C205.61965088 25.19959717 206.80180176 25.63747559 208.01977539 26.08862305 C213.97857353 28.29170705 219.94411468 30.46716922 225.9375 32.57421875 C229.95793439 33.99377953 233.89041332 35.5273373 237.8125 37.19921875 C243.44132018 39.59751982 249.16483163 41.63750584 254.95043945 43.61889648 C259.39284384 45.15001899 263.68652868 46.88974153 268 48.76171875 C270.20258738 49.61012278 272.41147841 50.44226606 274.625 51.26171875 C276.02625301 51.78328673 277.42727435 52.30547732 278.828125 52.828125 C280.02598633 53.27502686 280.02598633 53.27502686 281.24804688 53.73095703 C286.9628986 55.87149145 292.66885669 58.03559951 298.375 60.19921875 C299.00757721 60.43901459 299.64015442 60.67881042 300.29190063 60.9258728 C308.52243084 64.04710966 316.74006722 67.19895929 324.93774414 70.40551758 C330.37907665 72.53064555 335.84259984 74.59221974 341.31567383 76.6340332 C346.43335301 78.54413038 351.53491271 80.49191609 356.62109375 82.484375 C359.14637637 83.43901941 361.66569708 84.33455966 364.22265625 85.1953125 C364.94324219 85.44539063 365.66382813 85.69546875 366.40625 85.953125 C367.80552361 86.43729395 369.21037062 86.90575056 370.62109375 87.35546875 C374.44966282 88.70084945 377.04214655 90.1878801 379.20484734 93.67266846 C381.04964853 98.51938866 380.46156937 103.93215797 380.37133789 109.03710938 C380.3620543 110.39143232 380.3546999 111.74576964 380.34912109 113.10011292 C380.33399363 116.01237092 380.30720491 118.92420636 380.27189827 121.83628845 C380.2178623 126.46351478 380.20217353 131.09038974 380.19371033 135.71789551 C380.16470026 148.87568644 380.10063336 162.03281704 379.96264648 175.18994141 C379.88671841 182.46084315 379.85140681 189.73084159 379.85867494 197.0021472 C379.86071265 200.8379528 379.842955 204.67118404 379.7740345 208.50642395 C379.45784412 226.71190116 380.83920585 241.28124451 391.00852108 257.03534698 C392 258.76171875 392 258.76171875 392 260.76171875 C392.66 260.76171875 393.32 260.76171875 394 260.76171875 C394 206.64171875 394 152.52171875 394 96.76171875 C397.55774 97.94763208 400.93434572 99.09570941 404.375 100.51171875 C416.97913626 105.60221193 429.7972742 110.1726466 442.5546875 114.86181641 C445.01640559 115.76775619 447.47709937 116.67642627 449.9375 117.5859375 C451.56247208 118.18627351 453.1874718 118.78653469 454.8125 119.38671875 C455.99948486 119.82528198 455.99948486 119.82528198 457.21044922 120.27270508 C461.93998052 122.01586393 466.68241346 123.71460041 471.4375 125.38671875 C475.84983509 126.96957284 480.25527468 128.56443099 484.625 130.26171875 C485.56601562 130.62265625 486.50703125 130.98359375 487.4765625 131.35546875 C490.61742169 133.10579276 492.02102929 134.75488443 494 137.76171875 C494.50139666 140.9866538 494.50139666 140.9866538 494.50336456 144.71926117 C494.50917833 145.4107005 494.51499209 146.10213983 494.52098203 146.81453186 C494.53560746 149.13692113 494.52168591 151.45825768 494.50793457 153.78063965 C494.5125425 155.46019072 494.5188947 157.13973775 494.52684355 158.81927633 C494.54357485 163.43887646 494.53527329 168.05814697 494.52289867 172.67774844 C494.51386603 177.65805745 494.52780903 182.63830891 494.53881836 187.61860657 C494.55662727 197.37670625 494.55275303 207.13468303 494.5411678 216.89278758 C494.53214308 224.82169838 494.53090531 232.75057468 494.53526306 240.67948914 C494.53587599 241.8069401 494.53648893 242.93439106 494.53712043 244.0960072 C494.5383993 246.38622988 494.53969615 248.67645256 494.5410108 250.96667522 C494.55242355 272.45424336 494.53929199 293.9417433 494.51780933 315.42930025 C494.49993773 333.87624084 494.50304165 352.32308076 494.52148438 370.77001953 C494.54287881 392.17943496 494.55132484 413.58879057 494.53903532 434.9982152 C494.53776109 437.28012624 494.53650361 439.5620373 494.53526306 441.84394836 C494.53433741 443.52816993 494.53433741 443.52816993 494.53339306 445.24641618 C494.52993587 453.16801009 494.53577643 461.08956613 494.54518127 469.01115417 C494.55638678 478.66177879 494.55339172 488.31227322 494.5320583 497.96288288 C494.52152838 502.88905814 494.51745907 507.81501618 494.53065491 512.74118996 C494.54254449 517.24780116 494.53607322 521.75399308 494.5147447 526.26056606 C494.51026402 527.89373414 494.51257763 529.5269374 494.52224785 531.160083 C494.53436182 533.37528878 494.52198982 535.58904689 494.50336456 537.80417633 C494.50271515 539.03593676 494.50206574 540.26769719 494.50139666 541.5367837 C493.89985357 545.40585093 492.82433055 547.08207539 490 549.76171875 C484.29373627 550.46626764 480.5393189 549.53310025 475.25 547.19921875 C473.91833635 546.63277727 472.58490873 546.07046978 471.25 545.51171875 C470.20392578 545.07279297 470.20392578 545.07279297 469.13671875 544.625 C465.55559115 543.17814589 461.90463518 541.94584692 458.25 540.69921875 C448.35667155 537.29763608 438.55333846 533.66251353 428.75 530.01171875 C427.59667175 529.58232498 427.59667175 529.58232498 426.42004395 529.14425659 C422.88065872 527.82598725 419.34180029 526.50631381 415.80371094 525.18457031 C415.18371719 524.952957 414.56372345 524.72134369 413.92494202 524.48271179 C412.56386288 523.97291535 411.20344188 523.46136016 409.8434906 522.94856262 C406.93081587 521.85105615 404.02595214 520.77018516 401.06640625 519.8046875 C398.55954977 518.94821079 396.28578286 518.10655799 394 516.76171875 C392.875 513.51171875 392.875 513.51171875 393 510.76171875 C391.4221875 510.79265625 391.4221875 510.79265625 389.8125 510.82421875 C386 509.76171875 386 509.76171875 384.4921875 507.76171875 C383.63454614 506.15941872 382.81642752 504.5352148 382.04296875 502.890625 C381.07199102 500.6177716 381.07199102 500.6177716 379 498.76171875 C378.54296875 496.94921875 378.54296875 496.94921875 378.1875 494.76171875 C377.23547429 489.98611008 375.33178368 486.09122676 373.0234375 481.828125 C372 479.76171875 372 479.76171875 372 477.76171875 C371.34 477.76171875 370.68 477.76171875 370 477.76171875 C369.57589844 476.84132813 369.15179688 475.9209375 368.71484375 474.97265625 C361.72997193 459.30486139 361.72997193 459.30486139 353.25 444.44921875 C351.49692598 441.77976513 350.43349477 439.31632108 349.5 436.26171875 C348.31536758 432.39015468 346.72495953 429.31312515 344.41305733 425.99520683 C343 423.76171875 343 423.76171875 341.89112663 421.22062874 C340.52466148 418.29325225 339.22897573 416.1112347 337 413.76171875 C332.60169324 412.27634655 328.35003345 412.43735394 323.74267578 412.53466797 C322.39202513 412.52762011 321.04139136 412.51617759 319.69081116 412.50068665 C316.03530708 412.47115367 312.38262529 412.50290484 308.72735071 412.54585028 C304.90358209 412.58029373 301.08014677 412.5581277 297.25631714 412.54202271 C290.0206053 412.52012035 282.78602546 412.54896646 275.55047023 412.59614575 C267.3109936 412.64739284 259.07185821 412.64191545 250.83226418 412.63172507 C233.88776786 412.612037 216.94421417 412.66341521 200 412.76171875 C200.03552979 413.69556396 200.07105957 414.62940918 200.10766602 415.59155273 C200.23661333 419.04471453 200.36097112 422.49797727 200.48217773 425.95141602 C200.53566434 427.44822813 200.5909987 428.94497538 200.64819336 430.44165039 C200.72991956 432.58856207 200.8050746 434.73561668 200.87890625 436.8828125 C200.9260376 438.17630615 200.97316895 439.4697998 201.02172852 440.80249023 C201 443.76171875 201 443.76171875 200 444.76171875 C199.90334012 446.33124604 199.87484314 447.90503839 199.87402344 449.47753906 C199.86831329 450.9848056 199.86831329 450.9848056 199.86248779 452.52252197 C199.86094696 454.16459625 199.86094696 454.16459625 199.859375 455.83984375 C199.84104511 458.13803073 199.82147464 460.43620809 199.80078125 462.734375 C199.77180545 466.37304841 199.75000008 470.01110606 199.74951172 473.64990234 C199.74618025 477.15127763 199.71163983 480.65121724 199.671875 484.15234375 C199.6789447 485.23896301 199.6860144 486.32558228 199.69329834 487.44512939 C199.57188803 494.97033387 199.57188803 494.97033387 196.7590332 498.86279297 C194.20310448 500.62193053 192.11942917 501.79563555 189.18359375 502.75390625 C187.80409546 503.2176062 187.80409546 503.2176062 186.39672852 503.69067383 C185.42018311 504.00286865 184.4436377 504.31506348 183.4375 504.63671875 C181.37226559 505.32513022 179.30716395 506.01394012 177.2421875 506.703125 C176.2015918 507.0448877 175.16099609 507.38665039 174.08886719 507.73876953 C169.39336024 509.29379436 164.72824572 510.93249357 160.0625 512.57421875 C159.26577881 512.85185059 158.46905762 513.12948242 157.64819336 513.41552734 C154.20372072 514.61815018 150.77958484 515.84594629 147.37109375 517.1484375 C140.97018673 519.51088129 134.47282598 521.60411009 128 523.76171875 C127.67 505.28171875 127.34 486.80171875 127 467.76171875 C125.68 471.06171875 124.36 474.36171875 123 477.76171875 C122.34 479.08171875 121.68 480.40171875 121 481.76171875 C118.69 481.76171875 116.38 481.76171875 114 481.76171875 C114 497.27171875 114 512.78171875 114 528.76171875 C95.69319379 535.62677108 95.69319379 535.62677108 88.96875 537.875 C87.41312223 538.40123392 85.85754119 538.92760598 84.30200195 539.45410156 C83.51781891 539.71856079 82.73363586 539.98302002 81.9256897 540.25549316 C69.38184631 544.48932635 56.90624264 548.83190388 44.54370117 553.57373047 C33.70898478 557.69695528 22.68890645 561.27066943 11.6652832 564.85131836 C9.87197201 565.46387286 8.09711405 566.1330168 6.34448242 566.85375977 C3.33290162 568.02006915 1.20332864 568.17065432 -2 567.76171875 C-4.30275556 565.89461965 -5.67823871 564.40524134 -7 561.76171875 C-7.10167423 558.78846899 -7.14104612 555.83842309 -7.13701439 552.86474228 C-7.13966622 551.92718477 -7.14231804 550.98962727 -7.14505023 550.02365893 C-7.15277889 546.84630881 -7.15330376 543.6689971 -7.15390015 540.49163818 C-7.15791242 538.20492326 -7.16235024 535.91820906 -7.1671797 533.63149571 C-7.17917721 527.31972515 -7.18480098 521.00796224 -7.18936086 514.69618249 C-7.19421653 508.59695953 -7.20467337 502.49774477 -7.21437032 496.398528 C-7.24001683 480.05158875 -7.25503866 463.70464479 -7.26788078 447.3576912 C-7.27213385 441.94467068 -7.27669953 436.5316505 -7.2814641 431.11863041 C-7.30672181 402.35218546 -7.32877527 373.58573995 -7.34119225 344.81928635 C-7.34411369 338.15247343 -7.34708119 331.48566053 -7.35009766 324.81884766 C-7.35046857 323.99056029 -7.35083947 323.16227292 -7.35122162 322.30888594 C-7.3633808 295.4456544 -7.39433027 268.58248833 -7.43601918 241.71928756 C-7.47878122 214.1143545 -7.50542997 186.50945603 -7.51066696 158.90448896 C-7.51140744 155.00769892 -7.51231813 151.11090894 -7.51332474 147.21411896 C-7.51351535 146.44716798 -7.51370597 145.680217 -7.51390236 144.89002508 C-7.51741961 132.53380035 -7.53773436 120.17765745 -7.56412137 107.82146279 C-7.59023267 95.40744027 -7.59800759 82.99351255 -7.58702008 70.57946649 C-7.58156023 63.85067019 -7.58482994 57.12215041 -7.60948563 50.39338875 C-7.63185104 44.23850037 -7.63133732 38.08406217 -7.61228175 31.92916659 C-7.60946386 29.69763431 -7.61517851 27.46607232 -7.63009469 25.23458812 C-7.64908366 22.20985745 -7.63749065 19.18675143 -7.61803246 16.16205978 C-7.63088168 15.28798184 -7.6437309 14.4139039 -7.65696949 13.51333874 C-7.59684786 9.28374582 -7.28430533 6.57979723 -4.58637297 3.22180486 C-2 0.76171875 -2 0.76171875 0 0 Z " fill="#FD9F1C" transform="translate(130,82.23828125)"/>
<path d="M0 0 C7.26845736 0.26972791 13.350989 2.99370656 20 5.76171875 C22.67887664 6.80581092 25.36943855 7.81736209 28.0625 8.82421875 C29.07908691 9.20719116 29.07908691 9.20719116 30.11621094 9.59790039 C34.15256074 11.10836752 38.20838255 12.5057976 42.3125 13.82421875 C46.07290453 15.04912264 49.61295856 16.44605726 53.1875 18.13671875 C58.60501055 20.68844473 64.15735792 22.64673971 69.80908203 24.60107422 C74.37413639 26.18108969 78.86928975 27.86261541 83.33984375 29.6953125 C88.21631241 31.65019641 93.14818979 33.46069371 98.0703125 35.296875 C98.71258789 35.53680176 99.35486328 35.77672852 100.01660156 36.02392578 C101.387017 36.53369873 102.7588605 37.03964315 104.13183594 37.54248047 C104.82825195 37.79916504 105.52466797 38.05584961 106.2421875 38.3203125 C106.86722168 38.54904053 107.49225586 38.77776855 108.13623047 39.01342773 C110.13942884 39.8176985 112.0692685 40.796353 114 41.76171875 C114.33 104.13171875 114.66 166.50171875 115 230.76171875 C117.31 226.47171875 119.62 222.18171875 122 217.76171875 C122.33 217.76171875 122.66 217.76171875 123 217.76171875 C123.04575522 250.81608966 123.0810079 283.87045237 123.10213066 316.92484771 C123.10463214 320.82522404 123.10722078 324.72560032 123.10986328 328.62597656 C123.1103879 329.40248716 123.11091252 330.17899776 123.11145304 330.97903898 C123.120161 343.56020689 123.13593313 356.14135656 123.15430559 368.72251365 C123.17299377 381.62727344 123.18411443 394.53202366 123.18817699 407.43679643 C123.1909243 415.40284259 123.19960849 423.36883721 123.21583293 431.33486751 C123.22763215 437.43822652 123.22891408 443.54154098 123.22621536 449.64491272 C123.22676727 452.15237496 123.23076777 454.65983908 123.23841095 457.16728973 C123.24831124 460.58163109 123.24598681 463.99574906 123.24050903 467.41009521 C123.24633472 468.41009041 123.2521604 469.4100856 123.25816262 470.44038367 C123.25418052 471.35403072 123.25019842 472.26767776 123.24609566 473.20901108 C123.2468551 473.99731048 123.24761454 474.78560989 123.24839699 475.59779716 C122.96992913 478.02368247 122.20822712 479.65668103 121 481.76171875 C118.69 481.76171875 116.38 481.76171875 114 481.76171875 C114 497.27171875 114 512.78171875 114 528.76171875 C95.69319379 535.62677108 95.69319379 535.62677108 88.96875 537.875 C87.41312223 538.40123392 85.85754119 538.92760598 84.30200195 539.45410156 C83.51781891 539.71856079 82.73363586 539.98302002 81.9256897 540.25549316 C69.38184631 544.48932635 56.90624264 548.83190388 44.54370117 553.57373047 C33.70898478 557.69695528 22.68890645 561.27066943 11.6652832 564.85131836 C9.87197201 565.46387286 8.09711405 566.1330168 6.34448242 566.85375977 C3.33290162 568.02006915 1.20332864 568.17065432 -2 567.76171875 C-4.30275556 565.89461965 -5.67823871 564.40524134 -7 561.76171875 C-7.10167423 558.78846899 -7.14104612 555.83842309 -7.13701439 552.86474228 C-7.13966622 551.92718477 -7.14231804 550.98962727 -7.14505023 550.02365893 C-7.15277889 546.84630881 -7.15330376 543.6689971 -7.15390015 540.49163818 C-7.15791242 538.20492326 -7.16235024 535.91820906 -7.1671797 533.63149571 C-7.17917721 527.31972515 -7.18480098 521.00796224 -7.18936086 514.69618249 C-7.19421653 508.59695953 -7.20467337 502.49774477 -7.21437032 496.398528 C-7.24001683 480.05158875 -7.25503866 463.70464479 -7.26788078 447.3576912 C-7.27213385 441.94467068 -7.27669953 436.5316505 -7.2814641 431.11863041 C-7.30672181 402.35218546 -7.32877527 373.58573995 -7.34119225 344.81928635 C-7.34411369 338.15247343 -7.34708119 331.48566053 -7.35009766 324.81884766 C-7.35046857 323.99056029 -7.35083947 323.16227292 -7.35122162 322.30888594 C-7.3633808 295.4456544 -7.39433027 268.58248833 -7.43601918 241.71928756 C-7.47878122 214.1143545 -7.50542997 186.50945603 -7.51066696 158.90448896 C-7.51140744 155.00769892 -7.51231813 151.11090894 -7.51332474 147.21411896 C-7.51351535 146.44716798 -7.51370597 145.680217 -7.51390236 144.89002508 C-7.51741961 132.53380035 -7.53773436 120.17765745 -7.56412137 107.82146279 C-7.59023267 95.40744027 -7.59800759 82.99351255 -7.58702008 70.57946649 C-7.58156023 63.85067019 -7.58482994 57.12215041 -7.60948563 50.39338875 C-7.63185104 44.23850037 -7.63133732 38.08406217 -7.61228175 31.92916659 C-7.60946386 29.69763431 -7.61517851 27.46607232 -7.63009469 25.23458812 C-7.64908366 22.20985745 -7.63749065 19.18675143 -7.61803246 16.16205978 C-7.63088168 15.28798184 -7.6437309 14.4139039 -7.65696949 13.51333874 C-7.59684786 9.28374582 -7.28430533 6.57979723 -4.58637297 3.22180486 C-2 0.76171875 -2 0.76171875 0 0 Z " fill="#68696D" transform="translate(130,82.23828125)"/>
<path d="M0 0 C3.55774 1.18591333 6.93434572 2.33399066 10.375 3.75 C22.97913626 8.84049318 35.7972742 13.41092785 48.5546875 18.10009766 C51.01640559 19.00603744 53.47709937 19.91470752 55.9375 20.82421875 C57.56247208 21.42455476 59.1874718 22.02481594 60.8125 22.625 C61.60382324 22.91737549 62.39514648 23.20975098 63.21044922 23.51098633 C67.93998052 25.25414518 72.68241346 26.95288166 77.4375 28.625 C81.84983509 30.20785409 86.25527468 31.80271224 90.625 33.5 C91.56601562 33.8609375 92.50703125 34.221875 93.4765625 34.59375 C96.61742169 36.34407401 98.02102929 37.99316568 100 41 C100.50139666 44.22493505 100.50139666 44.22493505 100.50336456 47.95754242 C100.51208521 48.99470141 100.51208521 48.99470141 100.52098203 50.05281311 C100.53560746 52.37520238 100.52168591 54.69653893 100.50793457 57.0189209 C100.5125425 58.69847197 100.5188947 60.378019 100.52684355 62.05755758 C100.54357485 66.67715771 100.53527329 71.29642822 100.52289867 75.91602969 C100.51386603 80.8963387 100.52780903 85.87659016 100.53881836 90.85688782 C100.55662727 100.6149875 100.55275303 110.37296428 100.5411678 120.13106883 C100.53214308 128.05997963 100.53090531 135.98885593 100.53526306 143.91777039 C100.53587599 145.04522135 100.53648893 146.17267231 100.53712043 147.33428845 C100.5383993 149.62451113 100.53969615 151.91473381 100.5410108 154.20495647 C100.55242355 175.69252461 100.53929199 197.18002455 100.51780933 218.6675815 C100.49993773 237.11452209 100.50304165 255.56136201 100.52148438 274.00830078 C100.54287881 295.41771621 100.55132484 316.82707182 100.53903532 338.23649645 C100.53776109 340.51840749 100.53650361 342.80031855 100.53526306 345.08222961 C100.53464596 346.20504399 100.53402886 347.32785837 100.53339306 348.48469743 C100.52993587 356.40629134 100.53577643 364.32784738 100.54518127 372.24943542 C100.55638678 381.90006004 100.55339172 391.55055447 100.5320583 401.20116413 C100.52152838 406.12733939 100.51745907 411.05329743 100.53065491 415.97947121 C100.54254449 420.48608241 100.53607322 424.99227433 100.5147447 429.49884731 C100.51026402 431.13201539 100.51257763 432.76521865 100.52224785 434.39836425 C100.53436182 436.61357003 100.52198982 438.82732814 100.50336456 441.04245758 C100.50271515 442.27421801 100.50206574 443.50597844 100.50139666 444.77506495 C99.89985357 448.64413218 98.82433055 450.32035664 96 453 C90.29373627 453.70454889 86.5393189 452.7713815 81.25 450.4375 C79.91833635 449.87105852 78.58490873 449.30875103 77.25 448.75 C76.55261719 448.45738281 75.85523438 448.16476562 75.13671875 447.86328125 C71.55559115 446.41642714 67.90463518 445.18412817 64.25 443.9375 C54.35667155 440.53591733 44.55333846 436.90079478 34.75 433.25 C33.9811145 432.96373749 33.212229 432.67747498 32.42004395 432.38253784 C28.88065872 431.0642685 25.34180029 429.74459506 21.80371094 428.42285156 C21.18371719 428.19123825 20.56372345 427.95962494 19.92494202 427.72099304 C18.56386288 427.2111966 17.20344188 426.69964141 15.8434906 426.18684387 C12.93081587 425.0893374 10.02595214 424.00846641 7.06640625 423.04296875 C4.55954977 422.18649204 2.28578286 421.34483924 0 420 C-1.125 416.75 -1.125 416.75 -1 414 C-2.5778125 414.0928125 -2.5778125 414.0928125 -4.1875 414.1875 C-8 413 -8 413 -9.44492596 410.86996669 C-12.59448152 403.98041197 -13.71379179 398.38266919 -13.60127258 390.84455872 C-13.60554471 389.77751998 -13.60981683 388.71048125 -13.61421841 387.61110801 C-13.62239923 384.0655768 -13.59504331 380.52125074 -13.56762695 376.97583008 C-13.56621543 374.42251615 -13.5670105 371.8692002 -13.56983948 369.31588745 C-13.57097498 363.83417978 -13.55687157 358.35285439 -13.52865028 352.87122536 C-13.48787511 344.94597036 -13.47497882 337.02085896 -13.46871033 329.09551045 C-13.45778902 316.23473431 -13.42457384 303.37411747 -13.37719727 290.51342773 C-13.33124547 278.02645663 -13.29588115 265.53952891 -13.2746582 253.05249023 C-13.27334459 252.28174834 -13.27203097 251.51100644 -13.27067754 250.71690873 C-13.26415198 246.85001153 -13.25783353 242.98311402 -13.25161803 239.1162163 C-13.19985245 207.0773618 -13.11184647 175.03870309 -13 143 C-10.8012253 145.13138379 -9.32504976 146.97385337 -7.95703125 149.72265625 C-7.60576172 150.42583984 -7.25449219 151.12902344 -6.89257812 151.85351562 C-6.53615234 152.58248047 -6.17972656 153.31144531 -5.8125 154.0625 C-5.44447266 154.79533203 -5.07644531 155.52816406 -4.69726562 156.28320312 C-2 161.73278061 -2 161.73278061 -2 164 C-1.34 164 -0.68 164 0 164 C0 109.88 0 55.76 0 0 Z " fill="#5E5F63" transform="translate(524,179)"/>
<path d="M0 0 C6.04187903 0.32262803 10.92195074 1.91611956 16.44165039 4.33837891 C18.20404438 5.07815529 19.96707418 5.81641863 21.73071289 6.55322266 C22.59857422 6.92044434 23.46643555 7.28766602 24.3605957 7.66601562 C27.97897588 9.17075108 31.63985372 10.5464862 35.31665039 11.90087891 C39.89492854 13.59407451 44.45815232 15.31851954 49.01196289 17.07666016 C55.7602238 19.67699197 62.53343601 22.20585147 69.31665039 24.71337891 C70.49880127 25.15125732 71.68095215 25.58913574 72.89892578 26.0402832 C78.85772392 28.24336721 84.82326507 30.41882938 90.81665039 32.52587891 C94.83708478 33.94543969 98.76956371 35.47899745 102.69165039 37.15087891 C108.32047057 39.54917998 114.04398203 41.589166 119.82958984 43.57055664 C124.27199423 45.10167914 128.56567907 46.84140169 132.87915039 48.71337891 C135.08173777 49.56178293 137.2906288 50.39392622 139.50415039 51.21337891 C140.9054034 51.73494689 142.30642474 52.25713747 143.70727539 52.77978516 C144.50584961 53.07771973 145.30442383 53.3756543 146.12719727 53.68261719 C151.84204899 55.82315161 157.54800708 57.98725967 163.25415039 60.15087891 C163.8867276 60.39067474 164.51930481 60.63047058 165.17105103 60.87753296 C173.40158123 63.99876982 181.61921761 67.15061945 189.81689453 70.35717773 C195.25822704 72.4823057 200.72175023 74.54387989 206.19482422 76.58569336 C211.3125034 78.49579054 216.4140631 80.44357625 221.50024414 82.43603516 C224.02552676 83.39067957 226.54484747 84.28621982 229.10180664 85.14697266 C229.82239258 85.39705078 230.54297852 85.64712891 231.28540039 85.90478516 C232.684674 86.3889541 234.08952101 86.85741072 235.50024414 87.30712891 C239.32321106 88.65054098 241.91916459 90.13408959 244.07883453 93.61400223 C245.94609508 98.51217239 245.39133946 103.9915254 245.33325195 109.15429688 C245.3321227 110.52462226 245.33275886 111.89495007 245.33502197 113.26527405 C245.33616704 116.97369177 245.31269198 120.68158928 245.28472614 124.38988638 C245.25967756 128.26959166 245.25736778 132.14930959 245.25262451 136.02908325 C245.24020484 143.37072815 245.20739705 150.71213407 245.16722655 158.05367386 C245.1224773 166.41395871 245.1005139 174.77425512 245.08044481 183.13462996 C245.0386634 200.32768438 244.96833115 217.52050635 244.87915039 234.71337891 C244.21915039 234.71337891 243.55915039 234.71337891 242.87915039 234.71337891 C242.37125977 233.67439453 241.86336914 232.63541016 241.34008789 231.56494141 C236.90322235 222.47998679 236.90322235 222.47998679 231.87915039 213.71337891 C229.06747624 209.16221568 226.68972676 204.43737635 224.32788086 199.64428711 C219.02477486 188.90912046 213.4279121 178.32294589 207.87915039 167.71337891 C207.2255957 166.46234375 207.2255957 166.46234375 206.55883789 165.18603516 C200.958562 154.47324934 195.25755495 143.81547353 189.53878784 133.1656189 C182.51885265 120.08783772 175.51740749 106.9898931 168.87915039 93.71337891 C129.93915039 93.71337891 90.99915039 93.71337891 50.87915039 93.71337891 C45.01630086 105.43821285 45.01630086 105.43821285 39.16821289 117.17041016 C33.05587897 129.4484716 26.91092516 141.69949278 20.47290039 153.81103516 C17.51892073 159.3731913 14.62901198 164.96831348 11.73574829 170.56222534 C9.66381323 174.56623279 7.58613564 178.56726566 5.50952148 182.56884766 C4.47435501 184.56539516 3.44065319 186.56270328 2.40893555 188.56103516 C1.15436329 190.98964816 -0.1070794 193.41454332 -1.37084961 195.83837891 C-1.72928955 196.53656738 -2.08772949 197.23475586 -2.45703125 197.95410156 C-4.89217978 202.59904399 -4.89217978 202.59904399 -7.12084961 203.71337891 C-7.23761681 178.13145041 -7.3258055 152.54956182 -7.37991047 126.96742058 C-7.40569934 115.08935517 -7.44086316 103.21145527 -7.49804688 91.33349609 C-7.54786063 80.98146363 -7.58013564 70.62955103 -7.59129208 60.27740204 C-7.59781422 54.79523579 -7.61315767 49.31341246 -7.64949989 43.83135605 C-7.68342709 38.67181269 -7.69390908 33.51275367 -7.68638802 28.35310936 C-7.68776402 26.45923544 -7.69771593 24.5653454 -7.71687698 22.67156792 C-7.74176435 20.08504632 -7.73577129 17.50035193 -7.72212219 14.91378784 C-7.7366864 14.16474808 -7.75125061 13.41570831 -7.76625615 12.64397037 C-7.68629574 7.03623378 -5.73725922 1.92981138 0 0 Z " fill="#646569" transform="translate(265.120849609375,82.28662109375)"/>
<path d="M0 0 C0.33 0 0.66 0 1 0 C1.04575522 33.05437091 1.0810079 66.10873362 1.10213066 99.16312896 C1.10463214 103.06350529 1.10722078 106.96388157 1.10986328 110.86425781 C1.1103879 111.64076841 1.11091252 112.41727901 1.11145304 113.21732023 C1.120161 125.79848814 1.13593313 138.37963781 1.15430559 150.9607949 C1.17299377 163.86555469 1.18411443 176.77030491 1.18817699 189.67507768 C1.1909243 197.64112384 1.19960849 205.60711846 1.21583293 213.57314876 C1.22763215 219.67650777 1.22891408 225.77982223 1.22621536 231.88319397 C1.22676727 234.39065621 1.23076777 236.89812033 1.23841095 239.40557098 C1.24831124 242.81991234 1.24598681 246.23403031 1.24050903 249.64837646 C1.24633472 250.64837166 1.2521604 251.64836685 1.25816262 252.67866492 C1.25418052 253.59231197 1.25019842 254.50595901 1.24609566 255.44729233 C1.2468551 256.23559173 1.24761454 257.02389114 1.24839699 257.83607841 C1 260 1 260 -1 264 C-42.91 264 -84.82 264 -128 264 C-128 244.875 -128 244.875 -125 238.4375 C-124.57074219 237.4794043 -124.57074219 237.4794043 -124.1328125 236.50195312 C-123.44996712 234.98831253 -122.72955866 233.49168691 -122 232 C-121.34 232 -120.68 232 -120 232 C-119.91363281 231.33613281 -119.82726562 230.67226563 -119.73828125 229.98828125 C-118.76909107 226.06536863 -117.04023633 222.76183524 -115.1875 219.1875 C-114.84396484 218.51396484 -114.50042969 217.84042969 -114.14648438 217.14648438 C-113.45448168 215.78974363 -112.76031933 214.43410216 -112.06396484 213.07958984 C-110.35127091 209.73201597 -108.67710715 206.36552065 -107 203 C-106.34 203 -105.68 203 -105 203 C-104.896875 202.278125 -104.79375 201.55625 -104.6875 200.8125 C-103.92875343 197.70853676 -102.677335 195.70954115 -101 193 C-100.29942846 191.35417969 -99.59966931 189.70800574 -98.90527344 188.05957031 C-97.18934761 184.15570022 -95.23501762 180.36767442 -93.3125 176.5625 C-92.89677734 175.73556641 -92.48105469 174.90863281 -92.05273438 174.05664062 C-91.03699036 172.03682781 -90.01937883 170.0179801 -89 168 C-88.34 168 -87.68 168 -87 168 C-86.85304687 167.40574219 -86.70609375 166.81148437 -86.5546875 166.19921875 C-84.65837389 159.19157707 -81.66845954 153.24469165 -78 147 C-77.34 147 -76.68 147 -76 147 C-76 145.68 -76 144.36 -76 143 C-75.34 143 -74.68 143 -74 143 C-73.76539063 142.03964844 -73.53078125 141.07929688 -73.2890625 140.08984375 C-71.91696207 135.28749226 -69.65669705 130.98685318 -67.375 126.5625 C-66.95476562 125.73556641 -66.53453125 124.90863281 -66.1015625 124.05664062 C-65.07316042 122.03489563 -64.03923468 120.01619192 -63 118 C-62.34 118 -61.68 118 -61 118 C-60.7525 117.195625 -60.505 116.39125 -60.25 115.5625 C-57.2341486 106.96732351 -52.99181709 98.97970107 -48.75 90.9375 C-48.19570312 89.88111328 -47.64140625 88.82472656 -47.0703125 87.73632812 C-45.71604821 85.15622116 -44.35923295 82.57749183 -43 80 C-42.34 80 -41.68 80 -41 80 C-40.87625 79.2575 -40.7525 78.515 -40.625 77.75 C-40.04513299 75.19858515 -39.26291261 73.2732427 -38 71 C-37.34 71 -36.68 71 -36 71 C-35.67 69.845 -35.34 68.69 -35 67.5 C-32.78204447 60.91702696 -29.56637021 54.84570448 -26.38671875 48.69091797 C-25.04985144 46.09673638 -23.72418747 43.49701481 -22.40080261 40.89593506 C-21.14929613 38.43934932 -19.89192407 35.98579681 -18.63320923 33.53289795 C-18.00501856 32.30708589 -17.37851971 31.08040528 -16.75375366 29.85284424 C-15.86623536 28.11123981 -14.97036706 26.37389834 -14.07421875 24.63671875 C-13.29437622 23.11630981 -13.29437622 23.11630981 -12.4987793 21.56518555 C-11.15217753 19.26045437 -9.89359073 17.82660657 -8 16 C-6.890981 14.18963563 -6.890981 14.18963563 -5.95703125 12.20703125 C-5.43012695 11.1387207 -5.43012695 11.1387207 -4.89257812 10.04882812 C-4.53615234 9.31083984 -4.17972656 8.57285156 -3.8125 7.8125 C-3.26045898 6.68811523 -3.26045898 6.68811523 -2.69726562 5.54101562 C-1.79271782 3.69667788 -0.89562424 1.84868755 0 0 Z " fill="#30302F" transform="translate(252,300)"/>
<path d="M0 0 C2.39179787 2.30230266 3.82452401 4.31381451 5.26953125 7.31640625 C5.68396484 8.16396484 6.09839844 9.01152344 6.52539062 9.88476562 C6.95013672 10.76841797 7.37488281 11.65207031 7.8125 12.5625 C10.27533868 17.66875992 12.74926697 22.68296686 15.74609375 27.5 C19.96113349 34.39273438 23.42869311 41.67254309 27.00231934 48.91088867 C29.10701246 53.17299007 31.22515397 57.42839008 33.34375 61.68359375 C33.75389343 62.5078183 34.16403687 63.33204285 34.58660889 64.1812439 C38.28416734 71.59822596 42.11701352 78.93707121 46.015625 86.25 C48.46382457 90.84681067 50.76447248 95.51481334 53.07568359 100.18164062 C55.15196877 104.33148011 57.3211772 108.43039848 59.4921875 112.53125 C64.77181962 122.53720218 69.98423337 132.57690518 75.15380859 142.64013672 C76.15000271 144.57664815 77.14877846 146.51183331 78.14990234 148.44580078 C79.61876359 151.28383537 81.07977804 154.12578185 82.5390625 156.96875 C83.2138414 158.26697693 83.2138414 158.26697693 83.9022522 159.59143066 C84.31043182 160.39077026 84.71861145 161.19010986 85.13916016 162.01367188 C85.49982574 162.71359253 85.86049133 163.41351318 86.23208618 164.13464355 C87 166 87 166 87 169 C87.66 169 88.32 169 89 169 C92.73039648 176.33215859 92.73039648 176.33215859 94.1953125 179.9609375 C96.96323472 186.48713944 100.61653767 192.621844 104.0324707 198.82348633 C104.97506369 200.53757457 105.91142653 202.25508413 106.84765625 203.97265625 C107.40461182 204.98593994 107.96156738 205.99922363 108.53540039 207.04321289 C114.58448767 219.25533092 112 225.51619651 112 242 C79.33 242 46.66 242 13 242 C13 251.24 13 260.48 13 270 C10.36 270 7.72 270 5 270 C0.96775013 262.42855463 -0.72887395 256.39308375 -0.60127258 247.84455872 C-0.60554471 246.77751998 -0.60981683 245.71048125 -0.61421841 244.61110801 C-0.62239923 241.0655768 -0.59504331 237.52125074 -0.56762695 233.97583008 C-0.56621543 231.42251615 -0.5670105 228.8692002 -0.56983948 226.31588745 C-0.57097498 220.83417978 -0.55687157 215.35285439 -0.52865028 209.87122536 C-0.48787511 201.94597036 -0.47497882 194.02085896 -0.46871033 186.09551045 C-0.45778902 173.23473431 -0.42457384 160.37411747 -0.37719727 147.51342773 C-0.33124547 135.02645663 -0.29588115 122.53952891 -0.2746582 110.05249023 C-0.27334459 109.28174834 -0.27203097 108.51100644 -0.27067754 107.71690873 C-0.26415198 103.85001153 -0.25783353 99.98311402 -0.25161803 96.1162163 C-0.19985245 64.0773618 -0.11184647 32.03870309 0 0 Z " fill="#2B2B2A" transform="translate(511,322)"/>
<path d="M0 0 C39.6 0 79.2 0 120 0 C120 15.51 120 31.02 120 47 C101.69319379 53.86505233 101.69319379 53.86505233 94.96875 56.11328125 C93.41312223 56.63951517 91.85754119 57.16588723 90.30200195 57.69238281 C89.51781891 57.95684204 88.73363586 58.22130127 87.9256897 58.49377441 C75.38184631 62.7276076 62.90624264 67.07018513 50.54370117 71.81201172 C39.70898478 75.93523653 28.68890645 79.50895068 17.6652832 83.08959961 C15.87197201 83.70215411 14.09711405 84.37129805 12.34448242 85.09204102 C9.33290162 86.2583504 7.20332864 86.40893557 4 86 C1.8447876 84.47540283 1.8447876 84.47540283 0 82 C-0.37423266 79.20382057 -0.50739141 76.80964586 -0.45410156 74.01855469 C-0.4545837 73.20527332 -0.45506584 72.39199196 -0.45556259 71.5540657 C-0.45258127 68.92622078 -0.42214285 66.29951639 -0.390625 63.671875 C-0.38474249 62.04769436 -0.38066262 60.42350615 -0.37841797 58.79931641 C-0.35746226 52.78276182 -0.30161717 46.76636966 -0.25 40.75 C-0.1675 27.3025 -0.085 13.855 0 0 Z " fill="#555659" transform="translate(124,564)"/>
<path d="M0 0 C2.84584733 3.39546762 4.49761095 7.11776902 6.1875 11.16796875 C6.63576897 12.22305382 6.63576897 12.22305382 7.09309387 13.29945374 C7.73374465 14.80878423 8.37196046 16.31915017 9.00796509 17.83044434 C10.68595302 21.81731105 12.38159615 25.79667395 14.07421875 29.77734375 C14.41128342 30.57153717 14.74834808 31.36573059 15.09562683 32.18399048 C17.94714708 38.89695434 20.86169928 45.58000574 23.8125 52.25 C27.23306778 59.98947283 30.63304474 67.73703975 34 75.5 C38.07917672 84.90290355 42.19754801 94.28816479 46.33398438 103.66601562 C49.35550647 110.51927537 52.3702804 117.37199347 55.1875 124.3125 C55.53167969 125.15425781 55.87585938 125.99601562 56.23046875 126.86328125 C57 129 57 129 57 131 C19.38 131 -18.24 131 -57 131 C-54.7810219 124.34306569 -54.7810219 124.34306569 -53.125 121.25 C-51.72559228 118.5321448 -50.49511379 115.81970792 -49.39453125 112.96875 C-45.97059638 104.31864257 -42.23470271 95.79674118 -38.5625 87.25 C-37.75249314 85.36272431 -36.94251623 83.47543577 -36.13256836 81.58813477 C-29.45842884 66.04278185 -22.75789205 50.50915115 -16 35 C-15.4932373 33.83549316 -14.98647461 32.67098633 -14.46435547 31.47119141 C-12.97959976 28.06264696 -11.49063737 24.6559758 -10 21.25 C-9.56695557 20.25605225 -9.13391113 19.26210449 -8.68774414 18.23803711 C-5.97520123 12.06026169 -3.07613003 6.00499852 0 0 Z " fill="#242321" transform="translate(375,275)"/>
<path d="M0 0 C15.18 0 30.36 0 46 0 C46.16043524 21.05266837 46.16043524 21.05266837 46.1953125 30.01953125 C46.21923355 36.14060313 46.24754636 42.26143591 46.30175781 48.38232422 C46.34518655 53.31658296 46.36913102 58.25058535 46.37950897 63.18502045 C46.38690568 65.06853014 46.40134961 66.95202564 46.42292023 68.83542633 C46.45191492 71.47164848 46.45595769 74.10680838 46.45410156 76.74316406 C46.46848267 77.52359573 46.48286377 78.3040274 46.49768066 79.10810852 C46.47066353 82.64920904 46.30604509 84.60303733 44.11212158 87.44871521 C41.85612308 89.10567293 39.93563193 90.01664426 37.28125 90.89453125 C36.35836182 91.20688721 35.43547363 91.51924316 34.48461914 91.84106445 C33.49969482 92.16163818 32.51477051 92.48221191 31.5 92.8125 C29.42566857 93.5100817 27.351452 94.20800503 25.27734375 94.90625 C24.23046387 95.25429688 23.18358398 95.60234375 22.10498047 95.9609375 C17.40814148 97.5327056 12.7352873 99.17089008 8.0625 100.8125 C7.26585937 101.09005127 6.46921875 101.36760254 5.6484375 101.65356445 C2.20394755 102.85643122 -1.2203241 104.08419274 -4.62890625 105.38671875 C-11.00812654 107.80631067 -17.52123761 109.8657202 -24 112 C-25.83721865 76.50205065 -26.92215351 47.26644162 -8 16 C-5.36 10.72 -2.72 5.44 0 0 Z " fill="#3A3A3B" transform="translate(282,494)"/>
<path d="M0 0 C32.67 0 65.34 0 99 0 C99.061875 10.663125 99.12375 21.32625 99.1875 32.3125 C99.22846802 37.36171753 99.22846802 37.36171753 99.27026367 42.51293945 C99.27902283 45.17138306 99.28666811 47.82983068 99.29296875 50.48828125 C99.30080887 51.17955612 99.30864899 51.87083099 99.31672668 52.58305359 C99.33866705 54.61947537 99.34001653 56.65608706 99.34057617 58.69262695 C99.35056892 60.41471123 99.35056892 60.41471123 99.36076355 62.17158508 C99 65 99 65 97.71406555 66.8724823 C94.72178944 68.84081092 91.41330704 68.42785852 88 68 C84.640625 66.93359375 84.640625 66.93359375 81.25 65.4375 C79.91833635 64.87105852 78.58490873 64.30875103 77.25 63.75 C76.55261719 63.45738281 75.85523438 63.16476562 75.13671875 62.86328125 C71.55559115 61.41642714 67.90463518 60.18412817 64.25 58.9375 C54.35667155 55.53591733 44.55333846 51.90079478 34.75 48.25 C33.9811145 47.96373749 33.212229 47.67747498 32.42004395 47.38253784 C27.61208287 45.59177835 22.80529222 43.79790855 18 42 C17.28875977 41.73410568 16.57751953 41.46821136 15.84472656 41.19425964 C12.04642539 39.77262879 8.26199138 38.32774653 4.5 36.8125 C3.6440625 36.46832031 2.788125 36.12414062 1.90625 35.76953125 C0.96265625 35.38861328 0.96265625 35.38861328 0 35 C-1.64991582 23.45058924 -0.41640119 11.6592333 0 0 Z " fill="#4C4D50" transform="translate(524,564)"/>
<path d="M0 0 C2.64 0 5.28 0 8 0 C8.54269531 1.10859375 9.08539063 2.2171875 9.64453125 3.359375 C10.36697274 4.82302269 11.08964092 6.2865585 11.8125 7.75 C12.16892578 8.47960937 12.52535156 9.20921875 12.89257812 9.9609375 C14.69067517 13.5901242 16.54609178 16.76802332 19 20 C19.6875 23.25 19.6875 23.25 20 26 C20.66 26 21.32 26 22 26 C22.4846875 26.99257812 22.969375 27.98515625 23.46875 29.0078125 C27.10187447 36.39125901 30.86085099 43.62433995 35.01123047 50.73168945 C37.39129379 54.84369948 39.54487571 59.04090391 41.625 63.3125 C54.2994635 91.36273156 54.2994635 91.36273156 72 116 C72.66 115.34 73.32 114.68 74 114 C74.77528479 117.42573937 75.11918778 120.57239245 75.09765625 124.08203125 C75.09282227 125.47905273 75.09282227 125.47905273 75.08789062 126.90429688 C75.07532227 128.34385742 75.07532227 128.34385742 75.0625 129.8125 C75.05798828 130.79154297 75.05347656 131.77058594 75.04882812 132.77929688 C75.03708684 135.18626111 75.02066419 137.59309857 75 140 C74.34 140 73.68 140 73 140 C72.49210937 138.96101562 71.98421875 137.92203125 71.4609375 136.8515625 C67.02407196 127.76660789 67.02407196 127.76660789 62 119 C59.18832585 114.44883678 56.81057636 109.72399744 54.44873047 104.9309082 C49.14562447 94.19574156 43.54876171 83.60956699 38 73 C37.56429687 72.16597656 37.12859375 71.33195312 36.6796875 70.47265625 C31.71194715 60.9698497 26.66934891 51.5083292 21.59716797 42.06091309 C16.39750893 32.37520968 11.22230176 22.67762653 6.125 12.9375 C5.6192041 11.97424805 5.1134082 11.01099609 4.59228516 10.01855469 C4.13128418 9.13458008 3.6702832 8.25060547 3.1953125 7.33984375 C2.79328613 6.57019287 2.39125977 5.80054199 1.97705078 5.00756836 C1 3 1 3 0 0 Z " fill="#302F2C" transform="translate(435,177)"/>
<path d="M0 0 C46.2 0 92.4 0 140 0 C140 0.99 140 1.98 140 3 C139.67 2.67 139.34 2.34 139 2 C137.22877114 1.89145019 135.45321141 1.85312555 133.67869568 1.84178162 C132.52458191 1.8319928 131.37046814 1.82220398 130.18138123 1.81211853 C128.90392532 1.80636307 127.62646942 1.8006076 126.31030273 1.79467773 C124.96041561 1.78510436 123.61053152 1.77509461 122.26065063 1.76467896 C118.58522657 1.73756517 114.90978958 1.71659079 111.2343204 1.69667697 C107.39724271 1.6748572 103.56020515 1.64744896 99.72315979 1.62062073 C92.45231693 1.57063946 85.18145186 1.52572087 77.91056544 1.48259836 C69.63497798 1.43327233 61.35943077 1.37833707 53.08388221 1.32291877 C36.05595866 1.20901534 19.02799777 1.1021946 2 1 C2.03552979 1.93384521 2.07105957 2.86769043 2.10766602 3.82983398 C2.23661333 7.28299578 2.36097112 10.73625852 2.48217773 14.18969727 C2.53566434 15.68650938 2.5909987 17.18325663 2.64819336 18.67993164 C2.72991956 20.82684332 2.8050746 22.97389793 2.87890625 25.12109375 C2.9260376 26.4145874 2.97316895 27.70808105 3.02172852 29.04077148 C3 32 3 32 2 33 C1.87727151 34.59513893 1.82218957 36.19554932 1.79467773 37.79516602 C1.77473251 38.81614883 1.75478729 39.83713165 1.73423767 40.88905334 C1.71752518 41.9994548 1.70081268 43.10985626 1.68359375 44.25390625 C1.66281265 45.38448959 1.64203156 46.51507294 1.62062073 47.67991638 C1.55500203 51.30737985 1.49618323 54.93491833 1.4375 58.5625 C1.39432649 61.01498186 1.3507126 63.467456 1.30664062 65.91992188 C1.19930816 71.94653427 1.0975651 77.97322201 1 84 C0.67 84 0.34 84 0 84 C0 56.28 0 28.56 0 0 Z " fill="#A6A199" transform="translate(328,494)"/>
<path d="M0 0 C0.66 0 1.32 0 2 0 C2 4.29 2 8.58 2 13 C3.65 12.67 5.3 12.34 7 12 C8.45169849 11.92784325 9.9062998 11.90108856 11.35969543 11.91770935 C12.61950729 11.92826859 12.61950729 11.92826859 13.9047699 11.93904114 C15.26639 11.95846016 15.26639 11.95846016 16.65551758 11.97827148 C17.6218512 11.98787903 18.58818481 11.99748657 19.58380127 12.00738525 C22.77078696 12.04030758 25.95763267 12.08066575 29.14453125 12.12109375 C31.35698456 12.14540147 33.56944301 12.1692447 35.78190613 12.19264221 C41.59998446 12.25541819 47.41797144 12.32450327 53.23596191 12.39489746 C59.17484381 12.46563946 65.11379039 12.53042132 71.05273438 12.59570312 C82.701894 12.72463188 94.35096582 12.86022514 106 13 C106 13.33 106 13.66 106 14 C69.04 14 32.08 14 -6 14 C-2 4 -2 4 0 0 Z " fill="#635D53" transform="translate(327,161)"/>
<path d="M0 0 C0.33 0 0.66 0 1 0 C1 18.15 1 36.3 1 55 C1.99 55.33 2.98 55.66 4 56 C3.01 58.64 2.02 61.28 1 64 C0.67 64 0.34 64 0 64 C0 42.88 0 21.76 0 0 Z " fill="#545559" transform="translate(124,483)"/>
<path d="M0 0 C2.64 0 5.28 0 8 0 C8.69710731 1.28650706 9.38242876 2.57940665 10.0625 3.875 C10.44535156 4.59429687 10.82820313 5.31359375 11.22265625 6.0546875 C11.47917969 6.69664062 11.73570312 7.33859375 12 8 C11.67 8.66 11.34 9.32 11 10 C7.75 10.0625 7.75 10.0625 4 9 C2.14940281 6.17343946 1.04179786 3.2030431 0 0 Z " fill="#444546" transform="translate(435,177)"/>
<path d="M0 0 C0.33 0 0.66 0 1 0 C1 4.29 1 8.58 1 13 C-1.31 13 -3.62 13 -6 13 C-5.37935063 11.39414507 -4.7533082 9.79037383 -4.125 8.1875 C-3.77695312 7.29417969 -3.42890625 6.40085938 -3.0703125 5.48046875 C-2 3 -2 3 0 0 Z " fill="#3A3A3B" transform="translate(327,162)"/>
<path d="M0 0 C0.99 0.33 1.98 0.66 3 1 C2.319375 2.010625 1.63875 3.02125 0.9375 4.0625 C-3.02877396 10.36522846 -5.93981761 17.22703148 -9 24 C-9.87280378 21.56079419 -10.10191518 20.31920806 -9.30322266 17.81762695 C-8.73933838 16.66460083 -8.73933838 16.66460083 -8.1640625 15.48828125 C-7.75929688 14.64845703 -7.35453125 13.80863281 -6.9375 12.94335938 C-6.504375 12.07517578 -6.07125 11.20699219 -5.625 10.3125 C-5.19960938 9.43271484 -4.77421875 8.55292969 -4.3359375 7.64648438 C-1.1896734 1.1896734 -1.1896734 1.1896734 0 0 Z " fill="#30271B" transform="translate(282,494)"/>
<path d="M0 0 C0.66 0.33 1.32 0.66 2 1 C0.86464474 3.45993639 -0.39389779 5.57178711 -1.9375 7.8125 C-3.4836834 10.20205616 -4.52715558 12.10458812 -5.5625 14.6875 C-6.81154944 17.56574436 -7.61424754 19.06867658 -10 21 C-9.49009728 16.26419116 -8.22436516 13.30415647 -5.5625 9.375 C-3.50661765 6.31049062 -1.56333376 3.34663408 0 0 Z " fill="#F9B93F" transform="translate(264,276)"/>
<path d="M0 0 C0.66 0 1.32 0 2 0 C3.88646445 2.77421243 3.99303187 4.13239454 3.8125 7.5625 C3 11 3 11 0 14 C0 9.38 0 4.76 0 0 Z " fill="#F5A029" transform="translate(253,542)"/>
<path d="M0 0 C-5.92566493 2.30442525 -11.89262558 4.23536928 -18 6 C-18 5.34 -18 4.68 -18 4 C-16.68 3.67 -15.36 3.34 -14 3 C-14 2.34 -14 1.68 -14 1 C-12.35 1.33 -10.7 1.66 -9 2 C-8.67 1.01 -8.34 0.02 -8 -1 C-3.375 -2.25 -3.375 -2.25 0 0 Z " fill="#525355" transform="translate(281,598)"/>
<path d="M0 0 C1.13201694 3.39605081 0.71634649 4.57745567 0 8 C0 9.051875 0 10.10375 0 11.1875 C0 14 0 14 -1 16 C-0.34 16 0.32 16 1 16 C0.34 17.32 -0.32 18.64 -1 20 C-3.03480984 17.96519016 -2.18507583 13.91279983 -2.1875 11.125 C-2.19974609 10.39152344 -2.21199219 9.65804687 -2.22460938 8.90234375 C-2.23509566 5.06436486 -2.17768617 3.26652926 0 0 Z " fill="#262523" transform="translate(260,542)"/>
<path d="M0 0 C0.66 0 1.32 0 2 0 C3.13112344 5.02721527 2.93493027 8.98537403 2 14 C1.01 14.495 1.01 14.495 0 15 C0 10.05 0 5.1 0 0 Z " fill="#46474A" transform="translate(259,579)"/>
<path d="M0 0 C0.66 0 1.32 0 2 0 C2 6.6 2 13.2 2 20 C-1 14 -1 14 -1 11 C-0.67 10.67 -0.34 10.34 0 10 C0.07205511 8.31391034 0.08386068 6.62499341 0.0625 4.9375 C0.04896484 3.55884766 0.04896484 3.55884766 0.03515625 2.15234375 C0.02355469 1.44207031 0.01195312 0.73179687 0 0 Z " fill="#464648" transform="translate(326,556)"/>
<path d="M0 0 C0.99 0 1.98 0 3 0 C3 0.66 3 1.32 3 2 C3.66 2 4.32 2 5 2 C5 2.66 5 3.32 5 4 C4.38125 4.28875 3.7625 4.5775 3.125 4.875 C0.86674235 5.93720042 0.86674235 5.93720042 -1 8 C-1.125 2.25 -1.125 2.25 0 0 Z " fill="#414244" transform="translate(260,564)"/>
<path d="M0 0 C0.97016264 2.91048792 1.52999575 5.66997591 2.0625 8.6875 C2.23910156 9.68136719 2.41570312 10.67523437 2.59765625 11.69921875 C2.73042969 12.45847656 2.86320312 13.21773437 3 14 C0 12 0 12 -0.80078125 9.6875 C-0.96964844 8.800625 -1.13851563 7.91375 -1.3125 7 C-1.49425781 6.113125 -1.67601562 5.22625 -1.86328125 4.3125 C-1.90839844 3.549375 -1.95351563 2.78625 -2 2 C-1.34 1.34 -0.68 0.68 0 0 Z " fill="#D29150" transform="translate(509,569)"/>
<path d="M0 0 C0.66 0.66 1.32 1.32 2 2 C0.75579353 2.5345256 -0.49570936 3.05208611 -1.75 3.5625 C-2.44609375 3.85253906 -3.1421875 4.14257812 -3.859375 4.44140625 C-6.30012784 5.07831803 -7.6403655 4.80248831 -10 4 C-10 3.34 -10 2.68 -10 2 C-9.04287109 1.90912109 -9.04287109 1.90912109 -8.06640625 1.81640625 C-6.82697266 1.69072266 -6.82697266 1.69072266 -5.5625 1.5625 C-4.73878906 1.48128906 -3.91507812 1.40007813 -3.06640625 1.31640625 C-1.01337975 1.21069185 -1.01337975 1.21069185 0 0 Z " fill="#505153" transform="translate(290,592)"/>
<path d="M0 0 C0.33 0 0.66 0 1 0 C1 3.3 1 6.6 1 10 C-0.32 9.01 -1.64 8.02 -3 7 C-1.125 2.25 -1.125 2.25 0 0 Z " fill="#E2DDDA" transform="translate(256,551)"/>
<path d="M0 0 C0.66 0.33 1.32 0.66 2 1 C-2.2 10.1 -2.2 10.1 -6 12 C-4 8 -2 4 0 0 Z " fill="#EFB23B" transform="translate(264,276)"/>
<path d="M0 0 C0.66 0 1.32 0 2 0 C2 0.66 2 1.32 2 2 C5.465 1.505 5.465 1.505 9 1 C6.06171403 3.50298434 3.82097239 4.46930939 0 5 C0 3.35 0 1.7 0 0 Z " fill="#525253" transform="translate(317,580)"/>
<path d="M0 0 C2.5 1.625 2.5 1.625 5 4 C5.3125 7.25 5.3125 7.25 5 10 C2.66063182 7.87330165 1.19346152 5.93775144 0 3 C0 2.01 0 1.02 0 0 Z " fill="#F38013" transform="translate(503,561)"/>
<path d="M0 0 C0.66 0.99 1.32 1.98 2 3 C0.02 5.64 -1.96 8.28 -4 11 C-4 7.80389448 -3.45328458 6.58282374 -2 3.8125 C-1.62875 3.09707031 -1.2575 2.38164062 -0.875 1.64453125 C-0.441875 0.83048828 -0.441875 0.83048828 0 0 Z " fill="#E8B03E" transform="translate(296,214)"/>
</svg>
