<?xml version="1.0" encoding="UTF-8"?>
<svg version="1.1" xmlns="http://www.w3.org/2000/svg" width="236" height="236">
<path d="M0 0 C0.84054593 -0.00085442 1.68109187 -0.00170885 2.54710889 -0.00258917 C5.36771087 -0.00423819 8.18825358 0.00126799 11.0088501 0.00672913 C13.02911884 0.00701115 15.04938769 0.00685297 17.06965637 0.00628662 C22.55892281 0.00599923 28.04816748 0.01188654 33.53742886 0.01886058 C39.2723066 0.02510383 45.00718481 0.02569869 50.74206543 0.02688599 C61.60401421 0.02999643 72.46595295 0.03820596 83.32789731 0.04823548 C95.6929288 0.05940551 108.05796077 0.06490931 120.42299604 0.06993091 C145.86079932 0.0803888 171.29859368 0.09798271 196.73638916 0.12025452 C196.73638916 0.78025452 196.73638916 1.44025452 196.73638916 2.12025452 C197.87334229 2.49343811 197.87334229 2.49343811 199.03326416 2.87416077 C203.61147781 4.98463787 205.638876 8.6513491 207.73638916 13.12025452 C208.59478735 16.80467791 208.72156834 20.34588477 208.73638916 24.12025452 C208.75056885 25.27009827 208.76474854 26.41994202 208.77935791 27.60462952 C208.79698649 30.77777431 208.77695108 33.94741116 208.73638916 37.12025452 C208.73638916 38.11025452 208.73638916 39.10025452 208.73638916 40.12025452 C208.73438311 41.51414017 208.73210836 42.90802545 208.72966003 44.3019104 C208.70958473 56.1243769 208.69442947 67.94683893 208.68457699 79.76931858 C208.67934432 85.84032471 208.67223598 91.91131693 208.66094971 97.98231506 C208.65011634 103.84718908 208.64411174 109.71204967 208.64151192 115.57693291 C208.63965943 117.81652475 208.63604218 120.05611584 208.6306591 122.29570198 C208.62344213 125.42026001 208.62239847 128.54476182 208.62286377 131.66932678 C208.61926849 132.60184769 208.61567322 133.53436859 208.61196899 134.49514771 C208.61403099 135.76751282 208.61403099 135.76751282 208.61613464 137.06558228 C208.61521285 137.80465096 208.61429106 138.54371965 208.61334133 139.30518436 C208.62599815 141.22088335 208.62599815 141.22088335 209.73638916 143.12025452 C209.07638916 143.12025452 208.41638916 143.12025452 207.73638916 143.12025452 C207.76668213 143.97031067 207.7969751 144.82036682 207.82818604 145.69618225 C208.99425795 178.83280666 208.99425795 178.83280666 208.73638916 191.12025452 C208.73445557 191.81135315 208.73252197 192.50245178 208.73052979 193.2144928 C208.69514434 201.03998291 208.44287903 207.73995726 203.79498291 214.32337952 C197.5739748 219.75348147 191.3502227 220.74838068 183.29888916 220.87025452 C181.82923706 220.91363953 181.82923706 220.91363953 180.32989502 220.957901 C168.80299112 221.25719477 157.26591516 221.2150577 145.73638916 221.12025452 C145.40638916 222.11025452 145.07638916 223.10025452 144.73638916 224.12025452 C144.23623291 223.6394342 143.73607666 223.15861389 143.22076416 222.66322327 C139.89967519 220.60059725 136.78821 220.55852364 132.98638916 220.43275452 C132.28900635 220.39859436 131.59162354 220.3644342 130.87310791 220.32923889 C129.16141808 220.24717157 127.44893156 220.18202532 125.73638916 220.12025452 C125.40638916 220.78025452 125.07638916 221.44025452 124.73638916 222.12025452 C124.73638916 221.46025452 124.73638916 220.80025452 124.73638916 220.12025452 C122.63189978 220.26135438 120.52780146 220.40829627 118.42388916 220.55775452 C117.25213135 220.63896545 116.08037354 220.72017639 114.87310791 220.80384827 C111.71047958 221.00699162 111.71047958 221.00699162 108.73638916 222.12025452 C108.73638916 221.46025452 108.73638916 220.80025452 108.73638916 220.12025452 C107.73083984 220.28775208 106.72529053 220.45524963 105.68927002 220.62782288 C101.85886218 221.10499739 98.34255042 221.14796032 94.49029541 220.99916077 C93.8343187 220.97554977 93.17834198 220.95193878 92.50248718 220.9276123 C90.43435171 220.85184326 88.36667612 220.76745439 86.29888916 220.68275452 C84.88549922 220.62944656 83.47208772 220.57670699 82.05865479 220.52455139 C78.61762601 220.39634837 75.17695385 220.26041978 71.73638916 220.12025452 C71.73638916 221.11025452 71.73638916 222.10025452 71.73638916 223.12025452 C71.07638916 223.12025452 70.41638916 223.12025452 69.73638916 223.12025452 C69.73638916 222.46025452 69.73638916 221.80025452 69.73638916 221.12025452 C68.76959229 221.13185608 67.80279541 221.14345764 66.80670166 221.15541077 C59.37550084 221.20691414 52.11951309 221.09308967 44.73638916 220.12025452 C45.39638916 220.45025452 46.05638916 220.78025452 46.73638916 221.12025452 C46.73638916 221.78025452 46.73638916 222.44025452 46.73638916 223.12025452 C45.74638916 223.12025452 44.75638916 223.12025452 43.73638916 223.12025452 C43.40638916 222.46025452 43.07638916 221.80025452 42.73638916 221.12025452 C39.76638916 221.12025452 36.79638916 221.12025452 33.73638916 221.12025452 C33.73638916 221.78025452 33.73638916 222.44025452 33.73638916 223.12025452 C32.97326416 222.95525452 32.21013916 222.79025452 31.42388916 222.62025452 C28.7004268 222.02880056 28.7004268 222.02880056 25.73638916 222.12025452 C22.73638916 222.12025452 22.73638916 222.12025452 20.54888916 221.61634827 C16.92692984 220.97747489 13.39582115 221.10266594 9.73638916 221.18275452 C-11.22287551 221.35218164 -11.22287551 221.35218164 -17.90032959 215.56947327 C-27.04069187 205.85292769 -24.41205227 188.73081618 -24.39300537 176.24671936 C-24.39436494 174.72194884 -24.39614796 173.19717865 -24.39831543 171.67240906 C-24.40282609 167.57696823 -24.40112611 163.48155294 -24.39793634 159.38611174 C-24.39537671 155.06381895 -24.39776046 150.74152812 -24.39932251 146.41923523 C-24.40113496 139.15860102 -24.39876347 131.89797702 -24.39398193 124.63734436 C-24.38855345 116.29922232 -24.39029543 107.9611248 -24.39580834 99.62300336 C-24.40038073 92.41308841 -24.40096966 85.20318073 -24.39836967 77.99326479 C-24.39682781 73.70985999 -24.39655433 69.42646661 -24.39990616 65.14306259 C-24.42008457 34.67247891 -24.42008457 34.67247891 -23.92718506 21.71644592 C-23.90312654 20.89973104 -23.87906803 20.08301617 -23.85428047 19.24155235 C-23.59122195 13.77050086 -22.45451528 9.77047742 -18.88079834 5.58119202 C-13.01630104 0.28331282 -7.63187403 -0.02828325 0 0 Z " fill="#8E9495" transform="translate(26.26361083984375,6.8797454833984375)"/>
<path d="M0 0 C8.63159801 5.95949435 14.81874185 12.79843465 16.91796875 23.32421875 C17.21402464 26.98371164 17.2219562 30.63140182 17.22436523 34.30151367 C17.23268875 35.38541382 17.24101227 36.46931396 17.24958801 37.58605957 C17.27362485 41.15897243 17.28245313 44.73170243 17.2890625 48.3046875 C17.29803457 50.79942375 17.30715652 53.29415947 17.31642151 55.78889465 C17.33289759 61.01658432 17.34060896 66.24421006 17.34350586 71.47192383 C17.34753377 78.14863419 17.38654693 84.82465 17.43225002 91.50121593 C17.46209292 96.6547308 17.46923102 101.80810097 17.47023201 106.96169472 C17.47442094 109.42191657 17.48680142 111.88213939 17.50774956 114.34227562 C17.72343051 141.86524302 17.72343051 141.86524302 8.73046875 152.26171875 C0.703244 159.4773999 -8.52975697 161.89726614 -19.078125 161.6640625 C-26.71981531 161.22379299 -33.51357567 158.17554464 -39.08203125 152.94921875 C-46.91809012 144.12173637 -48.38298714 134.81580836 -48.37255859 123.38525391 C-48.37927582 122.31750229 -48.38599304 121.24975067 -48.39291382 120.14964294 C-48.411834 116.6374744 -48.41581483 113.12549751 -48.41796875 109.61328125 C-48.42440013 107.16002322 -48.43112875 104.70676596 -48.43814087 102.25350952 C-48.45009819 97.11755597 -48.45382321 91.98166961 -48.45263672 86.84570312 C-48.45243347 80.27990501 -48.47974986 73.7145394 -48.51418114 67.14884377 C-48.53646731 62.08377114 -48.54047374 57.01880239 -48.53941727 51.95368576 C-48.54177007 49.53369021 -48.55057541 47.11369167 -48.566082 44.69374466 C-48.5857787 41.30284941 -48.57988899 37.91288436 -48.56787109 34.52197266 C-48.57911011 33.5325618 -48.59034912 32.54315094 -48.60192871 31.52375793 C-48.51537455 21.86486435 -45.38127185 12.84541707 -38.58984375 5.76953125 C-28.59354692 -3.48971144 -12.42324886 -6.84840605 0 0 Z " fill="#FAD456" transform="translate(103.08203125,34.67578125)"/>
<path d="M0 0 C0.84054593 -0.00085442 1.68109187 -0.00170885 2.54710889 -0.00258917 C5.36771087 -0.00423819 8.18825358 0.00126799 11.0088501 0.00672913 C13.02911884 0.00701115 15.04938769 0.00685297 17.06965637 0.00628662 C22.55892281 0.00599923 28.04816748 0.01188654 33.53742886 0.01886058 C39.2723066 0.02510383 45.00718481 0.02569869 50.74206543 0.02688599 C61.60401421 0.02999643 72.46595295 0.03820596 83.32789731 0.04823548 C95.6929288 0.05940551 108.05796077 0.06490931 120.42299604 0.06993091 C145.86079932 0.0803888 171.29859368 0.09798271 196.73638916 0.12025452 C196.73638916 0.78025452 196.73638916 1.44025452 196.73638916 2.12025452 C197.87334229 2.49343811 197.87334229 2.49343811 199.03326416 2.87416077 C203.61147781 4.98463787 205.638876 8.6513491 207.73638916 13.12025452 C208.59478735 16.80467791 208.72156834 20.34588477 208.73638916 24.12025452 C208.75056885 25.27009827 208.76474854 26.41994202 208.77935791 27.60462952 C208.79698649 30.77777431 208.77695108 33.94741116 208.73638916 37.12025452 C208.73638916 38.11025452 208.73638916 39.10025452 208.73638916 40.12025452 C208.73438311 41.51414017 208.73210836 42.90802545 208.72966003 44.3019104 C208.70958473 56.1243769 208.69442947 67.94683893 208.68457699 79.76931858 C208.67934432 85.84032471 208.67223598 91.91131693 208.66094971 97.98231506 C208.65011634 103.84718908 208.64411174 109.71204967 208.64151192 115.57693291 C208.63965943 117.81652475 208.63604218 120.05611584 208.6306591 122.29570198 C208.62344213 125.42026001 208.62239847 128.54476182 208.62286377 131.66932678 C208.61926849 132.60184769 208.61567322 133.53436859 208.61196899 134.49514771 C208.61403099 135.76751282 208.61403099 135.76751282 208.61613464 137.06558228 C208.61521285 137.80465096 208.61429106 138.54371965 208.61334133 139.30518436 C208.62599815 141.22088335 208.62599815 141.22088335 209.73638916 143.12025452 C209.07638916 143.12025452 208.41638916 143.12025452 207.73638916 143.12025452 C207.76668213 143.97031067 207.7969751 144.82036682 207.82818604 145.69618225 C208.99425795 178.83280666 208.99425795 178.83280666 208.73638916 191.12025452 C208.73445557 191.81135315 208.73252197 192.50245178 208.73052979 193.2144928 C208.69514434 201.03998291 208.44287903 207.73995726 203.79498291 214.32337952 C197.5739748 219.75348147 191.3502227 220.74838068 183.29888916 220.87025452 C181.82923706 220.91363953 181.82923706 220.91363953 180.32989502 220.957901 C168.80299112 221.25719477 157.26591516 221.2150577 145.73638916 221.12025452 C145.40638916 222.11025452 145.07638916 223.10025452 144.73638916 224.12025452 C144.23623291 223.6394342 143.73607666 223.15861389 143.22076416 222.66322327 C139.89967519 220.60059725 136.78821 220.55852364 132.98638916 220.43275452 C132.28900635 220.39859436 131.59162354 220.3644342 130.87310791 220.32923889 C129.16141808 220.24717157 127.44893156 220.18202532 125.73638916 220.12025452 C125.40638916 220.78025452 125.07638916 221.44025452 124.73638916 222.12025452 C124.73638916 221.46025452 124.73638916 220.80025452 124.73638916 220.12025452 C122.63189978 220.26135438 120.52780146 220.40829627 118.42388916 220.55775452 C117.25213135 220.63896545 116.08037354 220.72017639 114.87310791 220.80384827 C111.71047958 221.00699162 111.71047958 221.00699162 108.73638916 222.12025452 C108.73638916 221.46025452 108.73638916 220.80025452 108.73638916 220.12025452 C107.73083984 220.28775208 106.72529053 220.45524963 105.68927002 220.62782288 C101.85886218 221.10499739 98.34255042 221.14796032 94.49029541 220.99916077 C93.8343187 220.97554977 93.17834198 220.95193878 92.50248718 220.9276123 C90.43435171 220.85184326 88.36667612 220.76745439 86.29888916 220.68275452 C84.88549922 220.62944656 83.47208772 220.57670699 82.05865479 220.52455139 C78.61762601 220.39634837 75.17695385 220.26041978 71.73638916 220.12025452 C71.73638916 221.11025452 71.73638916 222.10025452 71.73638916 223.12025452 C71.07638916 223.12025452 70.41638916 223.12025452 69.73638916 223.12025452 C69.73638916 222.46025452 69.73638916 221.80025452 69.73638916 221.12025452 C68.76959229 221.13185608 67.80279541 221.14345764 66.80670166 221.15541077 C59.37550084 221.20691414 52.11951309 221.09308967 44.73638916 220.12025452 C45.39638916 220.45025452 46.05638916 220.78025452 46.73638916 221.12025452 C46.73638916 221.78025452 46.73638916 222.44025452 46.73638916 223.12025452 C45.74638916 223.12025452 44.75638916 223.12025452 43.73638916 223.12025452 C43.40638916 222.46025452 43.07638916 221.80025452 42.73638916 221.12025452 C39.76638916 221.12025452 36.79638916 221.12025452 33.73638916 221.12025452 C33.73638916 221.78025452 33.73638916 222.44025452 33.73638916 223.12025452 C32.97326416 222.95525452 32.21013916 222.79025452 31.42388916 222.62025452 C28.7004268 222.02880056 28.7004268 222.02880056 25.73638916 222.12025452 C22.73638916 222.12025452 22.73638916 222.12025452 20.54888916 221.61634827 C16.92692984 220.97747489 13.39582115 221.10266594 9.73638916 221.18275452 C-11.22287551 221.35218164 -11.22287551 221.35218164 -17.90032959 215.56947327 C-27.04069187 205.85292769 -24.41205227 188.73081618 -24.39300537 176.24671936 C-24.39436494 174.72194884 -24.39614796 173.19717865 -24.39831543 171.67240906 C-24.40282609 167.57696823 -24.40112611 163.48155294 -24.39793634 159.38611174 C-24.39537671 155.06381895 -24.39776046 150.74152812 -24.39932251 146.41923523 C-24.40113496 139.15860102 -24.39876347 131.89797702 -24.39398193 124.63734436 C-24.38855345 116.29922232 -24.39029543 107.9611248 -24.39580834 99.62300336 C-24.40038073 92.41308841 -24.40096966 85.20318073 -24.39836967 77.99326479 C-24.39682781 73.70985999 -24.39655433 69.42646661 -24.39990616 65.14306259 C-24.42008457 34.67247891 -24.42008457 34.67247891 -23.92718506 21.71644592 C-23.90312654 20.89973104 -23.87906803 20.08301617 -23.85428047 19.24155235 C-23.59122195 13.77050086 -22.45451528 9.77047742 -18.88079834 5.58119202 C-13.01630104 0.28331282 -7.63187403 -0.02828325 0 0 Z M-13.26361084 15.12025452 C-13.86755232 17.97076645 -14.07082892 19.98162869 -14.01205444 22.8250885 C-14.02000326 23.59354064 -14.02795207 24.36199278 -14.03614175 25.15373135 C-14.05537169 27.72535959 -14.03176891 30.29478229 -14.00823975 32.86634827 C-14.01309636 34.71117473 -14.02053578 36.55599594 -14.03036499 38.40080261 C-14.04918052 43.40922796 -14.03033547 48.41687145 -14.00370073 53.42523575 C-13.9810722 58.66529206 -13.9892867 63.90530987 -13.99319458 69.145401 C-13.99496056 77.94541705 -13.97279809 86.74512499 -13.93597412 95.5450592 C-13.8936384 105.72044203 -13.88661892 115.89537347 -13.89909804 126.07082653 C-13.91048596 135.85739289 -13.89919338 145.6438002 -13.87675095 155.43034363 C-13.86745972 159.59612467 -13.86571091 163.76180845 -13.86992264 167.92759705 C-13.87368898 172.83282339 -13.85747725 177.73759009 -13.82580185 182.64271164 C-13.81731419 184.4434354 -13.81561643 186.24420579 -13.82118225 188.04494095 C-13.82762542 190.50227244 -13.80946868 192.95823031 -13.78500366 195.41542053 C-13.79256231 196.12894401 -13.80012096 196.84246748 -13.80790865 197.57761288 C-13.72386597 202.3455667 -12.63435061 204.76798423 -9.26361084 208.12025452 C-6.17718176 209.66346905 -2.92716595 209.26455232 0.46009827 209.26069641 C1.26682265 209.26366753 2.07354704 209.26663866 2.90471762 209.26969981 C5.62311393 209.27841031 8.34146631 209.27989704 11.05987549 209.28138733 C13.00277298 209.28601385 14.94566955 209.29103828 16.88856506 209.2964325 C22.17786952 209.30957468 27.46716127 209.31600501 32.7564795 209.32044315 C36.05881755 209.323371 39.3611521 209.32747526 42.66348839 209.33194733 C52.98927953 209.34562716 63.31506271 209.35529139 73.64086229 209.35914922 C85.57239914 209.36363106 97.5038215 209.3811828 109.43532354 209.41014981 C118.64980551 209.4317462 127.86425522 209.44185241 137.07876223 209.44319034 C142.58591176 209.44423985 148.09295373 209.45017865 153.60007668 209.46800995 C158.78009237 209.48445526 163.95991925 209.48666336 169.13995171 209.47787094 C171.04228851 209.47709866 172.94463531 209.48146833 174.84694672 209.49132919 C177.44210065 209.50399357 180.0365803 209.49820206 182.63172913 209.48774719 C183.7634481 209.4998318 183.7634481 209.4998318 184.91803008 209.51216054 C190.58799755 209.45866344 193.76784531 208.08879836 197.73638916 204.12025452 C199.09532332 200.44733689 198.88752705 196.59627043 198.89028931 192.73222351 C198.89467156 191.98574912 198.89905381 191.23927474 198.90356886 190.47017992 C198.91692882 187.96763057 198.92312932 185.46511642 198.92926025 182.96253967 C198.93716322 181.16875043 198.94543229 179.37496276 198.95404053 177.58117676 C198.98023077 171.69057223 198.99556183 165.79996069 199.00982666 159.90931702 C199.01518694 157.88123444 199.02056445 155.85315191 199.02595901 153.82506943 C199.04758033 145.39068276 199.06631831 136.95629799 199.07758141 128.52189064 C199.09383109 116.43314119 199.12704219 104.34471258 199.18398225 92.25608408 C199.2226572 83.75576762 199.242211 75.25553709 199.24750197 66.75513494 C199.2511578 61.67768665 199.26320445 56.6005808 199.29560471 51.52322769 C199.32564346 46.74772348 199.33201218 41.97276973 199.32022095 37.19719124 C199.31999988 35.44522489 199.32833204 33.69323329 199.34587479 31.94135475 C199.36853892 29.54765719 199.36028631 27.15596059 199.34439087 24.76225281 C199.35827296 24.0704148 199.37215504 23.37857679 199.3864578 22.66577399 C199.29618861 17.1418279 197.493116 14.87389584 193.73638916 11.12025452 C190.64294629 9.57353308 187.37706521 9.96856557 183.98144531 9.96635437 C183.17134294 9.96197212 182.36124056 9.95758986 181.52658963 9.95307481 C178.79671583 9.93966 176.06687433 9.93350195 173.3369751 9.92738342 C171.3858475 9.91948457 169.43472138 9.91121576 167.4835968 9.90260315 C161.06266683 9.87635812 154.64173026 9.86107314 148.22076416 9.84681702 C146.01252488 9.84145838 143.80428564 9.83608087 141.59604645 9.83068466 C132.41199179 9.80905239 123.2279389 9.79031479 114.0438652 9.77906227 C100.87092914 9.76281779 87.69828781 9.72963169 74.52546287 9.67266142 C65.26935434 9.63399177 56.01332474 9.6144331 46.75713754 9.60914171 C41.22583375 9.60548421 35.69484414 9.59342048 30.16362762 9.56103897 C24.95971798 9.53101084 19.75631348 9.52462784 14.55233574 9.53642273 C12.64234219 9.5366439 10.73232557 9.52830273 8.82241249 9.51076889 C6.21408736 9.48812685 3.6076016 9.49634835 0.99926758 9.51225281 C-0.13391856 9.49142968 -0.13391856 9.49142968 -1.28999734 9.47018588 C-7.0634267 9.5568965 -9.59797507 10.85602275 -13.26361084 15.12025452 Z " fill="#373B3C" transform="translate(26.26361083984375,6.8797454833984375)"/>
<path d="M0 0 C1.22028011 -0.01169993 1.22028011 -0.01169993 2.46521235 -0.02363622 C5.1831242 -0.04353292 7.89963221 -0.02780133 10.61755371 -0.01205444 C12.56927811 -0.01883161 14.52099612 -0.0277353 16.47270203 -0.03860474 C21.76819484 -0.06139275 27.06320041 -0.05256364 32.35870171 -0.03670931 C37.90125717 -0.02404784 43.44377101 -0.03579112 48.98632812 -0.04364014 C58.29398079 -0.05273595 67.60143507 -0.04075047 76.90905762 -0.01693726 C87.6689864 0.01027378 98.42844148 0.00145958 109.18835878 -0.02606928 C118.42760411 -0.04876119 127.66670686 -0.05196 136.90597105 -0.03887594 C142.42374658 -0.03108192 147.94129946 -0.03003862 153.45906067 -0.04655838 C158.64668763 -0.06100493 163.83370401 -0.05097766 169.02126503 -0.0220871 C170.9247823 -0.01547733 172.82835097 -0.01737209 174.73184776 -0.02840042 C177.3312835 -0.04207199 179.92876488 -0.02492195 182.52807617 0 C183.28080512 -0.01115361 184.03353406 -0.02230722 184.80907297 -0.03379881 C190.54690167 0.0728587 192.88618197 1.6998852 196.76403809 5.63491821 C198.23728005 8.58140215 197.90486801 11.55916642 197.89775085 14.78916931 C197.90001641 15.53464041 197.90228197 16.28011152 197.90461618 17.04817265 C197.91097286 19.55928109 197.91012574 22.07033579 197.90930176 24.58145142 C197.91229225 26.37656728 197.91569452 28.17168251 197.91947937 29.96679688 C197.92833572 34.85322539 197.9306582 39.73963641 197.93129516 44.62607217 C197.93224315 48.70164145 197.93592026 52.77720662 197.93946725 56.85277432 C197.94761836 66.46757634 197.95005092 76.08236899 197.94934082 85.69717407 C197.94874015 95.62188554 197.9592884 105.54654263 197.97508448 115.47124034 C197.98815321 123.98509137 197.99352498 132.49892462 197.99288541 141.01278561 C197.99263019 146.10072468 197.99549472 151.18861547 198.00606346 156.27654457 C198.01573298 161.06256093 198.01583149 165.84848275 198.00854683 170.63450241 C198.00749949 172.39170532 198.00987268 174.14891409 198.01590729 175.90610695 C198.02360933 178.30408839 198.0189943 180.70174195 198.01127625 183.09971619 C198.01641981 183.79583128 198.02156337 184.49194637 198.0268628 185.20915586 C197.99308396 189.95546745 197.38235052 193.66479873 194.32653809 197.38491821 C190.6631307 200.31564413 186.35778887 199.78316822 181.92007446 199.78208923 C181.11249565 199.78576592 180.30491684 199.78944261 179.47286594 199.79323071 C176.7575797 199.80427385 174.04233171 199.80811242 171.32702637 199.81192017 C169.3839811 199.81818422 167.44093704 199.82483096 165.49789429 199.83183289 C160.21278497 199.84924506 154.9276847 199.85979472 149.64255381 199.86803842 C146.34238814 199.87318692 143.04222529 199.87926265 139.74206161 199.88554955 C129.42161545 199.90460016 119.10117644 199.91883294 108.78071606 199.92716151 C96.85764555 199.93694178 84.93476031 199.96328249 73.01175511 200.00366241 C63.8015 200.03378763 54.59129811 200.04862687 45.38099468 200.05194253 C39.87717466 200.05429663 34.37355259 200.06330424 28.86978531 200.0884037 C23.69382073 200.1116273 18.51818526 200.11594069 13.34218216 200.10564232 C11.44145109 200.1051455 9.54070412 200.11150889 7.64002228 200.12519836 C5.04694039 200.1428315 2.45505069 200.13585398 -0.13803101 200.12266541 C-0.8918282 200.13363465 -1.6456254 200.1446039 -2.42226493 200.15590554 C-7.3050686 200.09586289 -9.81369003 199.12065767 -13.23596191 195.63491821 C-14.73185135 192.64313935 -14.39123008 189.57264805 -14.39659119 186.29084778 C-14.40167901 185.52495891 -14.40676683 184.75907005 -14.41200882 183.96997243 C-14.42777239 181.38978369 -14.43626859 178.80962303 -14.44470215 176.22940063 C-14.45423735 174.3850232 -14.46412836 172.54064757 -14.47434998 170.6962738 C-14.50576977 164.62766654 -14.52600372 158.55904541 -14.54455566 152.49038696 C-14.54785299 151.4588217 -14.55115031 150.42725644 -14.55454755 149.36443162 C-14.5853266 139.64071624 -14.61204144 129.91699783 -14.62896633 120.1932478 C-14.65088819 107.74342833 -14.69288872 95.29403933 -14.76240391 82.844392 C-14.80959366 74.09700219 -14.83389308 65.34972873 -14.84116322 56.60221559 C-14.84612659 51.37435986 -14.86127273 46.14698901 -14.90090752 40.91927147 C-14.93769906 36.00174422 -14.94620822 31.08498028 -14.93290138 26.16734123 C-14.93295545 24.36173198 -14.94330175 22.55608955 -14.96465302 20.75060654 C-14.99224131 18.2861239 -14.98287094 15.82444323 -14.96421814 13.35993958 C-14.98101307 12.64436974 -14.997808 11.92879991 -15.01511186 11.19154614 C-14.94061739 7.256611 -14.2956739 5.70435966 -11.70519352 2.69178677 C-8.04775099 0.09698568 -4.36899244 -0.06473782 0 0 Z M12.76403809 1.63491821 C12.43403809 2.62491821 12.10403809 3.61491821 11.76403809 4.63491821 C12.42403809 4.63491821 13.08403809 4.63491821 13.76403809 4.63491821 C13.76403809 5.29491821 13.76403809 5.95491821 13.76403809 6.63491821 C14.75403809 6.63491821 15.74403809 6.63491821 16.76403809 6.63491821 C17.43070475 7.96825155 18.09737142 9.30158488 18.76403809 10.63491821 C19.1107959 11.23948853 19.45755371 11.84405884 19.81481934 12.46694946 C21.86485886 17.1491385 21.41586708 22.67943124 19.82653809 27.44741821 C15.31541971 32.2319377 9.33544085 35.1655323 2.76403809 35.63491821 C1.77403809 35.63491821 0.78403809 35.63491821 -0.23596191 35.63491821 C-0.89596191 33.98491821 -1.55596191 32.33491821 -2.23596191 30.63491821 C-2.89596191 30.63491821 -3.55596191 30.63491821 -4.23596191 30.63491821 C-5.53723822 33.23747082 -5.35890096 35.1231164 -5.35621643 38.03851318 C-5.35759109 39.18558746 -5.35896576 40.33266174 -5.36038208 41.51449585 C-5.3567868 42.77900574 -5.35319153 44.04351562 -5.3494873 45.34634399 C-5.34920534 46.68652342 -5.34936335 48.02670299 -5.34992981 49.36688232 C-5.35021743 53.01128922 -5.34432642 56.65566339 -5.33735585 60.30006266 C-5.33111642 64.10641217 -5.33051805 67.91276238 -5.32933044 71.71911621 C-5.32621887 78.92974781 -5.31800782 86.14036429 -5.30798095 93.35098922 C-5.29681443 101.55885801 -5.291308 109.7667275 -5.28628552 117.97460198 C-5.27582507 134.86138281 -5.25822898 151.74814892 -5.23596191 168.63491821 C-4.57596191 168.63491821 -3.91596191 168.63491821 -3.23596191 168.63491821 C-3.71936035 169.47216431 -3.71936035 169.47216431 -4.21252441 170.32632446 C-5.97946493 174.3120567 -5.81067365 178.36266347 -5.23596191 182.63491821 C-3.18488603 186.02980243 -1.5311157 187.43814902 1.76403809 189.63491821 C5.09002016 190.19012152 8.39710818 190.37256004 11.76403809 190.63491821 C8.13403809 190.63491821 4.50403809 190.63491821 0.76403809 190.63491821 C11.24434144 198.49514573 33.33635951 194.64519188 46.13122559 194.11929321 C60.32551448 193.5975858 74.4962873 193.61990188 88.69763184 193.79116821 C89.73380079 193.80361824 90.76996975 193.81606827 91.83753777 193.82889557 C98.20906371 193.90776571 104.58043249 193.9961912 110.95178223 194.08810425 C119.60174724 194.21271027 128.25177793 194.33051252 136.90196419 194.43867493 C139.90127145 194.47805945 142.90043476 194.52385111 145.89964294 194.57009888 C147.71308032 194.59393238 149.52652113 194.61750686 151.33996582 194.64077759 C152.16925095 194.65529465 152.99853607 194.66981171 153.85295105 194.68476868 C157.93908141 194.83795697 157.93908141 194.83795697 161.76403809 193.63491821 C164.04036533 193.60468237 166.29826526 193.70140203 168.57263184 193.79507446 C171.05866098 193.79425306 171.05866098 193.79425306 173.76403809 191.63491821 C172.77403809 190.97491821 171.78403809 190.31491821 170.76403809 189.63491821 C171.56067871 189.69292603 172.35731934 189.75093384 173.17810059 189.81069946 C180.3046258 190.31349123 180.3046258 190.31349123 186.45153809 187.25991821 C189.64459522 183.63536687 189.9200495 181.93959868 189.95153809 177.19741821 C189.96571777 176.22933228 189.97989746 175.26124634 189.99450684 174.26382446 C189.9555326 171.40225094 189.9555326 171.40225094 187.76403809 168.63491821 C188.09403809 168.30491821 188.42403809 167.97491821 188.76403809 167.63491821 C188.861815 166.18853511 188.8903554 164.73740381 188.89102173 163.28771973 C188.89384155 162.3488089 188.89666138 161.40989807 188.89956665 160.4425354 C188.89754242 159.40371216 188.89551819 158.36488892 188.89343262 157.29458618 C188.89518494 156.2066275 188.89693726 155.11866882 188.89874268 153.9977417 C188.90316919 150.37418047 188.90021757 146.75066751 188.89685059 143.12710571 C188.89752408 140.6085611 188.89849449 138.09001656 188.89974976 135.57147217 C188.90122836 130.27344082 188.89916472 124.97542683 188.89440918 119.67739868 C188.88900549 113.58773761 188.89069991 107.49811022 188.89623559 101.40845001 C188.90136375 95.52825854 188.9007643 89.64807965 188.89785385 83.76788712 C188.8971909 81.27947103 188.89799072 78.79105408 188.9003334 76.30263901 C188.90957465 63.70955754 188.90523712 51.18485396 187.76403809 38.63491821 C186.65544434 38.65812134 185.54685059 38.68132446 184.40466309 38.70523071 C182.94112817 38.72399398 181.47758595 38.74219358 180.01403809 38.75991821 C179.28442871 38.77667603 178.55481934 38.79343384 177.80310059 38.81069946 C170.9305384 38.8731773 170.9305384 38.8731773 167.76403809 36.63491821 C164.45044185 33.16720122 162.02910609 30.53867634 161.76403809 25.63491821 C162.09403809 24.64491821 162.42403809 23.65491821 162.76403809 22.63491821 C162.68153809 21.56241821 162.59903809 20.48991821 162.51403809 19.38491821 C162.80480364 15.02343494 163.94150708 13.45726063 166.67028809 10.21304321 C168.04885462 8.5439846 168.04885462 8.5439846 167.76403809 5.63491821 C168.75403809 5.63491821 169.74403809 5.63491821 170.76403809 5.63491821 C170.76403809 4.64491821 170.76403809 3.65491821 170.76403809 2.63491821 C161.48284916 1.77722056 152.29528703 1.49580351 142.97766113 1.52139282 C141.54719037 1.52167571 140.11671946 1.52151498 138.68624878 1.52095032 C134.84621891 1.5206663 131.00622101 1.52649845 127.16619849 1.53352427 C123.13703055 1.53982427 119.10786168 1.54036683 115.07868958 1.54154968 C107.46822416 1.54464356 99.85777331 1.55283046 92.24731427 1.56289917 C83.57487027 1.57412103 74.90242553 1.57958599 66.22997606 1.58459461 C48.40798851 1.59501494 30.58601448 1.61257632 12.76403809 1.63491821 Z " fill="#9FA4A5" transform="translate(27.2359619140625,16.365081787109375)"/>
<path d="M0 0 C8.63159801 5.95949435 14.81874185 12.79843465 16.91796875 23.32421875 C17.21402464 26.98371164 17.2219562 30.63140182 17.22436523 34.30151367 C17.23268875 35.38541382 17.24101227 36.46931396 17.24958801 37.58605957 C17.27362485 41.15897243 17.28245313 44.73170243 17.2890625 48.3046875 C17.29803457 50.79942375 17.30715652 53.29415947 17.31642151 55.78889465 C17.33289759 61.01658432 17.34060896 66.24421006 17.34350586 71.47192383 C17.34753377 78.14863419 17.38654693 84.82465 17.43225002 91.50121593 C17.46209292 96.6547308 17.46923102 101.80810097 17.47023201 106.96169472 C17.47442094 109.42191657 17.48680142 111.88213939 17.50774956 114.34227562 C17.72343051 141.86524302 17.72343051 141.86524302 8.73046875 152.26171875 C0.703244 159.4773999 -8.52975697 161.89726614 -19.078125 161.6640625 C-26.71981531 161.22379299 -33.51357567 158.17554464 -39.08203125 152.94921875 C-46.91809012 144.12173637 -48.38298714 134.81580836 -48.37255859 123.38525391 C-48.37927582 122.31750229 -48.38599304 121.24975067 -48.39291382 120.14964294 C-48.411834 116.6374744 -48.41581483 113.12549751 -48.41796875 109.61328125 C-48.42440013 107.16002322 -48.43112875 104.70676596 -48.43814087 102.25350952 C-48.45009819 97.11755597 -48.45382321 91.98166961 -48.45263672 86.84570312 C-48.45243347 80.27990501 -48.47974986 73.7145394 -48.51418114 67.14884377 C-48.53646731 62.08377114 -48.54047374 57.01880239 -48.53941727 51.95368576 C-48.54177007 49.53369021 -48.55057541 47.11369167 -48.566082 44.69374466 C-48.5857787 41.30284941 -48.57988899 37.91288436 -48.56787109 34.52197266 C-48.57911011 33.5325618 -48.59034912 32.54315094 -48.60192871 31.52375793 C-48.51537455 21.86486435 -45.38127185 12.84541707 -38.58984375 5.76953125 C-28.59354692 -3.48971144 -12.42324886 -6.84840605 0 0 Z M-33.890625 15.4453125 C-36.32273281 19.28086612 -37.33161276 22.72649403 -37.34272766 27.2509613 C-37.34981247 28.21679138 -37.35689728 29.18262146 -37.36419678 30.17771912 C-37.36171936 31.2256514 -37.35924194 32.27358368 -37.35668945 33.35327148 C-37.36180038 34.46602448 -37.36691132 35.57877747 -37.37217712 36.72525024 C-37.3860749 40.40282574 -37.38511623 44.08021387 -37.3828125 47.7578125 C-37.38669919 50.31462168 -37.3910338 52.87143022 -37.39579773 55.42823792 C-37.40326026 60.78722493 -37.40310666 66.14614319 -37.39770508 71.50512695 C-37.39166505 77.69169413 -37.4039794 83.87803388 -37.42527515 90.06456226 C-37.44503821 96.02595907 -37.44806221 101.98728561 -37.44454002 107.94871712 C-37.44505354 110.48086138 -37.45029688 113.01300925 -37.46035194 115.54513359 C-37.47268574 119.08552458 -37.46594255 122.62538895 -37.4543457 126.16577148 C-37.46198944 127.21167953 -37.46963318 128.25758759 -37.47750854 129.33518982 C-37.4305311 135.82259597 -36.71099226 140.32948925 -32.28515625 145.37109375 C-26.95371742 150.02010841 -22.79582021 151.98660157 -15.64453125 152.63671875 C-9.66399252 152.11211009 -3.90556422 149.94186848 0.91796875 146.32421875 C6.75664058 138.98417417 7.21503999 131.94277658 7.17675781 122.94189453 C7.18026245 121.9214505 7.18376709 120.90100647 7.18737793 119.84963989 C7.19615188 116.48953366 7.19036044 113.12963948 7.18359375 109.76953125 C7.18494185 107.42454997 7.1868836 105.07956895 7.18939209 102.73458862 C7.19233766 97.82384577 7.18806465 92.91317578 7.17871094 88.00244141 C7.16732943 81.7224909 7.17387133 75.44271161 7.18585587 69.16276741 C7.19310047 64.32077761 7.19077437 59.47882805 7.18560028 54.63683701 C7.18427033 52.32209121 7.18588848 50.00734171 7.19055939 47.69260025 C7.19566596 44.45007984 7.18785582 41.20783225 7.17675781 37.96533203 C7.18080627 37.01750854 7.18485474 36.06968506 7.18902588 35.09313965 C7.13341086 26.27547838 6.40248755 17.85966309 -0.08203125 11.32421875 C-11.26794446 3.07272672 -25.14297278 4.7038934 -33.890625 15.4453125 Z " fill="#292A2D" transform="translate(103.08203125,34.67578125)"/>
<path d="M0 0 C3.63689444 3.63689444 5.1216683 6.31749938 5.14044189 11.37615967 C5.14900711 12.75561264 5.14900711 12.75561264 5.15774536 14.16293335 C5.15886322 15.17489777 5.15998108 16.18686218 5.16113281 17.22949219 C5.16609772 18.29303925 5.17106262 19.3565863 5.17617798 20.45236206 C5.19082707 23.98387287 5.19760666 27.51533875 5.203125 31.046875 C5.20887479 33.49586997 5.21463254 35.94486493 5.22039795 38.39385986 C5.23091617 43.53536184 5.23675326 48.67684815 5.24023438 53.81835938 C5.24571666 60.40705649 5.2697358 66.99554668 5.29820633 73.58417892 C5.31683055 78.64565638 5.32203823 83.70708401 5.32357025 88.76859283 C5.32659847 91.19747294 5.33463265 93.62635213 5.34775543 96.05519867 C5.36480875 99.45460224 5.36293698 102.8535007 5.35644531 106.25292969 C5.3656601 107.25679718 5.37487488 108.26066467 5.3843689 109.29495239 C5.35251134 114.62011805 5.01338791 118.40481287 2 123 C-0.92941145 125.38692784 -4.3108499 125.47088274 -8.03125 125.39453125 C-11.38693026 124.72206358 -12.95936396 122.59717314 -15 120 C-16.18125231 117.63749539 -16.13076717 116.21427111 -16.14044189 113.57914734 C-16.14615204 112.64965271 -16.15186218 111.72015808 -16.15774536 110.76249695 C-16.15886322 109.73961075 -16.15998108 108.71672455 -16.16113281 107.6628418 C-16.16609772 106.58793488 -16.17106262 105.51302795 -16.17617798 104.4055481 C-16.19082608 100.83676522 -16.19760614 97.2680268 -16.203125 93.69921875 C-16.20887442 91.2254079 -16.21463218 88.75159707 -16.22039795 86.27778625 C-16.23091558 81.08500968 -16.23675321 75.89224862 -16.24023438 70.69946289 C-16.24493339 64.04115919 -16.26974531 57.383089 -16.29820633 50.72484112 C-16.31681807 45.61279194 -16.32203754 40.50079213 -16.32357025 35.38871193 C-16.32660078 32.93388565 -16.3346427 30.47906032 -16.34775543 28.0242672 C-16.36478439 24.59113333 -16.36294308 21.1585006 -16.35644531 17.7253418 C-16.3656601 16.70852829 -16.37487488 15.69171478 -16.3843689 14.64408875 C-16.33315968 6.01945588 -16.33315968 6.01945588 -13 2 C-8.91033002 -1.50543141 -4.97097814 -1.73672249 0 0 Z " fill="#2D2D30" transform="translate(93,52)"/>
<path d="M0 0 C4.1641178 3.11780394 6.75864675 6.93808217 8.1015625 11.90234375 C8.88132889 19.17485885 9.40769387 26.83477207 5.42578125 33.26171875 C0.33921483 39.56365945 -5.45517252 43.1667674 -13.5 44.25390625 C-21.28071895 44.6703391 -27.56131903 42.59461487 -33.52734375 37.515625 C-38.94391943 31.61398284 -40.55783225 24.52402262 -40.30859375 16.7109375 C-39.25192862 9.47529724 -35.56320756 3.51034556 -29.78515625 -0.9140625 C-19.82998461 -7.15923229 -9.96955968 -5.76429273 0 0 Z " fill="#292A2C" transform="translate(170.8984375,136.09765625)"/>
<path d="M0 0 C4.81435382 2.79232522 10.0079269 7.13546772 11.6875 12.6640625 C13.0300141 19.25676565 12.43378178 24.87951199 9.125 30.8125 C5.12190662 35.73058615 0.2154918 39.01507561 -6.0390625 40.234375 C-12.46735564 40.6432417 -17.57203563 38.30003513 -22.875 34.8125 C-27.42627476 30.26122524 -29.1723265 25.44671521 -29.375 19.0625 C-29.24644529 12.53031367 -27.35453056 8.51264984 -22.875 3.8125 C-16.43468477 -2.16478603 -8.18574744 -3.08525993 0 0 Z " fill="#2A2C2D" transform="translate(166.875,65.1875)"/>
<path d="M0 0 C5.42856338 2.66493111 8.76631604 6.35639152 11.3125 11.8125 C12.49238765 17.28288817 11.90408478 21.32098541 9.25 26.25 C6.12323375 30.07160319 3.08142717 33.41926547 -2 34 C-8.47848814 34.53102362 -11.68430419 33.78232202 -17 30 C-21.88766435 24.59784467 -22.34974348 21.14194384 -22.28125 13.984375 C-21.77938024 8.65897925 -19.24614624 6.0977955 -15.375 2.6875 C-10.48380548 -0.78782242 -5.87256961 -0.59805518 0 0 Z " fill="#282A2C" transform="translate(196,105)"/>
<path d="M0 0 C3.51254268 3.10410749 6.26868706 5.75388982 7.03515625 10.55078125 C7.22770605 15.53196087 6.53013704 19.16005543 3.6875 23.375 C0.0075984 26.77890898 -2.57778618 28.2440782 -7.625 28.625 C-13.11969361 28.2524784 -16.03320336 26.45962106 -20.1875 22.9375 C-23.10641099 19.11239115 -23.1217444 15.0346211 -22.94140625 10.36328125 C-21.9161791 5.49186031 -19.17937628 2.39729088 -15.3125 -0.625 C-9.94299295 -2.41483568 -5.11514667 -2.50931724 0 0 Z " fill="#FCBC3E" transform="translate(163.3125,142.625)"/>
<path d="M0 0 C3.28133541 2.11463838 4.93976587 3.35514469 6.8125 6.8125 C7.54200983 11.27819099 7.91107221 15.72480742 5.75390625 19.82421875 C4.00770037 21.96422774 2.29102431 23.57323785 -0.1875 24.8125 C-10.52431723 25.74388235 -10.52431723 25.74388235 -15.3125 23.0625 C-19.03026848 18.60117783 -19.68395887 15.01243188 -19.57421875 9.2890625 C-18.83706502 4.56830021 -16.10222029 2.21662821 -12.3125 -0.5625 C-7.90416955 -1.85906778 -4.27897212 -1.59412687 0 0 Z " fill="#1D1F1F" transform="translate(210.1875,181.1875)"/>
<path d="M0 0 C3.45211024 2.30140683 4.9826251 4.1448704 6.8125 7.875 C7.760442 13.21116787 6.78949024 17.30319356 3.8125 21.875 C-0.24782687 25.70721862 -3.98415322 25.36465217 -9.33203125 25.234375 C-13.00938593 24.77156155 -14.78377376 23.67934728 -17.1875 20.875 C-20.02750604 16.61499095 -19.81841437 12.87558053 -19.1875 7.875 C-15.10007321 -0.45123975 -8.81515062 -3.11122963 0 0 Z " fill="#282A2B" transform="translate(41.1875,181.125)"/>
<path d="M0 0 C3.37604652 2.04191311 6.22195185 4.44390371 8 8 C8.61842131 12.28198047 8.93135733 16.30717463 6.80078125 20.1796875 C4.11740172 23.43759414 2.24676882 25.28945113 -2 26 C-6.21010532 26.38982457 -8.46553616 26.27751007 -12.25 24.3125 C-15.67567913 21.43181528 -17.60126884 19.39238695 -18.3515625 14.890625 C-18.6165296 10.73482527 -18.38694361 7.88309565 -15.75 4.5625 C-10.95961084 0.09872829 -6.47846035 -1.2848039 0 0 Z " fill="#1A1C1C" transform="translate(209,23)"/>
<path d="M0 0 C4.38410756 2.19205378 7.13092657 4.43115383 9 9 C9.53204782 13.78843042 9.49783872 15.98517492 7.375 20.3125 C4.11668796 23.9995373 1.59563553 25.78440161 -3.3984375 26.19921875 C-8.04571257 26.06663883 -11.2793599 25.41606816 -14.625 22.0625 C-17.30640691 18.33151382 -17.86503913 14.98291136 -17.6015625 10.44140625 C-16.59135281 6.34152926 -14.17221058 3.68733902 -11 1 C-7.5259169 -0.73704155 -3.79843331 -0.46041616 0 0 Z " fill="#242627" transform="translate(39,23)"/>
<path d="M0 0 C64.35 0 128.7 0 195 0 C195 0.33 195 0.66 195 1 C193.865625 1.12375 192.73125 1.2475 191.5625 1.375 C190.386875 1.58125 189.21125 1.7875 188 2 C187.67 2.66 187.34 3.32 187 4 C188.0725 4.309375 189.145 4.61875 190.25 4.9375 C193.56853609 6.37418331 194.89846925 7.89374254 196.5 11.125 C198.33016654 15.94784231 198.37943013 20.04746267 197 25 C195.4375 28.0625 195.4375 28.0625 194 30 C194.66 30 195.32 30 196 30 C195.67 31.32 195.34 32.64 195 34 C194.34 34 193.68 34 193 34 C193 34.66 193 35.32 193 36 C187.65141993 38.67429003 183.99290494 39.57995854 178 39 C173.46555427 37.10185993 170.77510218 34.00848093 168 30 C167.125 26.1875 167.125 26.1875 167 23 C167.33 22.67 167.66 22.34 168 22 C167.9175 20.96875 167.835 19.9375 167.75 18.875 C168.03577342 14.44551203 169.0870612 12.8966889 171.80859375 9.578125 C173.21334321 7.89201167 173.21334321 7.89201167 174 5 C174.99 5 175.98 5 177 5 C177 4.01 177 3.02 177 2 C89.385 1.505 89.385 1.505 0 1 C0 0.67 0 0.34 0 0 Z M171.125 11.6875 C169.31572944 15.40655615 169.36756146 18.95239337 170 23 C172.19386588 27.38773175 174.44520582 30.09334197 179 32 C183.50347861 32.4020963 187.05470214 32.28411981 191 30 C194.87495862 26.55559234 196.35422145 24.27592871 196.6875 19.0625 C196.46073051 14.21987419 194.83545911 11.69340609 191.5078125 8.27734375 C188.29168859 5.55280355 185.3862085 5.66908608 181.3203125 5.71484375 C176.91674162 6.25602334 174.30158937 8.82856956 171.125 11.6875 Z " fill="#D5DBDC" transform="translate(21,17)"/>
<path d="M0 0 C4.91354159 4.51991883 6.12481616 10.03654179 6.42564392 16.4883728 C6.46396631 18.61100947 6.48637882 20.73397214 6.49584961 22.85693359 C6.51246643 24.02222092 6.52908325 25.18750824 6.54620361 26.3881073 C6.59661954 30.2248775 6.62543635 34.06143545 6.65234375 37.8984375 C6.67253229 39.89862603 6.69272888 41.89881466 6.71397978 43.89899218 C6.78050209 50.18291772 6.83172484 56.46684009 6.87329102 62.75097656 C6.91628517 69.21100138 6.98492255 75.67039252 7.06628221 82.13003862 C7.1354938 87.69709524 7.18870962 93.26415168 7.22933203 98.83149016 C7.25367726 102.14736352 7.28562422 105.46283242 7.32942009 108.77851486 C7.37587249 112.48059316 7.39613097 116.18195214 7.40991211 119.88427734 C7.42893082 120.96719559 7.44794952 122.05011383 7.46754456 123.16584778 C7.45455306 132.50060405 5.18370126 140.54410041 -1.3046875 147.47265625 C-10.00345841 155.30956737 -18.92389838 157.47128057 -30.4140625 157.23046875 C-34.59907465 156.96149738 -38.05928393 156.41865779 -42 155 C-42.33 154.34 -42.66 153.68 -43 153 C-42.67 152.01 -42.34 151.02 -42 150 C-43.65 149.01 -45.3 148.02 -47 147 C-46.34 146.67 -45.68 146.34 -45 146 C-43.58145677 146.59429495 -42.18951232 147.25245367 -40.8125 147.9375 C-32.57064302 151.36067359 -23.06000021 151.44305303 -14.625 148.5 C-6.22322579 144.47385861 -0.42347006 138.76707841 2.99191284 130.08596802 C5.7172183 120.70645487 4.68722094 110.15349049 4.62890625 100.49609375 C4.62973609 98.00610755 4.6321998 95.51612141 4.63621521 93.02613831 C4.63906418 87.82397853 4.62445835 82.62225144 4.59692383 77.42016602 C4.56282582 70.7738025 4.56887436 64.12821118 4.5875864 57.48181057 C4.59818658 52.34546037 4.58919131 47.20928788 4.57420158 42.07295418 C4.56904272 39.62310375 4.56947348 37.17323459 4.57574654 34.72338676 C4.58123582 31.29232137 4.56070402 27.86233832 4.53344727 24.43139648 C4.53997314 23.4331636 4.54649902 22.43493073 4.55322266 21.40644836 C4.46841806 15.0844619 3.25454381 10.05465845 0.85624599 4.19967747 C0 2 0 2 0 0 Z " fill="#C5CBCC" transform="translate(115,45)"/>
<path d="M0 0 C3.85517411 3.13232896 5.76246185 5.2693649 6.4375 10.1875 C5.9379153 14.5410238 5.02225183 16.52965462 2.046875 19.66796875 C-1.35298467 21.88047285 -4.47012593 21.82876983 -8.43359375 21.54296875 C-11 21 -11 21 -14.125 19.0625 C-16.58174401 15.04981811 -17.28970216 11.68635847 -17 7 C-15.7478671 3.8001048 -14.42991714 2.37933865 -11.875 0.125 C-7.72812429 -1.4976905 -4.24627208 -1.28465115 0 0 Z " fill="#FBC344" transform="translate(164,74)"/>
<path d="M0 0 C1.37562854 1.28965176 2.70766393 2.62689293 4 4 C4 4.66 4 5.32 4 6 C4.66 6 5.32 6 6 6 C9.46121499 13.50391409 8.94525382 22.01142928 6.5625 29.8125 C3.66612805 36.82315294 -1.83825104 41.81841339 -8.6875 45 C-15.7798561 47.17461019 -24.77004688 47.48317072 -31.5625 44.3125 C-35.61183185 41.81526751 -39.23077738 39.39224208 -40.74609375 34.6796875 C-41.25110381 32.45764324 -41.67095068 30.2542334 -42 28 C-41.01 29.0828125 -41.01 29.0828125 -40 30.1875 C-34.64679852 35.55599634 -28.51667506 39.10567404 -20.875 39.3125 C-13.85977791 39.24754424 -9.03780916 36.89019237 -3.1875 33.25 C3.14269326 26.73894408 3.44277128 20.48814472 3.43359375 11.5859375 C2.97287918 7.77570346 1.84179121 5.3318345 0 2 C0 1.34 0 0.68 0 0 Z " fill="#B5BAB9" transform="translate(175,140)"/>
<path d="M0 0 C0.33 0 0.66 0 1 0 C1 38.61 1 77.22 1 117 C0.67 116.01 0.34 115.02 0 114 C-0.66 114 -1.32 114 -2 114 C-2.04671987 99.72688016 -2.08185582 85.45377219 -2.10362434 71.18059158 C-2.114071 64.55331016 -2.12824638 57.92608003 -2.15087891 51.29882812 C-2.1725757 44.90572351 -2.18456198 38.51266831 -2.18975449 32.11952972 C-2.19345592 29.67783582 -2.20068369 27.23614467 -2.21146011 24.79447174 C-2.22593283 21.38017386 -2.22797969 17.96608133 -2.22705078 14.55175781 C-2.23424133 13.53755768 -2.24143188 12.52335754 -2.24884033 11.47842407 C-2.246091 10.54736847 -2.24334167 9.61631287 -2.24050903 8.65704346 C-2.24235262 7.8495528 -2.24419621 7.04206215 -2.24609566 6.21010208 C-1.97294381 3.75701751 -1.22498706 2.12537118 0 0 Z " fill="#41372D" transform="translate(65,56)"/>
<path d="M0 0 C0.66 0 1.32 0 2 0 C2 54.45 2 108.9 2 165 C1.34 164.67 0.68 164.34 0 164 C-1.38686316 155.97345865 -1.09645352 147.86927024 -1.02172852 139.74975586 C-1.01156898 138.22135712 -1.00187717 136.69295522 -0.99261475 135.16455078 C-0.9663013 131.0391382 -0.93348886 126.91380046 -0.89946485 122.78844523 C-0.86495464 118.46832917 -0.83648342 114.1481733 -0.80735779 109.82801819 C-0.75136539 101.65781962 -0.68998156 93.48767091 -0.62663645 85.3175264 C-0.55474966 76.01159887 -0.48891019 66.70563159 -0.42356598 57.39965618 C-0.28908217 38.26638566 -0.14704535 19.13317789 0 0 Z " fill="#1F2224" transform="translate(3,47)"/>
<path d="M0 0 C2 1 2 1 3.1328125 4.08984375 C4.1433326 7.98004835 4.13051746 11.54428195 3.875 15.5625 C3.81054688 16.82191406 3.74609375 18.08132812 3.6796875 19.37890625 C2.6305243 24.96841363 -0.24085607 28.72563222 -4.5625 32.3125 C-5.43068359 33.04919922 -5.43068359 33.04919922 -6.31640625 33.80078125 C-10.04478798 36.45649631 -13.88532531 36.22929889 -18.3125 36.3125 C-19.60800781 36.34988281 -20.90351563 36.38726562 -22.23828125 36.42578125 C-28.70823499 35.69346042 -32.79292924 31.79882603 -36.7421875 26.8984375 C-41.21813368 20.14281687 -40.21238793 11.74036016 -40 4 C-39.67 4 -39.34 4 -39 4 C-38.97421875 4.7734375 -38.9484375 5.546875 -38.921875 6.34375 C-38.56836988 12.83538957 -38.23572326 18.80161237 -34 24 C-28.64384336 28.31948116 -23.43510895 30.43379227 -16.546875 30.34375 C-10.38800271 29.51249116 -5.38736072 26.65806525 -1.4375 21.9375 C1.99539234 14.92245913 1.54519896 7.53284493 0 0 Z " fill="#AEB3B2" transform="translate(177,74)"/>
<path d="M0 0 C54.78 0 109.56 0 166 0 C165.67 0.66 165.34 1.32 165 2 C161.7 2 158.4 2 155 2 C154.67 2.99 154.34 3.98 154 5 C153.49984375 4.51917969 152.9996875 4.03835937 152.484375 3.54296875 C149.16328603 1.48034274 146.05182084 1.43826912 142.25 1.3125 C141.55261719 1.27833984 140.85523438 1.24417969 140.13671875 1.20898438 C138.42502892 1.12691705 136.7125424 1.06177081 135 1 C134.67 1.66 134.34 2.32 134 3 C134 2.34 134 1.68 134 1 C131.89551062 1.14109986 129.7914123 1.28804175 127.6875 1.4375 C126.51574219 1.51871094 125.34398437 1.59992188 124.13671875 1.68359375 C120.97409042 1.8867371 120.97409042 1.8867371 118 3 C118 2.34 118 1.68 118 1 C116.99445068 1.16749756 115.98890137 1.33499512 114.95288086 1.50756836 C111.12247302 1.98474288 107.60616126 2.0277058 103.75390625 1.87890625 C103.09792953 1.85529526 102.44195282 1.83168427 101.76609802 1.80735779 C99.69796255 1.73158874 97.63028696 1.64719987 95.5625 1.5625 C94.14911006 1.50919205 92.73569856 1.45645247 91.32226562 1.40429688 C87.88123685 1.27609386 84.44056469 1.14016527 81 1 C81 1.99 81 2.98 81 4 C80.34 4 79.68 4 79 4 C79 3.34 79 2.68 79 2 C78.03320312 2.01160156 77.06640625 2.02320313 76.0703125 2.03515625 C68.63911168 2.08665962 61.38312393 1.97283515 54 1 C54.66 1.33 55.32 1.66 56 2 C56 2.66 56 3.32 56 4 C55.01 4 54.02 4 53 4 C52.505 3.01 52.505 3.01 52 2 C49.03 2 46.06 2 43 2 C43 2.66 43 3.32 43 4 C42.236875 3.835 41.47375 3.67 40.6875 3.5 C37.96403764 2.90854604 37.96403764 2.90854604 35 3 C32 3 32 3 29.82421875 2.5 C26.14228274 1.84814964 22.53500653 1.93745761 18.8125 2 C12.4606984 2.06003206 6.31217371 1.80154587 0 1 C0 0.67 0 0.34 0 0 Z " fill="#454847" transform="translate(17,226)"/>
<path d="M0 0 C3.52998942 3.11952553 6.32580605 5.77532474 7 10.62109375 C7.11058778 14.83034116 6.78608866 17.66469525 4.6875 21.375 C3.63581057 18.21993172 3.70842833 16.28641402 3.875 13 C3.91042187 9.17443819 3.8469176 7.65967428 1.9375 4.25 C-0.25580711 2.42224408 -1.50277419 1.67604205 -4.3125 1.375 C-4.3125 2.035 -4.3125 2.695 -4.3125 3.375 C-5.60163487 4.04654933 -6.89390204 4.71208859 -8.1875 5.375 C-8.90679687 5.74625 -9.62609375 6.1175 -10.3671875 6.5 C-12.3125 7.375 -12.3125 7.375 -14.3125 7.375 C-15.83549523 10.31220508 -17.11350302 13.2918649 -18.3125 16.375 C-18.6425 15.055 -18.9725 13.735 -19.3125 12.375 C-19.9725 12.375 -20.6325 12.375 -21.3125 12.375 C-20.17683321 16.69607362 -19.1220883 20.39368085 -16.25 23.875 C-12.05459823 26.01733282 -7.97062737 26.19410185 -3.3125 26.375 C-3.6425 27.035 -3.9725 27.695 -4.3125 28.375 C-11.24527684 28.79096661 -14.92295878 27.40091538 -20.1875 22.9375 C-23.10641099 19.11239115 -23.1217444 15.0346211 -22.94140625 10.36328125 C-21.9161791 5.49186031 -19.17937628 2.39729088 -15.3125 -0.625 C-9.94299295 -2.41483568 -5.11514667 -2.50931724 0 0 Z " fill="#F9E068" transform="translate(163.3125,142.625)"/>
<path d="M0 0 C3.58325584 0.04564657 4.38462073 0.12383182 7.25 2.5 C8.95273868 5.90547736 9.39088515 7.62361252 8.6875 11.375 C6.625 14.25 6.625 14.25 3.6875 16.375 C-0.31057408 17.00627485 -2.31985985 17.05417484 -5.6875 14.75 C-7.69756043 11.81221938 -8.23983979 9.9353504 -8.3125 6.375 C-6.04875643 1.74461543 -5.08113435 0.21621848 0 0 Z " fill="#FBC346" transform="translate(190.3125,113.625)"/>
<path d="M0 0 C0.33 0 0.66 0 1 0 C1.25007388 2.39528594 1.47552126 4.78879325 1.6875 7.1875 C1.76033203 7.86103516 1.83316406 8.53457031 1.90820312 9.22851562 C2.28885358 13.81871228 1.84734102 16.37203964 -1 20 C-2.71875 21.765625 -2.71875 21.765625 -4.5 23.25 C-5.0878125 23.75015625 -5.675625 24.2503125 -6.28125 24.765625 C-9.75270081 27.25875785 -13.38087237 27.45459929 -17.515625 27.4140625 C-23.2337106 26.46104823 -27.66327187 22.72988346 -31.125 18.25 C-31.41375 17.5075 -31.7025 16.765 -32 16 C-31.67 15.34 -31.34 14.68 -31 14 C-29.53515625 15.26953125 -28.0703125 16.5390625 -26.60546875 17.80859375 C-22.84793012 20.59703483 -18.47102588 20.45203387 -14 20 C-8.81896241 18.3593381 -5.71674672 16.75430676 -3 12 C-1.80031152 8.03895957 -0.85238518 4.04882962 0 0 Z " fill="#B1B7B7" transform="translate(208,118)"/>
<path d="M0 0 C0.33 0 0.66 0 1 0 C1.90064763 8.02541373 2.10318364 15.92874673 2 24 C2 24.99 2 25.98 2 27 C1.99799395 28.39388566 1.9957192 29.78777093 1.99327087 31.18165588 C1.97319557 43.00412238 1.95804031 54.82658441 1.94818783 66.64906406 C1.94295516 72.72007019 1.93584682 78.79106242 1.92456055 84.86206055 C1.91372718 90.72693456 1.90772258 96.59179515 1.90512276 102.45667839 C1.90327027 104.69627024 1.89965302 106.93586132 1.89426994 109.17544746 C1.88705297 112.30000549 1.88600931 115.4245073 1.88647461 118.54907227 C1.88287933 119.48159317 1.87928406 120.41411407 1.87557983 121.37489319 C1.8769545 122.2231366 1.87832916 123.07138 1.87974548 123.94532776 C1.87882369 124.68439645 1.8779019 125.42346514 1.87695217 126.18492985 C1.88960899 128.10062884 1.88960899 128.10062884 3 130 C2.34 130 1.68 130 1 130 C1.03029297 130.85005615 1.06058594 131.7001123 1.09179688 132.57592773 C2.53610265 173.61920944 2.53610265 173.61920944 1 194 C0.67 194 0.34 194 0 194 C0 129.98 0 65.96 0 0 Z " fill="#424645" transform="translate(233,20)"/>
<path d="M0 0 C2.70552388 2.19823815 4.44778333 3.89556667 6 7 C6.25 10.4375 6.25 10.4375 6 14 C5.01 14.99 4.02 15.98 3 17 C3 13.7 3 10.4 3 7 C2.67 7.33 2.34 7.66 2 8 C0.21284356 8.20956883 -1.58043769 8.36811616 -3.375 8.5 C-6.52020509 8.73236344 -8.99627907 8.99875969 -12 10 C-12.33 12.64 -12.66 15.28 -13 18 C-16 16 -16 16 -16.6171875 14.01171875 C-17.03384719 10.25546848 -17.27194813 7.69497856 -15.875 4.125 C-11.17746756 -1.1988701 -6.69953288 -2.02685143 0 0 Z " fill="#F8D764" transform="translate(164,74)"/>
<path d="M0 0 C2.5625 2 2.5625 2 4 4 C1.69 3.67 -0.62 3.34 -3 3 C-2.01 4.485 -2.01 4.485 -1 6 C-2.093125 6.103125 -3.18625 6.20625 -4.3125 6.3125 C-7.83108458 6.76359783 -7.83108458 6.76359783 -10 8.125 C-11.6448094 11.20901762 -10.77769676 13.70974448 -10 17 C-7.4345406 19.5654594 -5.52313332 19.54046087 -2 20 C-2 20.33 -2 20.66 -2 21 C-8.625 21.25 -8.625 21.25 -12 19 C-12.66 19.33 -13.32 19.66 -14 20 C-10.92307254 22.6815279 -8.80265337 23.42087807 -4.75 23.6875 C-3.85796875 23.75324219 -2.9659375 23.81898437 -2.046875 23.88671875 C-1.37140625 23.92410156 -0.6959375 23.96148437 0 24 C-2 26 -2 26 -5.25 26.375 C-10.5646434 25.84353566 -13.43587457 23.824813 -16.875 19.8125 C-18.48123136 15.79692159 -18.80996194 12.25979982 -18 8 C-14.12552463 0.74304614 -7.73528634 -1.22061399 0 0 Z " fill="#222324" transform="translate(209,23)"/>
<path d="M0 0 C0.33 0.66 0.66 1.32 1 2 C0.2578125 3.8046875 0.2578125 3.8046875 -0.875 5.875 C-3.21988086 10.18761305 -4.12220915 13.71273498 -4.14044189 18.62771606 C-4.14615204 19.55273422 -4.15186218 20.47775238 -4.15774536 21.43080139 C-4.15886322 22.43864182 -4.15998108 23.44648224 -4.16113281 24.48486328 C-4.16609772 25.55203079 -4.17106262 26.6191983 -4.17617798 27.71870422 C-4.19079328 31.2525802 -4.19760152 34.78641125 -4.203125 38.3203125 C-4.20887812 40.77928671 -4.21463584 43.23826092 -4.22039795 45.69723511 C-4.23090694 50.85707813 -4.2367499 56.01690559 -4.24023438 61.17675781 C-4.24571084 67.77397135 -4.26972141 74.37097764 -4.29820633 80.9681263 C-4.31687479 86.05034984 -4.32204062 91.13252397 -4.32357025 96.2147789 C-4.32658912 98.64593511 -4.33459165 101.0770906 -4.34775543 103.50821304 C-4.36489925 106.91855641 -4.36291482 110.3284 -4.35644531 113.73876953 C-4.3656601 114.73446457 -4.37487488 115.73015961 -4.3843689 116.75602722 C-4.33728617 124.7193506 -3.28892198 133.06685868 2 139.375 C2.7425 140.28378906 2.7425 140.28378906 3.5 141.2109375 C4.2425 142.09652344 4.2425 142.09652344 5 143 C6.00669866 144.32828295 7.00851872 145.66031994 8 147 C0.91688907 143.82481234 -2.48852445 137.84107613 -5.18346214 130.8102932 C-6.5911707 125.96535705 -6.53129845 121.24848796 -6.4699707 116.2355957 C-6.4721611 115.10421173 -6.4743515 113.97282776 -6.47660828 112.80715942 C-6.47890519 109.09639487 -6.45274224 105.38643898 -6.42578125 101.67578125 C-6.42085294 99.08367667 -6.41755693 96.49156852 -6.41581726 93.89945984 C-6.40819505 88.48029381 -6.38823256 83.06140889 -6.35668945 77.64233398 C-6.316343 70.70204614 -6.29898669 63.76190602 -6.28938007 56.82151508 C-6.280169 50.18958134 -6.2595316 43.55768649 -6.23828125 36.92578125 C-6.2348855 35.66405909 -6.23148975 34.40233692 -6.2279911 33.10238075 C-6.21638939 29.52694386 -6.19786516 25.95161414 -6.17700195 22.3762207 C-6.17431305 21.32306168 -6.17162415 20.26990265 -6.16885376 19.18482971 C-6.09415665 8.95810712 -6.09415665 8.95810712 -5 4 C-2.4375 1.5625 -2.4375 1.5625 0 0 Z " fill="#C0C7C7" transform="translate(60,44)"/>
<path d="M0 0 C4.91511194 1.34048507 4.91511194 1.34048507 6.4375 3.9375 C6.9375 6.8125 6.9375 6.8125 6.4375 9.9375 C4.3125 12.875 4.3125 12.875 1.4375 14.9375 C-1.79671175 14.9375 -3.67627619 14.46923428 -6.4375 12.8125 C-8.26349685 9.76917192 -7.98710581 7.39500445 -7.5625 3.9375 C-5.29401339 0.30792142 -4.30870043 -0.07559124 0 0 Z " fill="#A6ACAD" transform="translate(35.5625,186.0625)"/>
<path d="M0 0 C4.36689189 1.42398649 4.36689189 1.42398649 5.875 3.9375 C6.375 7.375 6.375 7.375 5.875 10.9375 C3.75 13.4375 3.75 13.4375 0.875 14.9375 C-2.64897438 14.9375 -4.36775308 14.61902223 -7 12.25 C-8.49794243 9.17089611 -8.68883235 7.32049409 -8.125 3.9375 C-5.43583153 0.85286557 -4.12776368 -0.08255527 0 0 Z " fill="#A6ACAD" transform="translate(205.125,186.0625)"/>
<path d="M0 0 C2.62541413 2.20196024 2.9445448 3.61973579 3.4375 7 C3 10 3 10 1.375 12.375 C-1 14 -1 14 -4 14.5625 C-7 14 -7 14 -9.375 11.8125 C-11.14232156 8.75367423 -11.70698088 7.44653179 -11 4 C-8.01175593 -0.42260122 -5.13835306 -0.74739681 0 0 Z " fill="#ACB3B4" transform="translate(208,29)"/>
<path d="M0 0 C1.9375 1 1.9375 1 3 3 C3.5327028 6.60137103 3.68723346 9.77825164 1.875 13 C-0.94519875 14.504106 -2.85610056 14.44912849 -6 14 C-8.375 12.4375 -8.375 12.4375 -10 10 C-10.42519574 6.53769185 -10.63902633 4.1652833 -8.9375 1.0625 C-5.88023824 -0.6140629 -3.4093712 -0.36528977 0 0 Z " fill="#AFB5B7" transform="translate(38,29)"/>
<path d="M0 0 C0.7425 0.0825 1.485 0.165 2.25 0.25 C5.0457075 1.44816036 6.30488005 3.5449987 8 6 C9.72565655 11.17696965 9.87335275 16.76809853 7.875 21.875 C4.03773031 26.22390565 -0.43477869 28.54820314 -6 30 C-7.32 30 -8.64 30 -10 30 C-10.33 30.66 -10.66 31.32 -11 32 C-16.24369748 27.15966387 -16.24369748 27.15966387 -17 23 C-17.53625 22.113125 -18.0725 21.22625 -18.625 20.3125 C-20.39733154 16.0427922 -20.33264506 12.42809275 -19 8 C-17.4453125 6.23046875 -17.4453125 6.23046875 -16 5 C-16.15726563 5.55945313 -16.31453125 6.11890625 -16.4765625 6.6953125 C-17.53863328 11.37159428 -18.01739665 16.40979118 -16.234375 20.94921875 C-14.49001045 23.48591791 -12.58238382 24.82945166 -9.65234375 25.6875 C-4.34355812 26.45619294 -0.46536647 26.26734132 4 23 C6.92647067 19.58578421 7.53389612 16.4907641 7.35546875 11.99609375 C6.7587725 8.64541482 5.18036911 6.54376396 3 4 C0.0813791 2.19119083 -2.08774982 1.74822816 -5.5 1.8125 C-6.2528125 1.81894531 -7.005625 1.82539063 -7.78125 1.83203125 C-9.95990143 1.99696437 -11.90204811 2.40399094 -14 3 C-9.72375533 -1.68350607 -5.88079275 -0.93042968 0 0 Z " fill="#CDD3D5" transform="translate(40,22)"/>
<path d="M0 0 C1.32 0.33 2.64 0.66 4 1 C2.02 2.32 0.04 3.64 -2 5 C-0.35 5 1.3 5 3 5 C2.01 6.485 2.01 6.485 1 8 C0.53594623 12.66507428 0.53594623 12.66507428 2.125 16.9375 C4.92162472 18.52225401 6.8493196 18.45947423 10 18 C12.82726947 15.36771463 13.47784461 12.7595188 14 9 C14.33 9 14.66 9 15 9 C15.33609819 12.61305558 15.19511045 14.62603831 13.5 17.875 C10.72894667 20.23039533 10.29993918 20.24954324 6.875 20.125 C5.59625 20.08375 4.3175 20.0425 3 20 C2.34 20.99 1.68 21.98 1 23 C-2.39819547 21.59385015 -4.04416106 20.108582 -6 17 C-6.9309975 12.69143017 -6.98709943 8.61655414 -4.65234375 4.79296875 C-3.17782154 3.08140751 -1.67930429 1.50937469 0 0 Z " fill="#1A1B1C" transform="translate(28,24)"/>
<path d="M0 0 C3.96 0 7.92 0 12 0 C11.01 0.33 10.02 0.66 9 1 C9 1.66 9 2.32 9 3 C7.2984375 3.680625 7.2984375 3.680625 5.5625 4.375 C1.95278308 5.57095806 1.95278308 5.57095806 1 8 C0.3314429 13.40548976 0.3314429 13.40548976 2.625 17.9375 C5.41137245 19.18403504 7.97541559 19.65629723 11 20 C11 20.99 11 21.98 11 23 C5.30707666 23.45543387 2.3984985 22.68246386 -2 19 C-4.74952393 14.6481045 -4.05642649 10.85453125 -3 6 C-1.4375 2.4375 -1.4375 2.4375 0 0 Z " fill="#353839" transform="translate(196,182)"/>
<path d="M0 0 C1.37562854 1.28965176 2.70766393 2.62689293 4 4 C4 4.66 4 5.32 4 6 C4.66 6 5.32 6 6 6 C10.06002781 14.8021403 8.47944897 24.12786236 5.265625 32.953125 C4 35 4 35 1.859375 35.796875 C0.93898437 35.89742187 0.93898437 35.89742187 0 36 C-0.495 34.515 -0.495 34.515 -1 33 C0.03125 31.5546875 0.03125 31.5546875 1.5 29.875 C4.49188149 25.42042089 4.32267992 21.53898372 4 16.375 C3.9371582 15.28227783 3.9371582 15.28227783 3.87304688 14.16748047 C3.46852003 9.49306629 2.29730577 6.15762403 0 2 C0 1.34 0 0.68 0 0 Z " fill="#9FA3A3" transform="translate(175,140)"/>
<path d="M0 0 C-0.29122189 7.86299103 -3.3952396 13.78346564 -8.49609375 19.75 C-10.76706473 21.63756029 -13.13017625 21.68113069 -16 22 C-12.43875373 16.40375587 -12.43875373 16.40375587 -9.9921875 14.15234375 C-7.66681217 11.64002648 -6.906332 9.55816248 -5.875 6.3125 C-5.30180496 4.52422621 -4.68745964 2.74753396 -4 1 C-2 0 -2 0 0 0 Z " fill="#AAB0B0" transform="translate(122,173)"/>
<path d="M0 0 C17.82 0 35.64 0 54 0 C54.66 1.32 55.32 2.64 56 4 C55.01 4 54.02 4 53 4 C52.505 3.01 52.505 3.01 52 2 C49.03 2 46.06 2 43 2 C43 2.66 43 3.32 43 4 C42.236875 3.835 41.47375 3.67 40.6875 3.5 C37.96403764 2.90854604 37.96403764 2.90854604 35 3 C32 3 32 3 29.82421875 2.5 C26.14228274 1.84814964 22.53500653 1.93745761 18.8125 2 C12.4606984 2.06003206 6.31217371 1.80154587 0 1 C0 0.67 0 0.34 0 0 Z " fill="#565858" transform="translate(17,226)"/>
<path d="M0 0 C1 2 1 2 0.8125 5.4375 C0.64764091 8.96744104 0.64764091 8.96744104 2.625 11 C5.83596428 12.35198496 7.69946166 12.00451167 11 11 C13.12508244 7.81237635 13.5020163 5.73487777 14 2 C14.33 2 14.66 2 15 2 C15 4.64 15 7.28 15 10 C15.66 10.33 16.32 10.66 17 11 C17.66 8.36 18.32 5.72 19 3 C19.33 3 19.66 3 20 3 C19.7444669 8.86448454 19.34242429 12.65757571 15 17 C12 16 12 16 10 14 C8.6078125 14.061875 8.6078125 14.061875 7.1875 14.125 C4 14 4 14 1.1875 12.375 C-1.46587009 9.49419818 -1.91901526 7.8872673 -2 4 C-1.0625 1.625 -1.0625 1.625 0 0 Z " fill="#1A1B1C" transform="translate(28,188)"/>
<path d="M0 0 C1.25425781 0.00902344 2.50851563 0.01804688 3.80078125 0.02734375 C4.75339844 0.03894531 5.70601562 0.05054688 6.6875 0.0625 C6.0275 1.3825 5.3675 2.7025 4.6875 4.0625 C5.3475 4.3925 6.0075 4.7225 6.6875 5.0625 C4.31242145 5.08969556 1.93766036 5.10943247 -0.4375 5.125 C-1.43523437 5.13756836 -1.43523437 5.13756836 -2.453125 5.15039062 C-6.51931354 5.17032292 -10.3245092 4.85140161 -14.3125 4.0625 C-13.6525 3.7325 -12.9925 3.4025 -12.3125 3.0625 C-12.3125 2.4025 -12.3125 1.7425 -12.3125 1.0625 C-8.15623632 0.05323521 -4.26884906 -0.03989579 0 0 Z " fill="#AAAFAF" transform="translate(89.3125,196.9375)"/>
<path d="M0 0 C1.20527344 0.0721875 2.41054688 0.144375 3.65234375 0.21875 C20.77028954 1.15747606 37.86334919 1.10146496 55 1 C55 1.33 55 1.66 55 2 C41.6940291 3.33369871 28.50328362 4.28651419 15.125 3.8125 C14.06869385 3.7822876 13.0123877 3.7520752 11.92407227 3.72094727 C10.94108154 3.67510498 9.95809082 3.6292627 8.9453125 3.58203125 C8.08437988 3.54311768 7.22344727 3.5042041 6.33642578 3.46411133 C3.57354153 2.91528761 2.10949816 1.82593726 0 0 Z " fill="#83878A" transform="translate(28,207)"/>
<path d="M0 0 C0.33 0 0.66 0 1 0 C1.02578125 0.7734375 1.0515625 1.546875 1.078125 2.34375 C1.43163012 8.83538957 1.76427674 14.80161237 6 20 C12.20957355 25.00772061 18.09469911 26.76256922 26 26 C28.81118204 25.20210675 31.31127525 24.17326171 34 23 C34 23.66 34 24.32 34 25 C28.05540106 28.17045277 22.70023737 28.76094141 16 28 C14.3250349 27.35446601 12.65689139 26.69060347 11 26 C10.154375 26.061875 9.30875 26.12375 8.4375 26.1875 C6 26 6 26 3.8125 24 C-0.76622265 16.42142459 -0.23587756 8.59642648 0 0 Z " fill="#C8CECE" transform="translate(137,78)"/>
<path d="M0 0 C3.27191292 1.35815253 5.49895506 2.49895506 8 5 C7.67 5.99 7.34 6.98 7 8 C6.34 7.01 5.68 6.02 5 5 C4.01 5 3.02 5 2 5 C2.680625 6.03125 3.36125 7.0625 4.0625 8.125 C5.71718724 11.00170009 6.00341432 11.90781337 5.875 15.375 C5 18 5 18 3 19 C3.06960937 18.07767578 3.06960937 18.07767578 3.140625 17.13671875 C3.4966253 12.1634501 3.4966253 12.1634501 1.375 7.875 C-1.81093197 6.70123559 -3.75507406 7.10246729 -7 8 C-7.99 8.66 -8.98 9.32 -10 10 C-9.375 8.0625 -9.375 8.0625 -8 6 C-4.875 5.25 -4.875 5.25 -2 5 C-2 4.34 -2 3.68 -2 3 C-4.64 3 -7.28 3 -10 3 C-7.28313497 -0.83557416 -4.41969099 -0.4494601 0 0 Z " fill="#1C1D1E" transform="translate(207,180)"/>
<path d="M0 0 C3.58325584 0.04564657 4.38462073 0.12383182 7.25 2.5 C8.95273868 5.90547736 9.39088515 7.62361252 8.6875 11.375 C6.5 14.25 6.5 14.25 3.6875 16.375 C0.875 16.6875 0.875 16.6875 -1.3125 16.375 C-0.714375 16.08625 -0.11625 15.7975 0.5 15.5 C2.88077792 14.32757974 2.88077792 14.32757974 5.6875 12.375 C6.05047936 10.39752878 6.05047936 10.39752878 5.875 8.25 C5.813125 6.97125 5.75125 5.6925 5.6875 4.375 C4.3675 3.715 3.0475 3.055 1.6875 2.375 C1.6875 3.035 1.6875 3.695 1.6875 4.375 C-1.2825 3.88 -1.2825 3.88 -4.3125 3.375 C-5.45602916 5.66205831 -5.41584439 6.96764762 -5.375 9.5 C-5.354375 10.77875 -5.33375 12.0575 -5.3125 13.375 C-4.3225 13.705 -3.3325 14.035 -2.3125 14.375 C-3.3025 14.87 -3.3025 14.87 -4.3125 15.375 C-6.64226763 13.5517036 -7.31223834 12.37585972 -8.1875 9.5 C-8.3360372 5.78657001 -7.49726995 4.31603647 -5.3125 1.375 C-3.74331508 -0.19418492 -2.17164841 0.09241057 0 0 Z " fill="#F1E268" transform="translate(190.3125,113.625)"/>
<path d="M0 0 C0.33 0.66 0.66 1.32 1 2 C1.99 2.33 2.98 2.66 4 3 C4.78375 3.804375 5.5675 4.60875 6.375 5.4375 C8.92427486 7.92607784 10.65213121 8.94781267 14 10 C13.34 11.32 12.68 12.64 12 14 C14.31 14.33 16.62 14.66 19 15 C19 15.33 19 15.66 19 16 C10.24880383 16.44497608 10.24880383 16.44497608 6 13 C1.80630075 8.80630075 0.35576343 5.92939046 0 0 Z " fill="#A4AAAB" transform="translate(188,40)"/>
<path d="M0 0 C0.6271777 7.99651568 0.6271777 7.99651568 -1.875 12 C-5.24031572 15.16735597 -7.58743695 15.22459637 -12.125 15.5625 C-13.22070312 15.64628906 -14.31640625 15.73007812 -15.4453125 15.81640625 C-16.28835937 15.87699219 -17.13140625 15.93757813 -18 16 C-18 15.01 -18 14.02 -18 13 C-17.34 13 -16.68 13 -16 13 C-15.67 12.34 -15.34 11.68 -15 11 C-13.741875 11.0825 -12.48375 11.165 -11.1875 11.25 C-7.80796025 11.27704081 -7.80796025 11.27704081 -5.0625 9.375 C-3.82391127 6.60638989 -3.46441695 3.98553755 -3 1 C-1 0 -1 0 0 0 Z " fill="#353839" transform="translate(46,32)"/>
<path d="M0 0 C3.14051252 1.40276226 5.36749893 3.09615863 7.875 5.4375 C11.10595643 8.3417305 14.01379281 10.30586194 18 12 C17.01 12.495 17.01 12.495 16 13 C15.67 13.99 15.34 14.98 15 16 C9.373444 14.63598642 6.33053324 10.44071099 3 6 C1.8157691 4.02212663 0.90398399 2.12702115 0 0 Z " fill="#A5AAAA" transform="translate(57,183)"/>
<path d="M0 0 C2.76276177 0.52268466 5.3260876 1.10869587 8 2 C9.89212737 2.22179785 11.78884472 2.40614015 13.6875 2.5625 C14.68136719 2.64628906 15.67523438 2.73007813 16.69921875 2.81640625 C17.83810547 2.90728516 17.83810547 2.90728516 19 3 C18.67 3.99 18.34 4.98 18 6 C14.34630192 7.60762716 9.91117577 7.55445787 6 7 C2.5 5.1875 2.5 5.1875 0 3 C0 2.01 0 1.02 0 0 Z " fill="#AEB2B2" transform="translate(145,103)"/>
<path d="M0 0 C0.33 0.66 0.66 1.32 1 2 C0.67 2.66 0.34 3.32 0 4 C-0.64443538 9.11865815 -0.62691388 12.88773344 1.9375 17.4375 C5.71978922 20.60227261 9.26734357 21.82456899 14 23 C13.67 23.66 13.34 24.32 13 25 C11.02 25 9.04 25 7 25 C6.67 25.66 6.34 26.32 6 27 C0.75630252 22.15966387 0.75630252 22.15966387 0 18 C-0.53625 17.113125 -1.0725 16.22625 -1.625 15.3125 C-3.42130601 10.98503552 -3.14114912 7.50453599 -2 3 C-1.34 2.01 -0.68 1.02 0 0 Z " fill="#B7BDBF" transform="translate(23,27)"/>
<path d="M0 0 C0.33 0 0.66 0 1 0 C2.24063784 7.65874066 2.11179358 15.25711646 2.0625 23 C2.05747487 24.36067544 2.05291376 25.72135267 2.04882812 27.08203125 C2.03710459 30.38806725 2.02069427 33.69401001 2 37 C1.34 36.67 0.68 36.34 0 36 C-1.36256648 28.30598686 -0.92210069 20.71231498 -0.5625 12.9375 C-0.51029297 11.69033203 -0.45808594 10.44316406 -0.40429688 9.15820312 C-0.27562425 6.10515269 -0.14070861 3.0525154 0 0 Z " fill="#1D2122" transform="translate(3,175)"/>
<path d="M0 0 C-3.87447311 2.99959208 -7.0219708 3.50616889 -11.7734375 3.37109375 C-15.284521 2.78591317 -17.27278096 1.23771818 -20 -1 C-17.49046058 -2.25476971 -16.62766637 -1.67810745 -14 -1 C-13.67 -1.33 -13.34 -1.66 -13 -2 C-7.44146421 -3.02935848 -4.78614323 -3.19076216 0 0 Z " fill="#ACB0B1" transform="translate(202,142)"/>
<path d="M0 0 C4.62979937 2.82932184 6.11609495 5.85408893 7.375 11.0625 C7.77723592 16.0617178 7.02075566 19.72009454 3.8125 23.625 C3.008125 24.429375 2.20375 25.23375 1.375 26.0625 C0.715 25.7325 0.055 25.4025 -0.625 25.0625 C0.2 24.27875 1.025 23.495 1.875 22.6875 C4.83826496 19.1146491 5.09450393 16.02050323 4.875 11.47265625 C4.05818836 7.5353689 2.29740049 5.77615759 -0.625 3.0625 C-3.38952033 1.68023984 -5.6711363 1.96724613 -8.75 2 C-9.84570312 2.00902344 -10.94140625 2.01804687 -12.0703125 2.02734375 C-13.33488281 2.04474609 -13.33488281 2.04474609 -14.625 2.0625 C-10.38556811 -2.17693189 -5.42816131 -1.40383482 0 0 Z " fill="#C9CFD0" transform="translate(211.625,21.9375)"/>
<path d="M0 0 C7.92 0 15.84 0 24 0 C21.75424933 3.36862601 21.37282771 3.40200727 17.6875 4.3125 C12.77243913 5.78701826 10.87747105 7.8230259 8 12 C7 9 7 9 8.25 6.3125 C9.11625 5.1678125 9.11625 5.1678125 10 4 C10.99 4 11.98 4 13 4 C13 3.01 13 2.02 13 1 C8.71 1 4.42 1 0 1 C0 0.67 0 0.34 0 0 Z " fill="#AAB0B1" transform="translate(185,18)"/>
<path d="M0 0 C4.875 0.875 4.875 0.875 6 2 C8.32817964 2.36760731 10.6618385 2.70241581 13 3 C13.33 2.34 13.66 1.68 14 1 C15.65 1.33 17.3 1.66 19 2 C18.34 3.65 17.68 5.3 17 7 C6.093874 6.65211719 6.093874 6.65211719 1.75 4.0625 C0 2 0 2 0 0 Z " fill="#363839" transform="translate(194,41)"/>
<path d="M0 0 C2.53400984 0.36200141 4.17310127 1.10477182 6.375 2.4375 C8.39919325 5.62949705 7.97701119 6.63030345 7.25 10.25 C6.85507231 11.83889511 6.44501681 13.42439993 6 15 C5.01 15 4.02 15 3 15 C2 13 2 13 2.0625 9.5625 C2.318863 5.89327313 2.318863 5.89327313 0 3 C0 2.01 0 1.02 0 0 Z " fill="#323637" transform="translate(40,184)"/>
<path d="M0 0 C2 1 2 1 3.13671875 4.078125 C4.16652225 8.03564266 4.0954064 11.66630764 3.8125 15.75 C3.73644531 17.04421875 3.66039062 18.3384375 3.58203125 19.671875 C3 23 3 23 1.57421875 24.953125 C-0.6538506 26.43481876 -2.29688484 26 -5 26 C-4.65066406 25.54109375 -4.30132812 25.0821875 -3.94140625 24.609375 C-3.48636719 23.99578125 -3.03132812 23.3821875 -2.5625 22.75 C-2.11003906 22.14671875 -1.65757812 21.5434375 -1.19140625 20.921875 C2.54764689 14.89035321 1.35954046 6.62775976 0 0 Z " fill="#C0C5C6" transform="translate(177,74)"/>
<path d="M0 0 C2.5625 2 2.5625 2 4 4 C1.69 3.67 -0.62 3.34 -3 3 C-2.01 4.485 -2.01 4.485 -1 6 C-5.455 6.495 -5.455 6.495 -10 7 C-9.67 5.68 -9.34 4.36 -9 3 C-9.78375 3.474375 -10.5675 3.94875 -11.375 4.4375 C-12.88948678 5.33898023 -14.4235897 6.21179485 -16 7 C-15.0195412 4.41515408 -14.06077857 3.05156969 -11.9375 1.25 C-7.9164062 -0.46110375 -4.30911801 -0.76374293 0 0 Z " fill="#191A1B" transform="translate(209,23)"/>
<path d="M0 0 C0.70576172 0.52400391 0.70576172 0.52400391 1.42578125 1.05859375 C2.35970703 1.74115234 2.35970703 1.74115234 3.3125 2.4375 C4.23482422 3.11619141 4.23482422 3.11619141 5.17578125 3.80859375 C10.73350965 7.43837354 17.81333471 6.23733306 24 5 C23.67 5.99 23.34 6.98 23 8 C22.31292969 8.06058594 21.62585938 8.12117187 20.91796875 8.18359375 C20.01691406 8.26738281 19.11585938 8.35117188 18.1875 8.4375 C16.84751953 8.55931641 16.84751953 8.55931641 15.48046875 8.68359375 C12.87256441 8.93489767 12.87256441 8.93489767 10 10 C5.80686734 9.1970597 4.30888492 8.39017042 1.625 5 C0 2 0 2 0 0 Z " fill="#AFB5B5" transform="translate(176,132)"/>
<path d="M0 0 C3.89581756 -0.02911003 7.791607 -0.04683587 11.6875 -0.0625 C12.79029297 -0.07087891 13.89308594 -0.07925781 15.02929688 -0.08789062 C16.6293457 -0.09272461 16.6293457 -0.09272461 18.26171875 -0.09765625 C19.24100342 -0.10289307 20.22028809 -0.10812988 21.22924805 -0.11352539 C23.92469572 -0.00308543 26.37545639 0.39465834 29 1 C28.67 1.66 28.34 2.32 28 3 C18.63250185 3.1820896 9.3412692 2.61326035 0 2 C0 1.34 0 0.68 0 0 Z " fill="#868A8C" transform="translate(153,208)"/>
<path d="M0 0 C0.33 0 0.66 0 1 0 C1.33609819 3.61305558 1.19511045 5.62603831 -0.5 8.875 C-3.27105333 11.23039533 -3.70006082 11.24954324 -7.125 11.125 C-8.40375 11.08375 -9.6825 11.0425 -11 11 C-11.99 12.485 -11.99 12.485 -13 14 C-15.46800047 12.84826645 -17.04783565 11.95216435 -19 10 C-18.67 9.01 -18.34 8.02 -18 7 C-17.34 7.66 -16.68 8.32 -16 9 C-15.34 9 -14.68 9 -14 9 C-14.33 7.68 -14.66 6.36 -15 5 C-13.948125 5.99 -13.948125 5.99 -12.875 7 C-9.51896425 9.33463357 -8.00106924 9.69583813 -4 9 C-1.17273053 6.36771463 -0.52215539 3.7595188 0 0 Z " fill="#171818" transform="translate(42,33)"/>
<path d="M0 0 C5.52290234 -0.13618115 10.08047367 0.2652448 15.2890625 2.1171875 C11.96013543 3.26177922 8.83229292 3.11901688 5.34790039 3.00219727 C-1.54513929 2.77969615 -7.00778605 2.77308578 -13.14453125 6.33984375 C-13.66144531 6.59636719 -14.17835937 6.85289063 -14.7109375 7.1171875 C-15.3709375 6.7871875 -16.0309375 6.4571875 -16.7109375 6.1171875 C-11.36653955 0.9063995 -7.26136172 0.31389172 0 0 Z " fill="#B2B8B9" transform="translate(84.7109375,29.8828125)"/>
<path d="M0 0 C2.76940154 0.21303089 4.48134981 0.59660541 6.6875 2.3125 C8.67970149 4.87390191 10.11575183 6.72672982 9.8125 10.0625 C8.89199398 12.25755282 7.78403777 13.44866281 6 15 C6.04125 14.0925 6.0825 13.185 6.125 12.25 C6.00000848 9.00022042 5.94064027 7.55811672 4 5 C0.9665533 3.23272142 0.9665533 3.23272142 -2 2 C-1.34 1.34 -0.68 0.68 0 0 Z " fill="#343638" transform="translate(206,25)"/>
<path d="M0 0 C3.82097239 0.53069061 6.06171403 1.49701566 9 4 C8.67 6.64 8.34 9.28 8 12 C7.34 12 6.68 12 6 12 C5.34 12.66 4.68 13.32 4 14 C3.96261719 13.40832031 3.92523438 12.81664062 3.88671875 12.20703125 C3.48623099 7.39332549 2.9614965 3.99158223 0 0 Z " fill="#333637" transform="translate(208,184)"/>
<path d="M0 0 C5.22289724 0.409639 8.34664603 1.13174285 12 5 C12.8125 7.75 12.8125 7.75 13 10 C12.1028125 8.7934375 12.1028125 8.7934375 11.1875 7.5625 C9.19052724 4.77672016 9.19052724 4.77672016 6 4 C6.66 5.98 7.32 7.96 8 10 C7.278125 9.525625 6.55625 9.05125 5.8125 8.5625 C3.10524774 7.05847097 1.03805725 6.43400818 -2 6 C-2 5.67 -2 5.34 -2 5 C-0.02 5 1.96 5 4 5 C4 4.34 4 3.68 4 3 C2.0399719 1.36323743 2.0399719 1.36323743 0 0 Z " fill="#1A1B1C" transform="translate(34,180)"/>
<path d="M0 0 C1.37562854 1.28965176 2.70766393 2.62689293 4 4 C4 4.66 4 5.32 4 6 C4.66 6 5.32 6 6 6 C7.65461297 9.50388628 8.26378815 11.32352539 7 15 C6.65939189 16.66519519 6.32441604 18.33157466 6 20 C5.67 20 5.34 20 5 20 C4.89042969 19.20335937 4.78085938 18.40671875 4.66796875 17.5859375 C3.80882131 11.84431803 2.94713785 7.09051083 0 2 C0 1.34 0 0.68 0 0 Z " fill="#B9BEBF" transform="translate(175,140)"/>
<path d="M0 0 C3.63 0 7.26 0 11 0 C10.67 0.99 10.34 1.98 10 3 C10.66 3 11.32 3 12 3 C11.67 3.66 11.34 4.32 11 5 C9.783125 4.814375 8.56625 4.62875 7.3125 4.4375 C3.97022061 4.01006818 1.28031583 4.07741117 -2 5 C-1.67 4.34 -1.34 3.68 -1 3 C-0.01 3 0.98 3 2 3 C2 2.34 2 1.68 2 1 C1.34 0.67 0.68 0.34 0 0 Z " fill="#AAAFB0" transform="translate(29,18)"/>
<path d="M0 0 C1.48199902 0.44909061 2.96055236 0.90956564 4.4375 1.375 C5.26121094 1.63023437 6.08492188 1.88546875 6.93359375 2.1484375 C9 3 9 3 10 5 C12.01669827 6.13350534 12.01669827 6.13350534 14 7 C12.35 7 10.7 7 9 7 C9 7.66 9 8.32 9 9 C7.35 8.67 5.7 8.34 4 8 C4.33 6.68 4.66 5.36 5 4 C4.175 3.525625 3.35 3.05125 2.5 2.5625 C1.675 2.046875 0.85 1.53125 0 1 C0 0.67 0 0.34 0 0 Z " fill="#B5BABA" transform="translate(68,191)"/>
<path d="M0 0 C0.33 0 0.66 0 1 0 C1.90064763 8.02541373 2.10318364 15.92874673 2 24 C2 24.99 2 25.98 2 27 C1.34 28.32 0.68 29.64 0 31 C0 20.77 0 10.54 0 0 Z " fill="#4B4F4E" transform="translate(233,20)"/>
<path d="M0 0 C0.99 0.66 1.98 1.32 3 2 C3.1875 5.625 3.1875 5.625 3 9 C2.01 9.33 1.02 9.66 0 10 C-0.99 9.34 -1.98 8.68 -3 8 C-2.74438677 5.6568787 -2.40729228 3.32156597 -2 1 C-1.34 0.67 -0.68 0.34 0 0 Z " fill="#343738" transform="translate(25,33)"/>
<path d="M0 0 C0.33 0 0.66 0 1 0 C1 5.94 1 11.88 1 18 C0.34 17.67 -0.32 17.34 -1 17 C-1.4140625 15.0390625 -1.4140625 15.0390625 -1.625 12.625 C-1.69976562 11.83351562 -1.77453125 11.04203125 -1.8515625 10.2265625 C-1.96749782 8.48753275 -2 6.74288998 -2 5 C-1.34 5 -0.68 5 0 5 C0 3.35 0 1.7 0 0 Z " fill="#2B2F31" transform="translate(4,194)"/>
<path d="M0 0 C0.66 0 1.32 0 2 0 C1.28571429 8.57142857 1.28571429 8.57142857 -2 12 C-2.66 11.67 -3.32 11.34 -4 11 C-3.71758359 9.53984709 -3.42373386 8.08190207 -3.125 6.625 C-2.96257812 5.81289062 -2.80015625 5.00078125 -2.6328125 4.1640625 C-2 2 -2 2 0 0 Z " fill="#A2A7A7" transform="translate(120,173)"/>
<path d="M0 0 C1.98 0.66 3.96 1.32 6 2 C6 1.34 6 0.68 6 0 C7.9375 0.375 7.9375 0.375 10 1 C10.33 1.66 10.66 2.32 11 3 C10.31292969 3.04898438 9.62585938 3.09796875 8.91796875 3.1484375 C7.56638672 3.26058594 7.56638672 3.26058594 6.1875 3.375 C5.29417969 3.44460937 4.40085938 3.51421875 3.48046875 3.5859375 C0.75601501 3.86645036 0.75601501 3.86645036 -2 6 C-1.125 1.125 -1.125 1.125 0 0 Z " fill="#FCD15A" transform="translate(186,116)"/>
<path d="M0 0 C1 2 1 2 1.4375 5.5 C1.6570296 9.04766003 1.6570296 9.04766003 4 11 C5.98821313 11.39764263 7.98944339 11.73775349 10 12 C10 12.33 10 12.66 10 13 C3.375 13.25 3.375 13.25 0 11 C-0.99 10.67 -1.98 10.34 -3 10 C-2.69201674 8.51988629 -2.378482 7.04092675 -2.0625 5.5625 C-1.88847656 4.73878906 -1.71445313 3.91507813 -1.53515625 3.06640625 C-1 1 -1 1 0 0 Z " fill="#18191A" transform="translate(197,31)"/>
<path d="M0 0 C-0.33 1.32 -0.66 2.64 -1 4 C-1.5775 3.34 -2.155 2.68 -2.75 2 C-7.64297112 -1.01105915 -12.39438258 -0.32185363 -18 0 C-12.56268007 -5.43731993 -6.03099598 -2.89487807 0 0 Z " fill="#BDC4C6" transform="translate(215,24)"/>
<path d="M0 0 C0.99 0 1.98 0 3 0 C3.13277344 0.62648437 3.26554687 1.25296875 3.40234375 1.8984375 C3.57894531 2.71570313 3.75554688 3.53296875 3.9375 4.375 C4.19853516 5.59316406 4.19853516 5.59316406 4.46484375 6.8359375 C4.92330693 9.029463 4.92330693 9.029463 6 11 C2.125 9.25 2.125 9.25 1 7 C0.34 7 -0.32 7 -1 7 C-0.67 4.69 -0.34 2.38 0 0 Z " fill="#373B3C" transform="translate(23,192)"/>
<path d="M0 0 C0.67578125 1.67578125 0.67578125 1.67578125 1 4 C-0.14453125 6.54296875 -0.14453125 6.54296875 -1.8125 9.1875 C-2.62654297 10.50814453 -2.62654297 10.50814453 -3.45703125 11.85546875 C-5 14 -5 14 -7 15 C-7.66 15.66 -8.32 16.32 -9 17 C-8.67 15.35 -8.34 13.7 -8 12 C-7.01 11.67 -6.02 11.34 -5 11 C-3.89831016 9.30230766 -3.89831016 9.30230766 -3 7 C-2.60941406 6.09894531 -2.60941406 6.09894531 -2.2109375 5.1796875 C-1.46471526 3.4570997 -0.73146089 1.72890755 0 0 Z " fill="#1C1924" transform="translate(109,170)"/>
<path d="M0 0 C0.8971875 0.309375 0.8971875 0.309375 1.8125 0.625 C0.1728125 1.2746875 0.1728125 1.2746875 -1.5 1.9375 C-4.26936409 3.46793805 -5.0823509 4.37300475 -6.3203125 7.33984375 C-7.04990944 10.09177006 -7.68042021 12.82398781 -8.1875 15.625 C-8.5175 15.625 -8.8475 15.625 -9.1875 15.625 C-9.60764232 9.53293639 -9.25465472 6.50558567 -5.1875 1.625 C-2.1875 -0.375 -2.1875 -0.375 0 0 Z " fill="#191B1B" transform="translate(31.1875,181.375)"/>
<path d="M0 0 C3.37462715 0.54723683 5.08235 1.0549 8 3 C7.67 3.66 7.34 4.32 7 5 C3.625 5.125 3.625 5.125 0 5 C-0.66 4.34 -1.32 3.68 -2 3 C-1.34 2.01 -0.68 1.02 0 0 Z " fill="#363939" transform="translate(31,180)"/>
<path d="M0 0 C2.26171875 -0.171875 2.26171875 -0.171875 4.6875 0.25 C5.49574219 0.37890625 6.30398437 0.5078125 7.13671875 0.640625 C8.05904297 0.81851562 8.05904297 0.81851562 9 1 C9 1.66 9 2.32 9 3 C3.06 3.495 3.06 3.495 -3 4 C-2.01 2.68 -1.02 1.36 0 0 Z " fill="#2B2D2E" transform="translate(28,26)"/>
<path d="M0 0 C1 3 1 3 0.3125 5.625 C-1 8 -1 8 -3.125 8.8125 C-3.74375 8.874375 -4.3625 8.93625 -5 9 C-5.33 8.01 -5.66 7.02 -6 6 C-4 4 -2 2 0 0 Z " fill="#A7ACAC" transform="translate(180,167)"/>
<path d="M0 0 C4.875 0.875 4.875 0.875 6 2 C6.04063832 3.66617115 6.042721 5.33388095 6 7 C5.01 7 4.02 7 3 7 C0 2.77777778 0 2.77777778 0 0 Z " fill="#828788" transform="translate(176,139)"/>
<path d="M0 0 C2.475 0.495 2.475 0.495 5 1 C5.1875 4.375 5.1875 4.375 5 8 C4.01 8.66 3.02 9.32 2 10 C1.34 6.7 0.68 3.4 0 0 Z " fill="#373A3B" transform="translate(191,31)"/>
<path d="M0 0 C4.53786224 2.26893112 5.94678157 4.09866534 9 8 C7.35 8 5.7 8 4 8 C2.68 5.36 1.36 2.72 0 0 Z " fill="#9DA3A3" transform="translate(57,183)"/>
<path d="M0 0 C-2.85508218 1.440578 -5.72317245 2.84334242 -8.625 4.1875 C-9.40101562 4.55230469 -10.17703125 4.91710938 -10.9765625 5.29296875 C-11.64429687 5.52628906 -12.31203125 5.75960937 -13 6 C-13.66 5.67 -14.32 5.34 -15 5 C-10.68177756 -0.75762992 -6.92478377 -0.60507819 0 0 Z " fill="#C2C8C9" transform="translate(83,31)"/>
<path d="M0 0 C0.625 2.0625 0.625 2.0625 1 4 C-1.64 3.67 -4.28 3.34 -7 3 C-7.33 2.01 -7.66 1.02 -8 0 C-2.25 -1.125 -2.25 -1.125 0 0 Z " fill="#383B3B" transform="translate(40,202)"/>
<path d="M0 0 C2.3125 0.25 2.3125 0.25 5 1 C5.99 2.32 6.98 3.64 8 5 C4.7 4.34 1.4 3.68 -2 3 C-1.34 2.67 -0.68 2.34 0 2 C0 1.34 0 0.68 0 0 Z " fill="#FDCE51" transform="translate(159,144)"/>
<path d="M0 0 C-0.33 0.99 -0.66 1.98 -1 3 C-3.29141286 3.05384521 -5.58318188 3.09272087 -7.875 3.125 C-9.78925781 3.15980469 -9.78925781 3.15980469 -11.7421875 3.1953125 C-15 3 -15 3 -17 1 C-15.87851563 1.01740234 -15.87851563 1.01740234 -14.734375 1.03515625 C-13.74953125 1.04417969 -12.7646875 1.05320313 -11.75 1.0625 C-10.77546875 1.07410156 -9.8009375 1.08570313 -8.796875 1.09765625 C-5.75782984 0.99154434 -3.00222426 0 0 0 Z " fill="#D2D7D7" transform="translate(200,137)"/>
<path d="M0 0 C2 1 2 1 2 1 Z M0 1 C-2 4 -2 4 -4.625 4.6875 C-5.800625 4.8421875 -5.800625 4.8421875 -7 5 C-6.6875 3.0625 -6.6875 3.0625 -6 1 C-3 0 -3 0 0 1 Z " fill="#FDC94F" transform="translate(158,82)"/>
<path d="M0 0 C2.875 0.375 2.875 0.375 4.875 2.375 C0.915 3.035 -3.045 3.695 -7.125 4.375 C-3.125 0.375 -3.125 0.375 0 0 Z " fill="#F0E480" transform="translate(158.125,72.625)"/>
<path d="M0 0 C1.32 0.33 2.64 0.66 4 1 C1.33333333 3.66666667 -1.33333333 6.33333333 -4 9 C-3.46930939 5.17902761 -2.50298434 2.93828597 0 0 Z " fill="#2B2D2E" transform="translate(9,11)"/>
<path d="M0 0 C0.66 0 1.32 0 2 0 C1.67 2.97 1.34 5.94 1 9 C0.01 8.01 -0.98 7.02 -2 6 C-1.34 4.02 -0.68 2.04 0 0 Z " fill="#9DA2A3" transform="translate(208,127)"/>
<path d="M0 0 C0.99 0.33 1.98 0.66 3 1 C2.67 2.32 2.34 3.64 2 5 C-0.31 5 -2.62 5 -5 5 C-3.68 4.67 -2.36 4.34 -1 4 C-0.67 2.68 -0.34 1.36 0 0 Z " fill="#B5BAB9" transform="translate(164,105)"/>
<path d="M0 0 C0.33 0.66 0.66 1.32 1 2 C2.2375 2.495 2.2375 2.495 3.5 3 C6 4 6 4 7 6 C2.25 5.125 2.25 5.125 0 4 C0 3.34 0 2.68 0 2 C-0.66 1.67 -1.32 1.34 -2 1 C-1.34 0.67 -0.68 0.34 0 0 Z " fill="#4A4C4E" transform="translate(222,7)"/>
<path d="M0 0 C1.485 0.99 1.485 0.99 3 2 C4.9896995 2.39013716 6.99019869 2.73202649 9 3 C6 5 6 5 3.4375 4.8125 C1 4 1 4 -1 1 C-0.67 0.67 -0.34 0.34 0 0 Z " fill="#303234" transform="translate(197,41)"/>
<path d="M0 0 C0.66 0 1.32 0 2 0 C2.66 1.98 3.32 3.96 4 6 C3.01 6.66 2.02 7.32 1 8 C0.67 5.36 0.34 2.72 0 0 Z " fill="#FBCA50" transform="translate(142,155)"/>
<path d="M0 0 C0.33 0.66 0.66 1.32 1 2 C0.01 3.485 0.01 3.485 -1 5 C-1.66 5 -2.32 5 -3 5 C-3.33 5.66 -3.66 6.32 -4 7 C-4 5.68 -4 4.36 -4 3 C-2 1.25 -2 1.25 0 0 Z " fill="#ACB4B5" transform="translate(60,44)"/>
<path d="M0 0 C0.99 0 1.98 0 3 0 C5.1519437 3.22791555 5.20086443 4.28400809 5 8 C2.74754119 5.31158141 1.11786042 3.35358125 0 0 Z " fill="#2B2E2F" transform="translate(227,13)"/>
<path d="M0 0 C1.32 0.33 2.64 0.66 4 1 C2.68 1.33 1.36 1.66 0 2 C0 1.34 0 0.68 0 0 Z " fill="#686869" transform="translate(216,228)"/>
<path d="M0 0 C0.99 0.33 1.98 0.66 3 1 C2.01 1.33 1.02 1.66 0 2 C0 1.34 0 0.68 0 0 Z " fill="#6D6E6F" transform="translate(104,228)"/>
<path d="M0 0 C0.66 0.66 1.32 1.32 2 2 C1.01 1.67 0.02 1.34 -1 1 C-0.67 0.67 -0.34 0.34 0 0 Z " fill="#676868" transform="translate(16,227)"/>
<path d="M0 0 C1 4 1 4 1 4 Z " fill="#6D6F70" transform="translate(1,168)"/>
<path d="M0 0 C1 4 1 4 1 4 Z " fill="#696C6C" transform="translate(235,154)"/>
<path d="M0 0 C3 1 3 1 3 1 Z " fill="#6E706F" transform="translate(173,229)"/>
<path d="M0 0 C0.66 0 1.32 0 2 0 C1.67 0.66 1.34 1.32 1 2 C0.67 1.34 0.34 0.68 0 0 Z " fill="#6D6F6F" transform="translate(109,229)"/>
<path d="" fill="#686B6C" transform="translate(0,0)"/>
<path d="" fill="#6D6F6F" transform="translate(0,0)"/>
<path d="" fill="#727372" transform="translate(0,0)"/>
<path d="" fill="#6C6D6E" transform="translate(0,0)"/>
<path d="" fill="#6B6B6C" transform="translate(0,0)"/>
<path d="M0 0 C2 1 2 1 2 1 Z " fill="#6D6F6E" transform="translate(205,229)"/>
<path d="M0 0 C2 1 2 1 2 1 Z " fill="#6D6E6F" transform="translate(178,229)"/>
<path d="M0 0 C2 1 2 1 2 1 Z " fill="#6F6F6F" transform="translate(165,229)"/>
<path d="M0 0 C2 1 2 1 2 1 Z " fill="#6F7070" transform="translate(101,229)"/>
<path d="M0 0 C2 1 2 1 2 1 Z " fill="#6F7070" transform="translate(85,229)"/>
<path d="M0 0 C2 1 2 1 2 1 Z " fill="#6D6E6E" transform="translate(74,229)"/>
<path d="M0 0 C2 1 2 1 2 1 Z " fill="#6F6F70" transform="translate(61,229)"/>
<path d="M0 0 C2 1 2 1 2 1 Z " fill="#6C6E6D" transform="translate(41,229)"/>
<path d="M0 0 C2 1 2 1 2 1 Z " fill="#6C6D6D" transform="translate(199,228)"/>
<path d="M0 0 C2 1 2 1 2 1 Z " fill="#6A6A6A" transform="translate(24,228)"/>
<path d="" fill="#68696B" transform="translate(0,0)"/>
<path d="M0 0 C2 1 2 1 2 1 Z " fill="#6E7070" transform="translate(0,186)"/>
<path d="" fill="#727471" transform="translate(0,0)"/>
<path d="" fill="#6C6E6E" transform="translate(0,0)"/>
<path d="" fill="#727373" transform="translate(0,0)"/>
<path d="" fill="#6D6F70" transform="translate(0,0)"/>
<path d="" fill="#737472" transform="translate(0,0)"/>
<path d="" fill="#6C6E6E" transform="translate(0,0)"/>
<path d="M0 0 C2 1 2 1 2 1 Z " fill="#707173" transform="translate(0,36)"/>
<path d="" fill="#656667" transform="translate(0,0)"/>
<path d="" fill="#6A6C6B" transform="translate(0,0)"/>
<path d="" fill="#666867" transform="translate(0,0)"/>
<path d="" fill="#676968" transform="translate(0,0)"/>
<path d="" fill="#696B6A" transform="translate(0,0)"/>
<path d="" fill="#6E6E6F" transform="translate(0,0)"/>
<path d="" fill="#6F6F6E" transform="translate(0,0)"/>
<path d="" fill="#6E706F" transform="translate(0,0)"/>
<path d="" fill="#666767" transform="translate(0,0)"/>
<path d="" fill="#6D6D6C" transform="translate(0,0)"/>
<path d="" fill="#6D6E6D" transform="translate(0,0)"/>
<path d="" fill="#6D6E70" transform="translate(0,0)"/>
<path d="" fill="#716F70" transform="translate(0,0)"/>
<path d="" fill="#6F7070" transform="translate(0,0)"/>
<path d="" fill="#707070" transform="translate(0,0)"/>
<path d="" fill="#6E6E6F" transform="translate(0,0)"/>
<path d="" fill="#6E6F6E" transform="translate(0,0)"/>
<path d="" fill="#6C6C6F" transform="translate(0,0)"/>
<path d="" fill="#707170" transform="translate(0,0)"/>
<path d="" fill="#6F6F70" transform="translate(0,0)"/>
<path d="" fill="#6E6F6E" transform="translate(0,0)"/>
<path d="" fill="#6F6F70" transform="translate(0,0)"/>
<path d="" fill="#70706F" transform="translate(0,0)"/>
<path d="" fill="#706F6F" transform="translate(0,0)"/>
<path d="" fill="#6F706F" transform="translate(0,0)"/>
<path d="" fill="#6F7171" transform="translate(0,0)"/>
<path d="" fill="#70706F" transform="translate(0,0)"/>
<path d="" fill="#6C6D6E" transform="translate(0,0)"/>
<path d="" fill="#6D6C6B" transform="translate(0,0)"/>
<path d="" fill="#6C6C6A" transform="translate(0,0)"/>
<path d="" fill="#6F6E6E" transform="translate(0,0)"/>
<path d="" fill="#6F706F" transform="translate(0,0)"/>
<path d="" fill="#717170" transform="translate(0,0)"/>
<path d="" fill="#6F6E6F" transform="translate(0,0)"/>
<path d="" fill="#727071" transform="translate(0,0)"/>
<path d="" fill="#70706F" transform="translate(0,0)"/>
<path d="" fill="#6F706E" transform="translate(0,0)"/>
<path d="" fill="#686968" transform="translate(0,0)"/>
<path d="" fill="#66696A" transform="translate(0,0)"/>
<path d="" fill="#646768" transform="translate(0,0)"/>
<path d="" fill="#656968" transform="translate(0,0)"/>
<path d="" fill="#696B6D" transform="translate(0,0)"/>
<path d="" fill="#696C6F" transform="translate(0,0)"/>
<path d="" fill="#6D6F6F" transform="translate(0,0)"/>
<path d="" fill="#6E7172" transform="translate(0,0)"/>
<path d="" fill="#6D6F71" transform="translate(0,0)"/>
<path d="" fill="#6D6F71" transform="translate(0,0)"/>
<path d="" fill="#6E7173" transform="translate(0,0)"/>
<path d="" fill="#686B6A" transform="translate(0,0)"/>
<path d="" fill="#686B6B" transform="translate(0,0)"/>
<path d="" fill="#696B6B" transform="translate(0,0)"/>
<path d="" fill="#6E7173" transform="translate(0,0)"/>
<path d="" fill="#696D6E" transform="translate(0,0)"/>
<path d="" fill="#696D6C" transform="translate(0,0)"/>
<path d="" fill="#696D6B" transform="translate(0,0)"/>
<path d="" fill="#6B6E6F" transform="translate(0,0)"/>
<path d="" fill="#6B6F6E" transform="translate(0,0)"/>
<path d="" fill="#6C7170" transform="translate(0,0)"/>
<path d="" fill="#6E716E" transform="translate(0,0)"/>
<path d="" fill="#727571" transform="translate(0,0)"/>
<path d="" fill="#727471" transform="translate(0,0)"/>
<path d="" fill="#727272" transform="translate(0,0)"/>
<path d="" fill="#6C6E6E" transform="translate(0,0)"/>
<path d="" fill="#757374" transform="translate(0,0)"/>
<path d="" fill="#737473" transform="translate(0,0)"/>
<path d="" fill="#6D6F70" transform="translate(0,0)"/>
<path d="" fill="#6C7071" transform="translate(0,0)"/>
<path d="" fill="#707274" transform="translate(0,0)"/>
<path d="" fill="#6D7170" transform="translate(0,0)"/>
<path d="" fill="#717475" transform="translate(0,0)"/>
<path d="" fill="#717273" transform="translate(0,0)"/>
<path d="" fill="#706F72" transform="translate(0,0)"/>
<path d="" fill="#707172" transform="translate(0,0)"/>
<path d="" fill="#6F6E71" transform="translate(0,0)"/>
<path d="" fill="#6B6C6C" transform="translate(0,0)"/>
<path d="" fill="#686B6B" transform="translate(0,0)"/>
<path d="" fill="#6B6D70" transform="translate(0,0)"/>
<path d="" fill="#68696A" transform="translate(0,0)"/>
<path d="" fill="#656869" transform="translate(0,0)"/>
<path d="" fill="#666C6B" transform="translate(0,0)"/>
<path d="" fill="#686869" transform="translate(0,0)"/>
<path d="" fill="#686A6B" transform="translate(0,0)"/>
<path d="" fill="#666868" transform="translate(0,0)"/>
<path d="" fill="#696C6B" transform="translate(0,0)"/>
<path d="" fill="#676B6B" transform="translate(0,0)"/>
<path d="" fill="#68696B" transform="translate(0,0)"/>
<path d="" fill="#696A6C" transform="translate(0,0)"/>
<path d="" fill="#686969" transform="translate(0,0)"/>
<path d="" fill="#6A6A6A" transform="translate(0,0)"/>
<path d="" fill="#707574" transform="translate(0,0)"/>
<path d="" fill="#727274" transform="translate(0,0)"/>
</svg>
