<?xml version="1.0" encoding="UTF-8"?>
<svg version="1.1" xmlns="http://www.w3.org/2000/svg" width="459" height="459">
<path d="M0 0 C2.43774414 2.06542969 2.43774414 2.06542969 4.78515625 4.421875 C5.64560547 5.28296875 6.50605469 6.1440625 7.39257812 7.03125 C8.27365234 7.9284375 9.15472656 8.825625 10.0625 9.75 C10.94744141 10.63171875 11.83238281 11.5134375 12.74414062 12.421875 C24.21005345 23.98240526 30.65377471 35.26266604 31.75390625 51.7421875 C31.7578778 53.96665284 31.7578778 53.96665284 33 55 C34.46331381 76.1101009 29.91788446 95.29098706 16.046875 111.76953125 C14.04061419 113.95574293 11.95605493 116.01161755 9.8125 118.0625 C6.44572906 121.29852255 4.4386341 124.44833989 2.59375 128.7265625 C-2.47676359 135.959501 -10.98096668 138.99300798 -18.875 142.1875 C-20.9383021 143.02683092 -22.9983894 143.87412181 -25.0546875 144.73046875 C-25.95687012 145.09551514 -26.85905273 145.46056152 -27.78857422 145.83666992 C-30.30081765 146.93325589 -30.30081765 146.93325589 -32 150 C-30.845 150.350625 -29.69 150.70125 -28.5 151.0625 C-1.62705323 160.09112871 -1.62705323 160.09112871 5 172 C5.53125 175.65625 5.53125 175.65625 5.5 179.5 C5.51546875 181.40265625 5.51546875 181.40265625 5.53125 183.34375 C4.67038692 189.26851352 1.58294951 193.0756596 -3.08154297 196.74072266 C-7.3229102 199.52476086 -11.96749677 201.56205798 -16.5625 203.6875 C-17.59052734 204.17283203 -18.61855469 204.65816406 -19.67773438 205.15820312 C-24.07879323 207.22610181 -28.47047565 209.22766613 -33 211 C-32.09233887 211.38744385 -31.18467773 211.7748877 -30.24951172 212.17407227 C-26.85307199 213.62972586 -23.46768843 215.10971622 -20.08496094 216.59692383 C-18.62525701 217.23469769 -17.16271509 217.86601961 -15.69726562 218.49047852 C-0.51686132 224.96903662 -0.51686132 224.96903662 4 232 C6.16103225 238.48309675 6.19152216 246.44043388 3.3125 252.625 C-1.64677405 257.71830848 -6.86305196 260.57139941 -13.25 263.5 C-14.05824219 263.87769531 -14.86648438 264.25539063 -15.69921875 264.64453125 C-21.10409376 267.16104106 -26.5446867 269.5950751 -32 272 C-31.1028125 272.4125 -30.205625 272.825 -29.28125 273.25 C-25.91555777 274.80343147 -22.56003107 276.3777584 -19.20800781 277.96044922 C-17.7406369 278.6513012 -16.27123582 279.33785805 -14.79980469 280.02001953 C-12.65090265 281.01947531 -10.5123952 282.03870566 -8.375 283.0625 C-7.71306641 283.36607422 -7.05113281 283.66964844 -6.36914062 283.98242188 C-1.68269293 286.26088928 1.03828672 288.67854103 4 293 C5.98424905 299.24454847 6.18361886 307.75854952 3.875 313.9375 C0.22137889 319.90508115 -5.23718022 322.928026 -11.375 325.875 C-12.06907959 326.21523193 -12.76315918 326.55546387 -13.47827148 326.90600586 C-19.60351873 329.87785184 -25.82988514 332.60151652 -32.08203125 335.29296875 C-36.46974645 337.18916185 -40.78907953 339.21690082 -45.11401367 341.25219727 C-50.01242511 343.55140048 -54.93734492 345.78644603 -59.875 348 C-69.11377106 352.14554347 -78.34158224 356.31491737 -87.5625 360.5 C-88.28310608 360.82695862 -89.00371216 361.15391724 -89.74615479 361.49078369 C-98.68665906 365.54994496 -107.58959592 369.67256837 -116.43896484 373.92749023 C-122.12104064 376.63743297 -127.88808676 379.11531273 -133.6875 381.5625 C-139.78662905 384.13830028 -145.79344095 386.7954513 -151.6875 389.8125 C-158.7763265 393.44077161 -165.96305079 396.83773589 -173.1875 400.1875 C-174.25637451 400.68677002 -175.32524902 401.18604004 -176.42651367 401.70043945 C-198.13279074 411.72090113 -198.13279074 411.72090113 -206.5625 411.625 C-207.69816406 411.63789063 -208.83382812 411.65078125 -210.00390625 411.6640625 C-215.69642197 411.07533653 -220.84696893 408.33201701 -226 406 C-226.98524658 405.56155762 -227.97049316 405.12311523 -228.9855957 404.67138672 C-231.95673353 403.33943788 -234.91725408 401.98641039 -237.875 400.625 C-238.92945313 400.14095703 -239.98390625 399.65691406 -241.0703125 399.15820312 C-246.4257816 396.68822384 -251.74334931 394.17352996 -257 391.5 C-263.84180775 388.02180826 -270.81292709 384.85442953 -277.79785156 381.67529297 C-286.8156609 377.56241286 -295.78655142 373.35456942 -304.75 369.125 C-316.26976078 363.69057536 -327.8050333 358.29299692 -339.36425781 352.94287109 C-345.78435785 349.96768041 -352.19424063 346.97230573 -358.59375 343.953125 C-359.32715103 343.60725342 -360.06055206 343.26138184 -360.81617737 342.9050293 C-364.50372614 341.16544756 -368.19001894 339.423264 -371.87475586 337.67773438 C-378.88085091 334.36503052 -385.90461858 331.14143966 -393.02978516 328.09033203 C-410.40204321 320.61158666 -410.40204321 320.61158666 -414.5625 311.625 C-415.55324417 303.41597686 -415.89819311 296.99653521 -411 290 C-406.28141738 284.97335323 -400.97396793 282.33953548 -394.625 279.875 C-393.01265889 279.227463 -391.40067821 278.57902781 -389.7890625 277.9296875 C-389.0043457 277.61741211 -388.21962891 277.30513672 -387.41113281 276.98339844 C-383.56609468 275.41517106 -379.78198971 273.71373179 -376 272 C-376.90766113 271.61255615 -377.81532227 271.2251123 -378.75048828 270.82592773 C-382.14692801 269.37027414 -385.53231157 267.89028378 -388.91503906 266.40307617 C-390.37474299 265.76530231 -391.83728491 265.13398039 -393.30273438 264.50952148 C-408.43038551 258.05347691 -408.43038551 258.05347691 -413 251 C-413.875 248.625 -413.875 248.625 -414 246 C-414.06058594 245.34257812 -414.12117188 244.68515625 -414.18359375 244.0078125 C-414.52324849 238.05870824 -413.38859357 232.96510501 -410 228 C-405.52200127 223.67014559 -400.89480801 221.32872309 -395.1875 218.9375 C-394.43146484 218.61201172 -393.67542969 218.28652344 -392.89648438 217.95117188 C-391.3770334 217.29701779 -389.85604477 216.64642312 -388.33349609 215.99951172 C-384.53765945 214.37363233 -380.76904252 212.68687157 -377 211 C-378.65953778 210.17023111 -380.31913733 209.34058557 -381.97900391 208.51147461 C-383.42242832 207.78910556 -384.86479578 207.06462106 -386.30615234 206.33813477 C-389.83907184 204.5608212 -393.37651682 202.81085437 -396.96875 201.15625 C-403.73514546 198.00238401 -408.76618956 195.29023265 -413 189 C-415.11937863 182.64186412 -415.33992545 174.62722008 -413 168.29296875 C-407.92694806 160.74944621 -399.04530644 157.50673845 -391 154 C-390.30664551 153.69368652 -389.61329102 153.38737305 -388.89892578 153.07177734 C-384.95218053 151.33280437 -380.98715905 149.64470311 -377 148 C-380.79289679 144.72709712 -385.19621741 143.01571557 -389.75 141.0625 C-407.2246152 133.50472892 -407.2246152 133.50472892 -410.4375 129.5 C-410.91058594 128.9328125 -411.38367188 128.365625 -411.87109375 127.78125 C-414.65627679 123.38663593 -414.58006735 118.03001257 -414 113 C-412.11108616 106.73017153 -408.31510889 102.64495407 -403 99 C-398.68922366 96.76969542 -394.23183353 94.91626637 -389.75 93.0625 C-388.42865627 92.50462084 -387.10786796 91.94542456 -385.78759766 91.38500977 C-382.98296061 90.19629316 -380.17562932 89.01428412 -377.36621094 87.83691406 C-372.97664249 85.99441258 -368.60015924 84.12223875 -364.2265625 82.2421875 C-363.49762283 81.92887985 -362.76868317 81.6155722 -362.01765442 81.29277039 C-360.54210578 80.65845328 -359.06658597 80.02406909 -357.59109497 79.38961792 C-353.90732155 77.80693003 -350.22125681 76.22960239 -346.53515625 74.65234375 C-345.81712326 74.34504837 -345.09909027 74.03775299 -344.35929871 73.72114563 C-341.56306263 72.52449801 -338.76674358 71.32804441 -335.97039795 70.13165283 C-318.96067209 62.87253594 -318.96067209 62.87253594 -302 55.5 C-284.81482069 47.9539437 -267.54197763 40.6159379 -250.19458008 33.45141602 C-244.62588576 31.13761291 -239.12968821 28.72194176 -233.6875 26.125 C-220.11134239 19.67898564 -207.3555952 15.36738484 -192.41455078 20.14697266 C-191.1505889 20.62294876 -189.89011318 21.10825947 -188.6328125 21.6015625 C-187.9445488 21.8658757 -187.2562851 22.1301889 -186.54716492 22.4025116 C-178.55160545 25.50629142 -170.68040212 28.9012145 -162.8125 32.3125 C-161.27457486 32.97595879 -159.73648712 33.63904081 -158.19824219 34.30175781 C-155.17844419 35.60324013 -152.15941936 36.90648737 -149.14111328 38.21142578 C-143.68287909 40.5703936 -138.21679926 42.91096396 -132.75 45.25 C-131.18224311 45.92176169 -129.6145307 46.59362721 -128.046875 47.265625 C-127.36560547 47.55759766 -126.68433594 47.84957031 -125.98242188 48.15039062 C-122.98828125 49.43359375 -119.99414063 50.71679687 -117 52 C-116.72736328 50.48019531 -116.72736328 50.48019531 -116.44921875 48.9296875 C-116.19578418 47.57803647 -115.94185135 46.22647881 -115.6875 44.875 C-115.56955078 44.20984375 -115.45160156 43.5446875 -115.33007812 42.859375 C-112.03770019 25.6377058 -97.05874475 10.13823755 -83.953125 -0.69140625 C-81.18355647 -2.54701716 -78.19593371 -3.1028958 -75 -4 C-71.78775727 -5.71111751 -71.78775727 -5.71111751 -69 -8 C-45.22533386 -12.95331456 -21.67229872 -11.82682466 0 0 Z " fill="#FB8501" transform="translate(420,29)"/>
<path d="M0 0 C2.43774414 2.06542969 2.43774414 2.06542969 4.78515625 4.421875 C5.64560547 5.28296875 6.50605469 6.1440625 7.39257812 7.03125 C8.27365234 7.9284375 9.15472656 8.825625 10.0625 9.75 C10.94744141 10.63171875 11.83238281 11.5134375 12.74414062 12.421875 C24.21005345 23.98240526 30.65377471 35.26266604 31.75390625 51.7421875 C31.7578778 53.96665284 31.7578778 53.96665284 33 55 C34.46331381 76.1101009 29.91788446 95.29098706 16.046875 111.76953125 C14.04061419 113.95574293 11.95605493 116.01161755 9.8125 118.0625 C6.44572906 121.29852255 4.4386341 124.44833989 2.59375 128.7265625 C-2.35491273 135.78568433 -10.68245412 138.93319759 -18.375 142.125 C-19.35210937 142.54136719 -20.32921875 142.95773438 -21.3359375 143.38671875 C-26.83724402 145.72038468 -32.37048985 147.96091558 -37.94042969 150.12548828 C-40.19778554 151.02534043 -40.19778554 151.02534043 -42.875 152.75 C-45 154 -45 154 -49 154 C-49 154.66 -49 155.32 -49 156 C-52.96 156.99 -56.92 157.98 -61 159 C-61 159.66 -61 160.32 -61 161 C-62.03898437 161.37511719 -63.07796875 161.75023437 -64.1484375 162.13671875 C-71.22073102 164.72035234 -78.10237084 167.36381968 -84.7890625 170.8515625 C-90.49941743 173.81771859 -96.41933064 176.17540121 -102.4375 178.4375 C-107.3205739 180.28930749 -111.96634405 182.35683839 -116.5859375 184.7890625 C-119.05284257 186.02650679 -121.56236097 187.12254515 -124.10400391 188.19677734 C-126.05494388 189.02327651 -127.99694165 189.86817905 -129.9375 190.71875 C-130.60523438 191.01136719 -131.27296875 191.30398437 -131.9609375 191.60546875 C-132.63382812 191.90066406 -133.30671875 192.19585937 -134 192.5 C-142.19397379 196.09467433 -150.4049373 199.59773494 -158.74609375 202.83789062 C-161.74689867 204.02177817 -164.3030278 205.20201853 -167 207 C-168.32 207 -169.64 207 -171 207 C-171 207.66 -171 208.32 -171 209 C-173.31 209.33 -175.62 209.66 -178 210 C-178 210.66 -178 211.32 -178 212 C-180.7051896 213.1537724 -183.41374259 214.29814759 -186.125 215.4375 C-186.88554687 215.76298828 -187.64609375 216.08847656 -188.4296875 216.42382812 C-198.02686439 220.43644088 -208.03100308 221.63683776 -218 218 C-220.57784287 216.80992223 -223.09674636 215.54808917 -225.60546875 214.21875 C-228.02886212 212.98530998 -230.46464751 211.98028381 -233 211 C-242.16549751 207.30112013 -251.16550192 203.25955945 -260.16796875 199.18359375 C-265.47836182 196.77942819 -270.80421799 194.41077364 -276.13696289 192.05664062 C-283.55743891 188.7738802 -290.92296836 185.37271433 -298.29296875 181.97851562 C-304.55539277 179.09541071 -304.55539277 179.09541071 -310.87109375 176.33203125 C-313.92511833 175.03187846 -316.9311253 173.65639868 -319.9375 172.25 C-324.20504844 170.26759192 -328.4884895 168.34584219 -332.81079102 166.48632812 C-339.80950093 163.4748086 -346.65796634 160.26423936 -353.42114258 156.75244141 C-357.22212093 154.79981911 -361.03090832 153.17719882 -365.04858398 151.72290039 C-368.08208614 150.59914212 -371.03129332 149.2836754 -374 148 C-375.27834234 147.48169933 -376.55835986 146.96751511 -377.83984375 146.45703125 C-407.55407993 134.5814498 -407.55407993 134.5814498 -413 126 C-414.79853565 120.28157895 -414.9122018 114.32241298 -412.4375 108.8125 C-407.2406103 100.04714862 -398.83662665 96.82089101 -389.75 93.0625 C-388.42865627 92.50462084 -387.10786796 91.94542456 -385.78759766 91.38500977 C-382.98296061 90.19629316 -380.17562932 89.01428412 -377.36621094 87.83691406 C-372.97664249 85.99441258 -368.60015924 84.12223875 -364.2265625 82.2421875 C-363.49762283 81.92887985 -362.76868317 81.6155722 -362.01765442 81.29277039 C-360.54210578 80.65845328 -359.06658597 80.02406909 -357.59109497 79.38961792 C-353.90732155 77.80693003 -350.22125681 76.22960239 -346.53515625 74.65234375 C-345.81712326 74.34504837 -345.09909027 74.03775299 -344.35929871 73.72114563 C-341.56306263 72.52449801 -338.76674358 71.32804441 -335.97039795 70.13165283 C-318.96067209 62.87253594 -318.96067209 62.87253594 -302 55.5 C-284.81482069 47.9539437 -267.54197763 40.6159379 -250.19458008 33.45141602 C-244.62588576 31.13761291 -239.12968821 28.72194176 -233.6875 26.125 C-220.11134239 19.67898564 -207.3555952 15.36738484 -192.41455078 20.14697266 C-191.1505889 20.62294876 -189.89011318 21.10825947 -188.6328125 21.6015625 C-187.9445488 21.8658757 -187.2562851 22.1301889 -186.54716492 22.4025116 C-178.55160545 25.50629142 -170.68040212 28.9012145 -162.8125 32.3125 C-161.27457486 32.97595879 -159.73648712 33.63904081 -158.19824219 34.30175781 C-155.17844419 35.60324013 -152.15941936 36.90648737 -149.14111328 38.21142578 C-143.68287909 40.5703936 -138.21679926 42.91096396 -132.75 45.25 C-131.18224311 45.92176169 -129.6145307 46.59362721 -128.046875 47.265625 C-127.36560547 47.55759766 -126.68433594 47.84957031 -125.98242188 48.15039062 C-122.98828125 49.43359375 -119.99414062 50.71679688 -117 52 C-116.72736328 50.48019531 -116.72736328 50.48019531 -116.44921875 48.9296875 C-116.19578418 47.57803647 -115.94185135 46.22647881 -115.6875 44.875 C-115.56955078 44.20984375 -115.45160156 43.5446875 -115.33007812 42.859375 C-112.03770019 25.6377058 -97.05874475 10.13823755 -83.953125 -0.69140625 C-81.18355647 -2.54701716 -78.19593371 -3.1028958 -75 -4 C-71.78775727 -5.71111751 -71.78775727 -5.71111751 -69 -8 C-45.22533386 -12.95331456 -21.67229872 -11.82682466 0 0 Z " fill="#F62C35" transform="translate(420,29)"/>
<path d="M0 0 C1.56561488 0.72404441 3.13134111 1.44784946 4.69775391 2.17016602 C7.41223612 3.4269981 10.11873812 4.70048571 12.82421875 5.9765625 C14.2780072 6.66039118 15.7337568 7.34006554 17.19140625 8.015625 C19.34326591 9.01648996 21.4846869 10.03721375 23.625 11.0625 C24.61814209 11.51798218 24.61814209 11.51798218 25.63134766 11.98266602 C30.31759146 14.26101772 33.03842934 16.67874914 36 21 C37.98424905 27.24454847 38.18361886 35.75854952 35.875 41.9375 C32.22137889 47.90508115 26.76281978 50.928026 20.625 53.875 C19.93092041 54.21523193 19.23684082 54.55546387 18.52172852 54.90600586 C12.39648127 57.87785184 6.17011486 60.60151652 -0.08203125 63.29296875 C-4.46974645 65.18916185 -8.78907953 67.21690082 -13.11401367 69.25219727 C-18.01242511 71.55140048 -22.93734492 73.78644603 -27.875 76 C-37.11377106 80.14554347 -46.34158224 84.31491737 -55.5625 88.5 C-56.28310608 88.82695862 -57.00371216 89.15391724 -57.74615479 89.49078369 C-66.68665906 93.54994496 -75.58959592 97.67256837 -84.43896484 101.92749023 C-90.12104064 104.63743297 -95.88808676 107.11531273 -101.6875 109.5625 C-107.78662905 112.13830028 -113.79344095 114.7954513 -119.6875 117.8125 C-126.7763265 121.44077161 -133.96305079 124.83773589 -141.1875 128.1875 C-142.25637451 128.68677002 -143.32524902 129.18604004 -144.42651367 129.70043945 C-166.13279074 139.72090113 -166.13279074 139.72090113 -174.5625 139.625 C-175.69816406 139.63789063 -176.83382812 139.65078125 -178.00390625 139.6640625 C-183.69642197 139.07533653 -188.84696893 136.33201701 -194 134 C-194.98524658 133.56155762 -195.97049316 133.12311523 -196.9855957 132.67138672 C-199.95673353 131.33943788 -202.91725408 129.98641039 -205.875 128.625 C-206.92945313 128.14095703 -207.98390625 127.65691406 -209.0703125 127.15820312 C-214.4257816 124.68822384 -219.74334931 122.17352996 -225 119.5 C-231.84180775 116.02180826 -238.81292709 112.85442953 -245.79785156 109.67529297 C-254.8156609 105.56241286 -263.78655142 101.35456942 -272.75 97.125 C-284.26976078 91.69057536 -295.8050333 86.29299692 -307.36425781 80.94287109 C-313.78435785 77.96768041 -320.19424063 74.97230573 -326.59375 71.953125 C-327.69385155 71.43431763 -327.69385155 71.43431763 -328.81617737 70.9050293 C-332.50372614 69.16544756 -336.19001894 67.423264 -339.87475586 65.67773438 C-346.88085091 62.36503052 -353.90461858 59.14143966 -361.02978516 56.09033203 C-378.40204321 48.61158666 -378.40204321 48.61158666 -382.5625 39.625 C-383.55337706 31.41487575 -383.89712468 24.9979125 -379 18 C-374.24125539 12.91454771 -368.85017633 10.29596381 -362.4375 7.8125 C-360.78964878 7.15413255 -359.14249598 6.49401392 -357.49609375 5.83203125 C-356.32409424 5.37111084 -356.32409424 5.37111084 -355.12841797 4.90087891 C-352.79825226 3.96502669 -352.79825226 3.96502669 -349.97265625 2.26171875 C-344.29300696 -0.14896025 -340.19593361 0.19599897 -334.53125 2.27001953 C-330.2908718 4.06656585 -326.14925487 6.06686955 -322 8.0625 C-320.44748998 8.79320399 -318.89408771 9.52201493 -317.33984375 10.24902344 C-314.13472217 11.74978929 -310.93333425 13.25811871 -307.734375 14.77197266 C-301.20658372 17.85352311 -294.63548384 20.83864742 -288.05996704 23.81665039 C-285.99377994 24.75281825 -283.92877509 25.69155179 -281.86401367 26.63085938 C-273.36907757 30.49237253 -264.8487173 34.29296687 -256.3125 38.0625 C-246.81723156 42.25657306 -237.39531393 46.58828999 -228 51 C-217.99805072 55.6950741 -207.96629875 60.31232623 -197.875 64.8125 C-196.73675781 65.32232422 -195.59851563 65.83214844 -194.42578125 66.35742188 C-193.37519531 66.82341797 -192.32460937 67.28941406 -191.2421875 67.76953125 C-189.86329346 68.38211792 -189.86329346 68.38211792 -188.45654297 69.00708008 C-179.34131491 72.69140054 -169.48789439 72.36600386 -160.48071289 68.69604492 C-157.21178518 67.25838492 -153.97017564 65.76716766 -150.73583984 64.25341797 C-146.7875193 62.44450509 -142.78089234 60.78474486 -138.77246094 59.11425781 C-127.83205092 54.55330502 -116.97845999 49.80831024 -106.15771484 44.97143555 C-96.55754611 40.68212852 -86.93156538 36.45329619 -77.30026245 32.23440552 C-64.30196403 26.54046785 -51.31624274 20.82254731 -38.375 15 C-33.91741273 12.99833359 -29.45899998 10.99851726 -25 9 C-23.87190918 8.4937207 -22.74381836 7.98744141 -21.58154297 7.46582031 C-18.32891033 6.01033848 -15.07158052 4.56597515 -11.8125 3.125 C-10.84296387 2.68929688 -9.87342773 2.25359375 -8.87451172 1.8046875 C-7.99424316 1.41796875 -7.11397461 1.03125 -6.20703125 0.6328125 C-5.4385083 0.29137207 -4.66998535 -0.05006836 -3.87817383 -0.40185547 C-2 -1 -2 -1 0 0 Z " fill="#0396D0" transform="translate(388,301)"/>
<path d="M0 0 C0.6484639 0.29789429 1.2969278 0.59578857 1.96504211 0.90270996 C4.08334877 1.87896551 6.19384722 2.8709993 8.3046875 3.86328125 C9.77694335 4.54506801 11.24968726 5.22580179 12.72290039 5.90551758 C16.48449392 7.64431309 20.23984327 9.39613079 23.99310303 11.15283203 C28.03996228 13.0460731 32.09077726 14.93083052 36.14202881 16.81465149 C39.10322219 18.19172667 42.06249001 19.57257023 45.01806641 20.96166992 C50.62151457 23.58411765 56.24037191 26.03817805 62.0012207 28.29272461 C64.94295266 29.48517608 67.74012794 30.8981185 70.5546875 32.36328125 C76.92989764 35.62087543 83.41855075 38.57642114 89.95727539 41.48925781 C97.00024166 44.63111124 103.99818242 47.86410594 110.9921875 51.11328125 C119.64092076 55.12019846 128.31880406 59.04982731 137.0546875 62.86328125 C138.01737549 63.28536865 138.98006348 63.70745605 139.97192383 64.14233398 C141.30839966 64.72156616 141.30839966 64.72156616 142.671875 65.3125 C143.83759033 65.81849731 143.83759033 65.81849731 145.02685547 66.3347168 C155.27808737 70.3396492 166.25358079 68.91374522 176.09765625 64.65234375 C179.9908015 62.78718671 183.84374563 60.85516622 187.68359375 58.8828125 C192.79212352 56.38848009 198.02402986 54.20963983 203.2590332 51.99633789 C212.58796168 48.036848 221.82358772 43.87469577 231.05444336 39.69311523 C236.99718945 37.01062853 242.94924666 34.4282324 249.01831055 32.0456543 C252.07085722 30.81711891 255.02683993 29.41291442 257.9921875 27.98828125 C264.1989721 25.04107541 270.48123736 22.30017055 276.8046875 19.61328125 C282.3797766 17.24309276 287.94133354 14.86743735 293.4296875 12.30078125 C299.99398 9.23164847 306.61505603 6.29397108 313.2421875 3.36328125 C314.90459473 2.62392334 314.90459473 2.62392334 316.60058594 1.86962891 C317.64891602 1.40733887 318.69724609 0.94504883 319.77734375 0.46875 C321.19285522 -0.15737183 321.19285522 -0.15737183 322.63696289 -0.79614258 C329.59347172 -3.60880304 333.26049936 -1.60302295 340.04736328 1.2734375 C341.57589074 1.92027028 343.10864257 2.55715531 344.64404297 3.1875 C347.31147976 4.28681931 349.96501617 5.41517499 352.6171875 6.55078125 C353.46925781 6.90124512 354.32132812 7.25170898 355.19921875 7.61279297 C360.85558885 10.09414618 364.79261935 12.93541166 368.1796875 18.17578125 C370.34071975 24.658878 370.37120966 32.61621513 367.4921875 38.80078125 C362.69279595 43.72988609 357.66270966 46.62600964 351.4921875 49.48828125 C350.65421631 49.88144531 349.81624512 50.27460938 348.95288086 50.6796875 C342.72808554 53.55869185 336.41593876 56.09856561 330.00292969 58.52197266 C321.82533042 61.63581877 313.90791911 65.28245371 305.95117188 68.91601562 C300.977485 71.17678239 295.98493248 73.39499283 290.9921875 75.61328125 C289.88818604 76.10401123 288.78418457 76.59474121 287.64672852 77.1003418 C275.22144594 82.61440894 262.76961485 88.06806098 250.31933594 93.52539062 C240.44520791 97.85493935 230.58548194 102.214105 220.7421875 106.61328125 C209.91656495 111.44405203 199.03302379 116.12533708 188.08984375 120.68359375 C184.46037902 122.19804666 180.86727161 123.76090184 177.30078125 125.41796875 C167.55507069 129.87945812 157.98253205 132.71933015 147.42504883 129.27783203 C138.20171387 125.84259939 129.29491737 121.67934006 120.3671875 117.55078125 C118.80219153 116.8309679 117.23700336 116.11157228 115.67163086 115.39257812 C111.17222449 113.32483719 106.67560651 111.25109162 102.1796875 109.17578125 C98.2014991 107.34031394 94.22270034 105.50620254 90.2421875 103.67578125 C89.32074951 103.25184082 88.39931152 102.82790039 87.44995117 102.39111328 C81.59587698 99.70900515 75.72096474 97.07705645 69.83203125 94.47265625 C69.09233597 94.14551132 68.35264069 93.81836639 67.5905304 93.48130798 C66.0614565 92.80520416 64.53236795 92.12913345 63.00326538 91.45309448 C62.23648468 91.11408112 61.46970398 90.77506775 60.6796875 90.42578125 C59.91621002 90.08829865 59.15273254 89.75081604 58.36611938 89.40310669 C45.87408871 83.87560263 33.47348309 78.17309909 21.13476562 72.31152344 C14.67031108 69.24493336 8.18114621 66.25030555 1.6328125 63.3671875 C0.97690125 63.07682114 0.32098999 62.78645477 -0.35479736 62.48728943 C-4.12627198 60.84042996 -7.91730142 59.47017978 -11.8203125 58.17578125 C-16.31286834 56.34149141 -20.75211455 54.39486686 -25.18798828 52.42797852 C-26.60625413 51.80296074 -28.02782845 51.18539573 -29.45263672 50.57543945 C-44.18807957 44.26292415 -44.18807957 44.26292415 -48.8203125 37.17578125 C-49.6953125 34.80078125 -49.6953125 34.80078125 -49.8203125 32.17578125 C-49.88089844 31.51835937 -49.94148438 30.8609375 -50.00390625 30.18359375 C-50.34356099 24.23448949 -49.20890607 19.14088626 -45.8203125 14.17578125 C-41.34231377 9.84592684 -36.71512051 7.50450434 -31.0078125 5.11328125 C-30.25177734 4.78779297 -29.49574219 4.46230469 -28.71679688 4.12695312 C-27.1907457 3.46995752 -25.66191446 2.81938173 -24.13037109 2.17529297 C-22.5569609 1.49451287 -20.99739256 0.78103074 -19.45166016 0.03955078 C-18.68257324 -0.3267041 -17.91348633 -0.69295898 -17.12109375 -1.0703125 C-16.43829346 -1.40603271 -15.75549316 -1.74175293 -15.05200195 -2.08764648 C-9.37215777 -3.9622871 -5.25094523 -2.44296277 0 0 Z " fill="#5DA71B" transform="translate(55.8203125,242.82421875)"/>
<path d="M0 0 C2.43774414 2.06542969 2.43774414 2.06542969 4.78515625 4.421875 C5.64560547 5.28296875 6.50605469 6.1440625 7.39257812 7.03125 C8.71418945 8.37703125 8.71418945 8.37703125 10.0625 9.75 C10.94744141 10.63171875 11.83238281 11.5134375 12.74414062 12.421875 C24.21005345 23.98240526 30.65377471 35.26266604 31.75390625 51.7421875 C31.7578778 53.96665284 31.7578778 53.96665284 33 55 C34.45987593 76.06050518 29.95453022 95.32710465 16.05859375 111.7421875 C12.82504084 115.28866489 9.46542117 118.68100508 6 122 C5.34 122.66 4.68 123.32 4 124 C2.68383878 124.69995847 1.34599019 125.35927179 0 126 C-1.0003125 126.52335938 -2.000625 127.04671875 -3.03125 127.5859375 C-21.35944583 137.03899346 -41.60600055 141.74604656 -62 136 C-70.29065717 133.32396571 -77.79024403 129.89104048 -85 125 C-85.75925781 124.48824219 -86.51851563 123.97648438 -87.30078125 123.44921875 C-102.64835022 112.34277419 -112.43905926 94.79124793 -116.3125 76.5 C-117.4913339 69.01551685 -118.25094598 60.32908013 -116 53 C-116.66 52.67 -117.32 52.34 -118 52 C-117.525625 50.824375 -117.05125 49.64875 -116.5625 48.4375 C-115.49633921 45.62581085 -114.91697594 43.39807555 -114.5 40.375 C-112.17214997 24.66201229 -95.67314574 8.99326738 -83.953125 -0.69140625 C-81.18355647 -2.54701716 -78.19593371 -3.1028958 -75 -4 C-71.78775727 -5.71111751 -71.78775727 -5.71111751 -69 -8 C-45.22533386 -12.95331456 -21.67229872 -11.82682466 0 0 Z " fill="#FCFCFC" transform="translate(420,29)"/>
<path d="M0 0 C0.6484639 0.29789429 1.2969278 0.59578857 1.96504211 0.90270996 C4.08334877 1.87896551 6.19384722 2.8709993 8.3046875 3.86328125 C9.77694335 4.54506801 11.24968726 5.22580179 12.72290039 5.90551758 C16.48449392 7.64431309 20.23984327 9.39613079 23.99310303 11.15283203 C28.03996228 13.0460731 32.09077726 14.93083052 36.14202881 16.81465149 C39.10322219 18.19172667 42.06249001 19.57257023 45.01806641 20.96166992 C50.62151457 23.58411765 56.24037191 26.03817805 62.0012207 28.29272461 C64.94295266 29.48517608 67.74012794 30.8981185 70.5546875 32.36328125 C76.92989764 35.62087543 83.41855075 38.57642114 89.95727539 41.48925781 C97.00024166 44.63111124 103.99818242 47.86410594 110.9921875 51.11328125 C119.64092076 55.12019846 128.31880406 59.04982731 137.0546875 62.86328125 C138.01737549 63.28536865 138.98006348 63.70745605 139.97192383 64.14233398 C141.30839966 64.72156616 141.30839966 64.72156616 142.671875 65.3125 C143.83759033 65.81849731 143.83759033 65.81849731 145.02685547 66.3347168 C155.27808737 70.3396492 166.25358079 68.91374522 176.09765625 64.65234375 C179.9908015 62.78718671 183.84374563 60.85516622 187.68359375 58.8828125 C192.79212352 56.38848009 198.02402986 54.20963983 203.2590332 51.99633789 C212.58796168 48.036848 221.82358772 43.87469577 231.05444336 39.69311523 C236.99718945 37.01062853 242.94924666 34.4282324 249.01831055 32.0456543 C252.07085722 30.81711891 255.02683993 29.41291442 257.9921875 27.98828125 C264.1989721 25.04107541 270.48123736 22.30017055 276.8046875 19.61328125 C282.3797766 17.24309276 287.94133354 14.86743735 293.4296875 12.30078125 C299.99398 9.23164847 306.61505603 6.29397108 313.2421875 3.36328125 C314.90459473 2.62392334 314.90459473 2.62392334 316.60058594 1.86962891 C317.64891602 1.40733887 318.69724609 0.94504883 319.77734375 0.46875 C321.19285522 -0.15737183 321.19285522 -0.15737183 322.63696289 -0.79614258 C329.58393283 -3.60494627 333.25839948 -1.60967042 340.03857422 1.26025391 C340.7451416 1.56237793 341.45170898 1.86450195 342.1796875 2.17578125 C343.00355957 2.52560059 343.82743164 2.87541992 344.67626953 3.23583984 C347.37158024 4.38857309 350.05802741 5.55983397 352.7421875 6.73828125 C354.04542969 7.30168213 354.04542969 7.30168213 355.375 7.87646484 C363.37609568 11.45285444 363.37609568 11.45285444 366.1796875 15.17578125 C366.6796875 18.23828125 366.6796875 18.23828125 366.1796875 21.17578125 C364.4921875 23.11328125 364.4921875 23.11328125 362.1796875 24.17578125 C358.04271437 24.06086533 354.76615606 22.01206686 351.2421875 20.015625 C347.82936711 18.62593488 345.20109636 18.83639939 341.734375 19.98828125 C340.85007812 20.38015625 339.96578125 20.77203125 339.0546875 21.17578125 C337.49041016 21.85640625 337.49041016 21.85640625 335.89453125 22.55078125 C335.31171387 22.80730469 334.72889648 23.06382812 334.12841797 23.328125 C331.13526211 24.63008405 328.12024628 25.87895162 325.10791016 27.13574219 C319.09102751 29.64818289 313.09330212 32.17684131 307.1796875 34.92578125 C303.70803621 36.53551137 300.22850749 37.91006131 296.6171875 39.17578125 C292.03444238 40.78822861 287.81292635 42.79504134 283.50390625 45.02734375 C281.45514783 46.03967144 279.45782708 46.85857253 277.3046875 47.61328125 C272.68781319 49.24881365 268.42693499 51.53962235 264.0703125 53.76171875 C261.70598104 54.91832414 259.40292984 55.91469837 256.9296875 56.80078125 C253.49995037 58.05835153 250.4146179 59.53902026 247.1796875 61.20703125 C244.5726263 62.46982652 241.89153163 63.42007025 239.16796875 64.3984375 C237.15255999 65.1863871 235.28366873 66.1101536 233.3671875 67.11328125 C230.1910319 68.75762952 226.99450608 69.99925633 223.6171875 71.17578125 C220.44088883 72.29118929 217.54866483 73.41449061 214.6796875 75.17578125 C211.89929404 76.87564266 209.1324368 77.97756031 206.0546875 79.05078125 C197.73206844 81.96198545 189.84062207 85.80275423 181.9921875 89.80078125 C180.77982422 90.39826172 180.77982422 90.39826172 179.54296875 91.0078125 C178.00489516 91.76795135 176.48014818 92.55588492 174.97265625 93.375 C165.69661704 97.87869876 155.49314744 98.36089255 145.81494141 95.01123047 C138.22810498 91.93858733 130.8677585 88.4055981 123.52246094 84.79980469 C119.16525314 82.68293745 114.74721079 80.73001827 110.3046875 78.80078125 C104.40472575 76.19540229 98.55356189 73.4972947 92.71923828 70.74853516 C88.23866634 68.64643505 83.72038197 66.64425558 79.1796875 64.67578125 C68.8926356 60.20883829 58.74379557 55.50056168 48.7421875 50.42578125 C45.13989144 48.60639887 41.60201523 46.85768794 37.8046875 45.48828125 C35.12715064 44.51882825 32.81124826 43.53134831 30.3046875 42.23828125 C27.47739014 40.78096775 24.6530363 39.55446048 21.6796875 38.42578125 C17.08402356 36.63975517 12.7494759 34.48312107 8.3671875 32.23828125 C2.34876577 29.16418461 -3.69697574 26.51927368 -10.05859375 24.2109375 C-12.33366254 23.35818894 -14.41244867 22.40193373 -16.5703125 21.30078125 C-20.93382578 19.79033434 -24.38170421 19.97365817 -28.8203125 21.17578125 C-30.15137241 21.91410354 -31.46472187 22.68531368 -32.7578125 23.48828125 C-35.48914359 25.03879445 -36.42398329 25.26732932 -39.54296875 24.546875 C-42.047265 23.53599873 -44.4377274 22.44519134 -46.8203125 21.17578125 C-46.65097519 16.85767987 -46.4402042 14.79083761 -43.31640625 11.69140625 C-39.54782197 8.74839078 -35.39414283 6.95104685 -31.0078125 5.11328125 C-30.25177734 4.78779297 -29.49574219 4.46230469 -28.71679688 4.12695312 C-27.1907457 3.46995752 -25.66191446 2.81938173 -24.13037109 2.17529297 C-22.5569609 1.49451287 -20.99739256 0.78103074 -19.45166016 0.03955078 C-18.68257324 -0.3267041 -17.91348633 -0.69295898 -17.12109375 -1.0703125 C-16.43829346 -1.40603271 -15.75549316 -1.74175293 -15.05200195 -2.08764648 C-9.37215777 -3.9622871 -5.25094523 -2.44296277 0 0 Z " fill="#4DA30E" transform="translate(55.8203125,242.82421875)"/>
<path d="M0 0 C2.28687473 0.86907172 4.47023438 1.790389 6.6875 2.8125 C11.43396858 4.95886227 15.97907309 6.67870344 21 8 C21 8.66 21 9.32 21 10 C22.051875 10.28875 23.10375 10.5775 24.1875 10.875 C27.22818711 11.77225193 30.08712344 12.76423419 33 14 C33 14.66 33 15.32 33 16 C33.77472656 16.226875 34.54945312 16.45375 35.34765625 16.6875 C40.22767085 18.4411737 44.78483231 20.71921384 49.4375 23 C60.625801 28.42836352 71.89013399 33.67803089 83.1875 38.875 C86.56256424 40.42824585 89.93755941 41.98164172 93.3125 43.53515625 C94.13840637 43.91526352 94.96431274 44.29537079 95.81524658 44.68699646 C103.4512503 48.20340277 111.07190164 51.75216096 118.6875 55.3125 C119.90786278 55.88268147 121.1282403 56.4528314 122.34863281 57.02294922 C124.73051483 58.13580632 127.1123516 59.24876028 129.49414062 60.36181641 C146.96293321 68.52446253 164.4623787 76.60594467 182.05053711 84.5078125 C182.68608017 84.79360672 183.32162323 85.07940094 183.97642517 85.37385559 C185.69875827 86.1480889 187.42162603 86.92113249 189.14453125 87.6940918 C190.82966096 88.46476201 192.50141144 89.2684515 194.13500977 90.14306641 C201.56707205 93.55798179 213.26181039 92.18059154 220.72265625 89.55078125 C225.14853796 87.74607954 229.4377091 85.65739922 233.73193359 83.56201172 C237.43327818 81.79290947 241.17071883 80.12380103 244.92578125 78.47265625 C245.63544037 78.16045135 246.34509949 77.84824646 247.07626343 77.52658081 C248.55973066 76.87418432 250.04326271 76.22193521 251.52685547 75.56982422 C255.42562015 73.85156924 259.31654115 72.1157987 263.20703125 70.37890625 C264.00557526 70.02240997 264.80411926 69.6659137 265.62686157 69.2986145 C275.60391887 64.84080161 285.5666538 60.35111487 295.52874756 55.85998535 C306.73613767 50.80758647 317.95698363 45.78724682 329.19613647 40.8059082 C350.85986402 31.20419728 372.51801697 21.56799866 393.91015625 11.37231445 C398.20161218 9.33858246 402.54136658 7.51293593 406.97265625 5.80859375 C409.7448143 4.70293534 412.36021653 3.38935972 415 2 C417.65210177 4.65210177 417.29859444 5.99325599 417.3125 9.6875 C417.2044706 15.00000484 416.77761437 18.46322987 414 23 C409.84698503 26.8293241 405.69762363 29.43946255 400.625 31.875 C399.93092041 32.21523193 399.23684082 32.55546387 398.52172852 32.90600586 C392.39648127 35.87785184 386.17011486 38.60151652 379.91796875 41.29296875 C375.53025355 43.18916185 371.21092047 45.21690082 366.88598633 47.25219727 C361.98757489 49.55140048 357.06265508 51.78644603 352.125 54 C342.88622894 58.14554347 333.65841776 62.31491737 324.4375 66.5 C323.71689392 66.82695862 322.99628784 67.15391724 322.25384521 67.49078369 C313.31334094 71.54994496 304.41040408 75.67256837 295.56103516 79.92749023 C289.87895936 82.63743297 284.11191324 85.11531273 278.3125 87.5625 C272.21337095 90.13830028 266.20655905 92.7954513 260.3125 95.8125 C253.2236735 99.44077161 246.03694921 102.83773589 238.8125 106.1875 C237.74362549 106.68677002 236.67475098 107.18604004 235.57348633 107.70043945 C213.86720926 117.72090113 213.86720926 117.72090113 205.4375 117.625 C203.73400391 117.64433594 203.73400391 117.64433594 201.99609375 117.6640625 C196.30357803 117.07533653 191.15303107 114.33201701 186 112 C185.01475342 111.56155762 184.02950684 111.12311523 183.0144043 110.67138672 C180.04326647 109.33943788 177.08274592 107.98641039 174.125 106.625 C173.07054687 106.14095703 172.01609375 105.65691406 170.9296875 105.15820312 C165.5742184 102.68822384 160.25665069 100.17352996 155 97.5 C148.15819225 94.02180826 141.18707291 90.85442953 134.20214844 87.67529297 C125.1843391 83.56241286 116.21344858 79.35456942 107.25 75.125 C95.73023922 69.69057536 84.1949667 64.29299692 72.63574219 58.94287109 C66.21564215 55.96768041 59.80575937 52.97230573 53.40625 49.953125 C52.30614845 49.43431763 52.30614845 49.43431763 51.18382263 48.9050293 C47.49627386 47.16544756 43.80998106 45.423264 40.12524414 43.67773438 C33.11914909 40.36503052 26.09538142 37.14143966 18.97021484 34.09033203 C1.59795679 26.61158666 1.59795679 26.61158666 -2.5625 17.625 C-3.2400573 12.01095376 -3.80702383 6.42107149 -2 1 C-1.34 0.67 -0.68 0.34 0 0 Z " fill="#0782D4" transform="translate(8,323)"/>
<path d="M0 0 C0.67546875 0.32871094 1.3509375 0.65742188 2.046875 0.99609375 C2.96984375 1.41761719 3.8928125 1.83914063 4.84375 2.2734375 C7.04602809 3.28594828 9.24237078 4.31143777 11.43359375 5.34765625 C15.20063294 7.06624062 19.004906 8.61322124 22.859375 10.12109375 C28.0686561 12.16696351 33.10851207 14.36082384 38.046875 16.99609375 C42.40398622 19.31137879 46.68710651 21.26500146 51.359375 22.87109375 C56.33657377 24.61760039 60.78295893 26.89410547 65.34375 29.53125 C70.19163025 32.15835274 75.31868122 34.10790514 80.43725586 36.1394043 C89.87772293 39.91721699 99.01341979 44.25354819 108.14013672 48.73217773 C113.62105409 51.40964742 119.10410426 53.88783845 124.78881836 56.09985352 C128.04778244 57.39336169 131.19046403 58.86947409 134.359375 60.37109375 C135.64316206 60.975403 136.92701763 61.57956671 138.2109375 62.18359375 C139.48964655 62.78762661 140.76829297 63.39179207 142.046875 63.99609375 C144.44037562 65.12625421 146.8364575 66.25026939 149.234375 67.37109375 C150.25917969 67.85320312 151.28398437 68.3353125 152.33984375 68.83203125 C154.59522905 69.80187948 156.65092492 70.50432357 159.046875 70.99609375 C159.046875 71.65609375 159.046875 72.31609375 159.046875 72.99609375 C160.18125 73.14046875 161.315625 73.28484375 162.484375 73.43359375 C166.046875 73.99609375 166.046875 73.99609375 167.046875 74.99609375 C178.69377224 75.7249008 188.49784384 74.79279301 198.8671875 69.05859375 C200.83406274 68.09983019 202.76137316 67.35237726 204.81640625 66.609375 C208.92337346 65.09792768 212.73501333 63.20672459 216.609375 61.18359375 C223.15811315 57.83223077 229.78306075 54.96633814 236.64453125 52.3203125 C242.51853092 50.03410597 248.24085974 47.4653763 253.93359375 44.765625 C256.046875 43.99609375 256.046875 43.99609375 260.046875 43.99609375 C260.046875 43.33609375 260.046875 42.67609375 260.046875 41.99609375 C269.76372487 37.85729264 279.46043259 33.72755093 289.3828125 30.1015625 C292.06411944 29.07118517 292.06411944 29.07118517 294.40625 27.54296875 C298.38059886 25.21479989 302.65392023 23.85387846 306.98828125 22.33398438 C310.42770519 21.09251611 313.60096393 19.76221814 316.7578125 17.90625 C319.49512452 16.31652841 321.79030327 15.25600671 324.796875 14.37109375 C327.74312164 13.49546101 329.41616458 12.7499007 332.046875 10.99609375 C333.366875 10.99609375 334.686875 10.99609375 336.046875 10.99609375 C336.046875 10.33609375 336.046875 9.67609375 336.046875 8.99609375 C337.01367188 8.609375 337.98046875 8.22265625 338.9765625 7.82421875 C339.91544312 7.44837646 339.91544312 7.44837646 340.87329102 7.06494141 C342.24563798 6.51639514 343.61852856 5.96920703 344.99194336 5.42333984 C348.02877436 4.21461177 351.05348326 2.99326531 354.05859375 1.70703125 C358.56530172 -0.21159787 362.03748642 -1.53121031 367.046875 -1.00390625 C367.046875 -0.34390625 367.046875 0.31609375 367.046875 0.99609375 C368.160625 1.30546875 369.274375 1.61484375 370.421875 1.93359375 C374.046875 2.99609375 374.046875 2.99609375 376.046875 3.99609375 C376.046875 4.98609375 376.046875 5.97609375 376.046875 6.99609375 C375.30401245 7.3204541 375.30401245 7.3204541 374.54614258 7.65136719 C368.7958291 10.18287841 363.10686508 12.8338927 357.42285156 15.51049805 C344.21115833 21.73125945 330.92522868 27.76368039 317.56948853 33.66833496 C302.91936998 40.14558507 288.31994982 46.73128846 273.73339844 53.3503418 C263.5253811 57.9809571 253.29921805 62.56766608 243.05065918 67.10784912 C240.11955141 68.40716107 237.19063809 69.71138875 234.26171875 71.015625 C222.86397457 76.08790557 211.46128906 81.14892516 200.046875 86.18359375 C198.98460693 86.65321533 197.92233887 87.12283691 196.82788086 87.60668945 C195.84827393 88.03812256 194.86866699 88.46955566 193.859375 88.9140625 C192.56966797 89.48290161 192.56966797 89.48290161 191.25390625 90.06323242 C181.25923112 94.28775163 170.2936962 93.88411024 160.29298401 89.9281311 C151.68857674 86.31097198 143.33335181 82.13604247 134.98937988 77.96130371 C131.1008905 76.02915481 127.17421667 74.17667713 123.25366211 72.31079102 C120.21965424 70.8640744 117.19337272 69.40211206 114.16796875 67.9375 C95.96513393 59.15668906 77.53665253 50.83767011 59.17056274 42.4050293 C48.60249321 37.55251257 38.03688705 32.69486564 27.484375 27.80859375 C26.39253906 27.30457031 25.30070312 26.80054688 24.17578125 26.28125 C17.06534648 22.9831431 10.03905589 19.53783118 3.046875 15.99609375 C3.046875 15.33609375 3.046875 14.67609375 3.046875 13.99609375 C2.34820312 13.79113281 1.64953125 13.58617187 0.9296875 13.375 C0.01960938 13.10558594 -0.89046875 12.83617187 -1.828125 12.55859375 C-2.73304687 12.29175781 -3.63796875 12.02492188 -4.5703125 11.75 C-6.953125 10.99609375 -6.953125 10.99609375 -8.953125 9.99609375 C-8.953125 9.33609375 -8.953125 8.67609375 -8.953125 7.99609375 C-10.603125 7.66609375 -12.253125 7.33609375 -13.953125 6.99609375 C-13.953125 6.00609375 -13.953125 5.01609375 -13.953125 3.99609375 C-5.02223095 -2.03884146 -5.02223095 -2.03884146 0 0 Z " fill="#84E2F9" transform="translate(37.953125,323.00390625)"/>
<path d="M0 0 C3 2.5625 3 2.5625 5 5 C4 8 4 8 0.57421875 9.91796875 C-1.04911585 10.6863621 -2.67870473 11.44160684 -4.3125 12.1875 C-5.2305542 12.61546875 -6.1486084 13.0434375 -7.09448242 13.484375 C-18.2587501 18.65053576 -29.52207884 23.60388653 -40.77258301 28.57862854 C-51.80913539 33.45957732 -62.81329895 38.41055541 -73.8125 43.375 C-85.4448096 48.62393697 -97.09324472 53.82112595 -108.81274414 58.87304688 C-114.8543174 61.482778 -120.81439121 64.22485141 -126.765625 67.03515625 C-141.33424455 73.85009742 -156.12849571 80.20670293 -170.875 86.625 C-171.82503906 87.03854736 -172.77507812 87.45209473 -173.75390625 87.87817383 C-178.73825916 90.04063716 -178.73825916 90.04063716 -181 91 C-181.85094238 91.36279053 -182.70188477 91.72558105 -183.57861328 92.09936523 C-186.78493172 93.29195535 -189.58343054 93.3759728 -193 93.4375 C-194.19625 93.47746094 -195.3925 93.51742187 -196.625 93.55859375 C-207.19196407 92.84242657 -217.77007985 86.38476481 -227.1875 81.9375 C-228.40926848 81.36472914 -229.63127922 80.79247481 -230.85351562 80.22070312 C-232.73131919 79.34212814 -234.60895336 78.46320881 -236.48580933 77.58261108 C-242.64409408 74.69324473 -248.82101811 71.84480459 -255 69 C-275.17666905 59.69438767 -295.32363952 50.33009775 -315.4196167 40.85168457 C-328.23765218 34.80782144 -341.09773111 28.86225778 -354 23 C-354 22.34 -354 21.68 -354 21 C-354.886875 20.896875 -355.77375 20.79375 -356.6875 20.6875 C-360.0934675 19.98060109 -362.09073815 18.83742853 -365 17 C-367.19130534 16.30420546 -367.19130534 16.30420546 -369 16 C-369 15.34 -369 14.68 -369 14 C-369.70511719 13.89816406 -370.41023438 13.79632813 -371.13671875 13.69140625 C-374.41059645 12.90085188 -376.88584467 11.59476266 -379.8125 9.9375 C-380.78832031 9.38964844 -381.76414062 8.84179688 -382.76953125 8.27734375 C-383.50558594 7.85582031 -384.24164063 7.43429687 -385 7 C-379.24742268 0.92783505 -379.24742268 0.92783505 -376 0 C-370.48671788 0.26253724 -367.70851359 1.12578465 -363 4 C-361.4110585 4.60417039 -359.80521652 5.16524506 -358.1875 5.6875 C-352.52520962 7.67159097 -347.31535762 10.27105664 -341.98852539 13 C-336.99842203 15.54218406 -331.93927478 17.75614552 -326.7421875 19.84765625 C-323.2457211 21.31696906 -319.89885178 23.01798257 -316.546875 24.7890625 C-314.43068061 25.79522854 -312.36994751 26.61747421 -310.171875 27.4140625 C-306.11274204 28.90569442 -302.33375355 30.75962186 -298.5 32.75 C-291.154204 36.49078732 -283.68286163 39.82134984 -276.11474609 43.08154297 C-272.41584539 44.68801543 -268.73905782 46.34316259 -265.0625 48 C-264.25731934 48.36270996 -263.45213867 48.72541992 -262.62255859 49.09912109 C-256.37284434 51.91949897 -250.13057208 54.75620878 -243.89083862 57.59858704 C-240.26927311 59.24798726 -236.64577075 60.89281077 -233.01757812 62.52758789 C-221.17667268 67.86990865 -221.17667268 67.86990865 -215.51171875 70.7421875 C-204.33446268 76.3331746 -193.76840559 78.50386693 -181.484375 74.99609375 C-178.54305783 73.81734981 -175.78891189 72.50039136 -173 71 C-171.6881606 70.35282589 -170.37571724 69.70687368 -169.0625 69.0625 C-168.12277344 68.58103516 -168.12277344 68.58103516 -167.1640625 68.08984375 C-159.08010688 64.01868199 -150.81002473 60.4791497 -142.38769531 57.18457031 C-137.89704236 55.40930439 -133.62181598 53.37917069 -129.33984375 51.15625 C-126.04790776 49.52951702 -122.65210807 48.22465429 -119.23046875 46.8984375 C-116.84701954 45.97686884 -116.84701954 45.97686884 -114.0625 44.5 C-110.36708239 42.68999954 -106.57566822 41.38746152 -102.68359375 40.0625 C-99.90424233 38.96208721 -97.53494667 37.5748672 -95 36 C-92.67711469 34.9570719 -90.35454628 33.9659677 -88 33 C-86.10403785 32.20864189 -84.20821727 31.41694455 -82.3125 30.625 C-79.18260568 29.3199005 -76.05099016 28.02075705 -72.91015625 26.7421875 C-68.14219425 24.79082081 -63.46399307 22.78218864 -58.875 20.4375 C-54.02681624 17.96346645 -49.0736568 15.96059591 -44 14 C-36.60010551 11.10761362 -29.26324336 8.17897282 -22.0625 4.8125 C-20.04215296 3.87395248 -18.02137492 2.9363317 -16 2 C-15.23945313 1.64421875 -14.47890625 1.2884375 -13.6953125 0.921875 C-8.58326641 -1.26616029 -5.27956839 -1.38480482 0 0 Z " fill="#C9EB46" transform="translate(408,262)"/>
<path d="M0 0 C2.02951535 1.28796166 4.03501678 2.61558 6 4 C5.8125 6.31762695 5.8125 6.31762695 5 9 C2.875 10.56713867 2.875 10.56713867 0 11.91796875 C-1.09248047 12.4402002 -2.18496094 12.96243164 -3.31054688 13.50048828 C-4.5400266 14.0635641 -5.76985762 14.62587335 -7 15.1875 C-8.29798678 15.79572997 -9.59550012 16.40497114 -10.89257812 17.01513672 C-26.03275766 24.09007596 -41.38503786 30.70948869 -56.70780945 37.37614441 C-66.2988472 41.55512225 -75.85261569 45.81701618 -85.40692139 50.07913208 C-99.4132596 56.32586183 -113.42925439 62.53705459 -127.54467773 68.53417969 C-134.43238956 71.46237942 -141.29976037 74.43307448 -148.15625 77.43359375 C-149.04116119 77.82062973 -149.92607239 78.20766571 -150.83779907 78.60643005 C-155.2375998 80.53135224 -159.63600486 82.45938668 -164.03271484 84.39135742 C-165.64416359 85.09693869 -167.2556526 85.80242801 -168.8671875 86.5078125 C-169.60030151 86.83120102 -170.33341553 87.15458954 -171.08874512 87.48777771 C-177.30040395 90.20173534 -182.81374147 92.29662191 -189.6875 92.375 C-191.36392578 92.41753906 -191.36392578 92.41753906 -193.07421875 92.4609375 C-202.27380721 91.38078681 -210.9134473 86.85455071 -219.3125 83.125 C-220.37718506 82.65449219 -221.44187012 82.18398438 -222.53881836 81.69921875 C-233.0178312 77.04087141 -243.4035924 72.18738394 -253.78442383 67.31549072 C-254.40728271 67.02317566 -255.0301416 66.7308606 -255.671875 66.4296875 C-256.29022217 66.13946716 -256.90856934 65.84924683 -257.5456543 65.55023193 C-263.61737469 62.70398786 -269.71258907 59.91017938 -275.8125 57.125 C-288.46657877 51.34048714 -301.08127234 45.51123192 -313.5 39.234375 C-316.61511433 37.6962873 -319.8041883 36.36117906 -323 35 C-324.60780674 34.19472712 -326.21165979 33.38153453 -327.8125 32.5625 C-331.21832808 30.83370581 -334.6245702 29.31285588 -338.1875 27.9375 C-341.11351298 26.80440944 -343.81217079 25.61773327 -346.5 24 C-349.07684874 22.45270053 -351.62694773 21.31623281 -354.4375 20.25 C-361.24340247 17.62591164 -367.67543424 14.24343539 -374.16601562 10.93310547 C-376.770352 9.60805573 -379.38483742 8.30352048 -382 7 C-376.2832618 0.96566524 -376.2832618 0.96566524 -373 0 C-363.37130034 0.20059791 -354.1969904 5.88686186 -345.62109375 9.828125 C-343.24611896 10.88996172 -340.86097486 11.86796621 -338.4375 12.8125 C-333.52447449 14.74458868 -328.70017448 16.86022543 -323.875 19 C-323.12275146 19.33233643 -322.37050293 19.66467285 -321.59545898 20.00708008 C-317.99515882 21.6113773 -314.43498913 23.26291707 -310.91796875 25.04296875 C-307.15034692 26.94908428 -303.31779045 28.65049775 -299.4375 30.3125 C-293.54673949 32.86241661 -287.7153147 35.50794949 -281.90771484 38.24243164 C-275.99099875 41.02098734 -270.02983111 43.69646214 -264.06469727 46.36914062 C-256.06524855 49.95852978 -248.09635636 53.61341835 -240.13305664 57.28222656 C-233.09675939 60.51836697 -226.08274486 63.63107889 -218.8125 66.3125 C-214.33771494 67.9822719 -210.36952119 69.90991818 -206.25 72.3125 C-198.36002234 76.40476841 -188.51431286 76.52020068 -179.99609375 74.171875 C-178.51302734 73.59179688 -178.51302734 73.59179688 -177 73 C-176.39027344 72.76152344 -175.78054687 72.52304687 -175.15234375 72.27734375 C-173.07293346 71.45289006 -171.00445912 70.60517208 -168.9375 69.75 C-168.19161621 69.44280029 -167.44573242 69.13560059 -166.67724609 68.8190918 C-161.03640217 66.47648249 -155.50655042 63.93375169 -149.98046875 61.33203125 C-147.16431725 60.07343667 -144.35065313 59.00983768 -141.4375 58 C-137.63466107 56.67064083 -134.13479374 55.11119506 -130.5625 53.25 C-124.36164278 50.05243003 -117.96596318 47.50091504 -111.46899414 44.97949219 C-106.21866001 42.93206662 -101.08037766 40.71459785 -95.96118164 38.35864258 C-90.4136342 35.81332957 -84.82822961 33.35215401 -79.25 30.875 C-78.07050781 30.35035156 -76.89101563 29.82570312 -75.67578125 29.28515625 C-67.2307017 25.53284306 -58.74870975 21.89163651 -50.21630859 18.34277344 C-45.99107244 16.57878385 -41.77573271 14.79192533 -37.56103516 13.00292969 C-34.20264166 11.57840144 -30.84169502 10.16001734 -27.48046875 8.7421875 C-23.53740154 7.0781196 -19.6020574 5.39858465 -15.67578125 3.6953125 C-14.15893315 3.04669026 -12.64201234 2.39823801 -11.125 1.75 C-10.44864502 1.4504541 -9.77229004 1.1509082 -9.07543945 0.84228516 C-3.41125448 -1.55401593 -3.41125448 -1.55401593 0 0 Z " fill="#FDD65A" transform="translate(405,199)"/>
<path d="M0 0 C1.69036558 0.95939668 3.35394174 1.96642853 5 3 C7.40022169 4.01867332 9.82757485 4.95374572 12.2578125 5.8984375 C15.04779829 7.01920102 17.77048041 8.23962693 20.5 9.5 C26.68677044 12.34210183 32.96675499 14.86120275 39.33984375 17.25390625 C40.48582031 17.68574219 41.63179687 18.11757812 42.8125 18.5625 C43.87082031 18.95566406 44.92914063 19.34882813 46.01953125 19.75390625 C48.88222217 20.95075868 51.35640389 22.38805115 54 24 C55.52632596 24.66158156 57.06888242 25.28690205 58.625 25.875 C65.480006 28.55037053 72.12212349 31.65254749 78.78515625 34.76953125 C79.44169189 35.07656982 80.09822754 35.3836084 80.7746582 35.69995117 C82.05379956 36.29897065 83.33232436 36.89930924 84.61010742 37.5012207 C87.44123302 38.82999182 90.28049966 40.11966569 93.15722656 41.34692383 C97.48956436 43.19686421 101.77494586 45.14663727 106.0625 47.09765625 C107.83686269 47.9032707 109.61127874 48.70876765 111.38574219 49.51416016 C112.3039978 49.93111145 113.22225342 50.34806274 114.16833496 50.77764893 C133.42706655 59.52296574 133.42706655 59.52296574 152.75 68.125 C153.63300781 68.51953369 154.51601562 68.91406738 155.42578125 69.32055664 C165.68845119 73.80017912 177.29534858 74.71982576 188 71 C191.73193596 69.36650653 195.40109257 67.64338355 199.05859375 65.8515625 C202.7028604 64.09423893 206.4274042 62.6067092 210.19067383 61.125 C215.71129019 58.91425869 221.16235971 56.53699085 226.625 54.1875 C227.87351082 53.651636 229.12204617 53.11582917 230.37060547 52.58007812 C237.60500017 49.4733502 244.824704 46.33492917 252.02978516 43.16088867 C256.0844482 41.38123768 260.16880482 39.71005528 264.296875 38.109375 C266.54403722 37.18712923 268.74556058 36.21449271 270.953125 35.203125 C271.66082031 34.88214844 272.36851562 34.56117188 273.09765625 34.23046875 C274.50042608 33.59145745 275.8991343 32.94342988 277.29296875 32.28515625 C281.37992876 30.43186151 284.52583084 29.35226505 289 30 C292.2109375 31.53125 292.2109375 31.53125 295.375 33.5 C296.43460937 34.1496875 297.49421875 34.799375 298.5859375 35.46875 C299.78089844 36.22671875 299.78089844 36.22671875 301 37 C297.25056957 40.2124611 292.9682251 41.93682453 288.484375 43.87890625 C287.2244725 44.43156662 287.2244725 44.43156662 285.93911743 44.99539185 C283.21171727 46.18978457 280.48098508 47.37632992 277.75 48.5625 C275.87440557 49.38167433 273.99891757 50.20109237 272.12353516 51.02075195 C261.38576965 55.70493807 250.63004397 60.34134193 239.77246094 64.74243164 C234.73223567 66.79820934 229.78862244 69.01516517 224.8671875 71.33984375 C217.5903351 74.77327678 210.21744803 77.93871359 202.78857422 81.02734375 C200.70790437 81.89250372 198.62922364 82.76231648 196.55078125 83.6328125 C188.92577246 86.81847568 182.77556683 89.21023426 174.4375 89.3125 C173.29571289 89.35600586 173.29571289 89.35600586 172.13085938 89.40039062 C165.66976662 89.47103335 160.82571234 87.65571864 155 85 C153.18016655 84.21893498 151.35983656 83.43902605 149.5390625 82.66015625 C147.56656243 81.79688441 145.59526439 80.93086228 143.625 80.0625 C142.5419458 79.58578857 141.4588916 79.10907715 140.34301758 78.61791992 C131.25760702 74.59795918 122.25169372 70.4177234 113.25439453 66.20507812 C101.71958385 60.8250181 90.08545512 55.67401281 78.43237305 50.5559082 C70.17142796 46.91835018 62.02471071 43.14134408 54 39 C49.84478131 36.85842981 45.74166046 34.86753008 41.375 33.1875 C34.01592345 30.30444714 27.04103244 26.59324135 20.02001953 22.98144531 C12.10868223 18.91560425 4.29619732 15.2310873 -4.0703125 12.1640625 C-8.27532296 10.49327168 -12.13808626 8.34508974 -16 6 C-10.50479384 0.19950461 -8.06602696 -1.83962018 0 0 Z " fill="#FCA5A7" transform="translate(41,138)"/>
<path d="M0 0 C1.17755859 0.01160156 1.17755859 0.01160156 2.37890625 0.0234375 C3.16394531 0.01570313 3.94898438 0.00796875 4.7578125 0 C10.62559838 0.02012963 10.62559838 0.02012963 12.87890625 2.2734375 C13.0539362 4.85447056 13.11052904 7.32651913 13.07421875 9.90625 C13.07138885 10.65808563 13.06855896 11.40992126 13.06564331 12.18453979 C13.05443499 14.58933328 13.02932977 16.99375631 13.00390625 19.3984375 C12.99387727 21.02733838 12.98475128 22.65624508 12.9765625 24.28515625 C12.9544936 28.28139306 12.91995976 32.27735244 12.87890625 36.2734375 C13.86810059 36.26296387 14.85729492 36.25249023 15.87646484 36.24169922 C19.54032789 36.20554731 23.20417511 36.18255468 26.86816406 36.16357422 C28.45510508 36.15350562 30.0420275 36.13984983 31.62890625 36.12255859 C33.90759872 36.09834749 36.18604631 36.08696328 38.46484375 36.078125 C39.1763559 36.06780243 39.88786804 36.05747986 40.62094116 36.04684448 C42.3752229 36.04644328 44.12887334 36.15141541 45.87890625 36.2734375 C47.87890625 38.2734375 47.87890625 38.2734375 48.109375 42.15234375 C48.10538201 43.71360226 48.09061886 45.27486164 48.06640625 46.8359375 C48.06543945 48.02606445 48.06543945 48.02606445 48.06445312 49.24023438 C48.01916147 55.13318228 48.01916147 55.13318228 46.87890625 56.2734375 C44.35796549 56.36191493 41.86459732 56.38871051 39.34375 56.37109375 C38.21387413 56.36897133 38.21387413 56.36897133 37.06117249 56.36680603 C34.64621065 56.36119126 32.23134024 56.34863633 29.81640625 56.3359375 C28.18294404 56.3309244 26.54948039 56.32636116 24.91601562 56.32226562 C20.9036104 56.31121704 16.89127384 56.29394256 12.87890625 56.2734375 C12.8946167 57.80266846 12.8946167 57.80266846 12.91064453 59.36279297 C12.94679352 63.13847352 12.96978802 66.91413871 12.98876953 70.68994141 C12.99883879 72.32538422 13.01249506 73.96080899 13.02978516 75.59619141 C13.0539933 77.9443812 13.06537982 80.29233338 13.07421875 82.640625 C13.08454132 83.37401093 13.09486389 84.10739685 13.10549927 84.86300659 C13.10589993 86.66806447 13.0010338 88.4725158 12.87890625 90.2734375 C10.25166801 92.90067574 8.33678952 92.53459721 4.7578125 92.546875 C3.97277344 92.53914063 3.18773437 92.53140625 2.37890625 92.5234375 C1.20134766 92.53503906 1.20134766 92.53503906 0 92.546875 C-5.86778588 92.52674537 -5.86778588 92.52674537 -8.12109375 90.2734375 C-8.2961237 87.69240444 -8.35271654 85.22035587 -8.31640625 82.640625 C-8.31357635 81.88878937 -8.31074646 81.13695374 -8.30783081 80.36233521 C-8.29662249 77.95754172 -8.27151727 75.55311869 -8.24609375 73.1484375 C-8.23606477 71.51953662 -8.22693878 69.89062992 -8.21875 68.26171875 C-8.1966811 64.26548194 -8.16214726 60.26952256 -8.12109375 56.2734375 C-9.11028809 56.28391113 -10.09948242 56.29438477 -11.11865234 56.30517578 C-14.78251539 56.34132769 -18.44636261 56.36432032 -22.11035156 56.38330078 C-23.69729258 56.39336938 -25.284215 56.40702517 -26.87109375 56.42431641 C-29.14978622 56.44852751 -31.42823381 56.45991172 -33.70703125 56.46875 C-34.4185434 56.47907257 -35.13005554 56.48939514 -35.86312866 56.50003052 C-37.6174104 56.50043172 -39.37106084 56.39545959 -41.12109375 56.2734375 C-43.12109375 54.2734375 -43.12109375 54.2734375 -43.3515625 50.39453125 C-43.34756951 48.83327274 -43.33280636 47.27201336 -43.30859375 45.7109375 C-43.30794922 44.91751953 -43.30730469 44.12410156 -43.30664062 43.30664062 C-43.26134897 37.41369272 -43.26134897 37.41369272 -42.12109375 36.2734375 C-39.60015299 36.18496007 -37.10678482 36.15816449 -34.5859375 36.17578125 C-33.45606163 36.17790367 -33.45606163 36.17790367 -32.30335999 36.18006897 C-29.88839815 36.18568374 -27.47352774 36.19823867 -25.05859375 36.2109375 C-23.42513154 36.2159506 -21.79166789 36.22051384 -20.15820312 36.22460938 C-16.1457979 36.23565796 -12.13346134 36.25293244 -8.12109375 36.2734375 C-8.1368042 34.74420654 -8.1368042 34.74420654 -8.15283203 33.18408203 C-8.18898102 29.40840148 -8.21197552 25.63273629 -8.23095703 21.85693359 C-8.24102629 20.22149078 -8.25468256 18.58606601 -8.27197266 16.95068359 C-8.2961808 14.6024938 -8.30756732 12.25454162 -8.31640625 9.90625 C-8.33189011 8.80617111 -8.33189011 8.80617111 -8.34768677 7.68386841 C-8.34808743 5.87881053 -8.2432213 4.0743592 -8.12109375 2.2734375 C-5.49385551 -0.35380074 -3.57897702 0.01227779 0 0 Z " fill="#2A2B2B" transform="translate(375.12109375,45.7265625)"/>
<path d="M0 0 C-0.42086132 4.7697616 -2.58065396 7.80802735 -6 11 C-9.66224202 13.66270393 -12.35156869 15 -17 15 C-17 14.01 -17 13.02 -17 12 C-19.31 12.33 -21.62 12.66 -24 13 C-21.69075274 10.35553943 -19.66969376 9.33279831 -16.375 8.1875 C-11.68805462 6.42130504 -7.86408081 4.09480115 -3.8125 1.171875 C-2 0 -2 0 0 0 Z " fill="#D71F2B" transform="translate(424,152)"/>
<path d="M0 0 C6.93 2.475 6.93 2.475 14 5 C14 6.65 14 8.3 14 10 C9.78224268 8.64474464 5.70578678 7.09799886 1.625 5.375 C0.56539062 4.92898438 -0.49421875 4.48296875 -1.5859375 4.0234375 C-2.38257813 3.68570312 -3.17921875 3.34796875 -4 3 C-2.68 2.67 -1.36 2.34 0 2 C0 1.34 0 0.68 0 0 Z " fill="#5EB412" transform="translate(155,312)"/>
<path d="M0 0 C0.66 0 1.32 0 2 0 C1.67854004 0.50756836 1.35708008 1.01513672 1.02587891 1.53808594 C-0.33550357 4.8051447 -0.35479731 7.90529432 -0.4140625 11.390625 C-0.43342865 12.09523865 -0.4527948 12.79985229 -0.4727478 13.52581787 C-0.53232735 15.76709039 -0.57884123 18.00841489 -0.625 20.25 C-0.66319979 21.77345938 -0.70225269 23.29689762 -0.7421875 24.8203125 C-0.83801018 28.54668106 -0.92212107 32.27320835 -1 36 C-1.33 36 -1.66 36 -2 36 C-2.04936883 31.19451403 -2.08570443 26.38917506 -2.10986328 21.58349609 C-2.11993254 19.94805328 -2.13358881 18.31262851 -2.15087891 16.67724609 C-2.17508705 14.3290563 -2.18647357 11.98110412 -2.1953125 9.6328125 C-2.21079636 8.53273361 -2.21079636 8.53273361 -2.22659302 7.41043091 C-2.22699368 5.60537303 -2.12212755 3.8009217 -2 2 C-1.34 1.34 -0.68 0.68 0 0 Z " fill="#37383A" transform="translate(369,46)"/>
<path d="M0 0 C0.66 0 1.32 0 2 0 C1.58578031 4.83256305 -0.46413986 6.82679218 -4 10 C-4.66 9.67 -5.32 9.34 -6 9 C-6 7.68 -6 6.36 -6 5 C-3.5625 2.8125 -3.5625 2.8125 -1 1 C-0.67 0.67 -0.34 0.34 0 0 Z " fill="#D73842" transform="translate(422,152)"/>
<path d="M0 0 C1.10370043 3.3111013 0.92673641 5.24748949 0.5625 8.6875 C0.40974609 10.17830078 0.40974609 10.17830078 0.25390625 11.69921875 C0.12822266 12.83810547 0.12822266 12.83810547 0 14 C0.66 14 1.32 14 2 14 C2.33 14.99 2.66 15.98 3 17 C2.01 17 1.02 17 0 17 C-2.10428384 11.87080814 -2.21755666 7.4389165 -2 2 C-1.34 2 -0.68 2 0 2 C0 1.34 0 0.68 0 0 Z " fill="#EE5F69" transform="translate(8,140)"/>
<path d="M0 0 C-3.65120544 3.33370932 -8.21633909 4.97807612 -13 6 C-13.99 5.67 -14.98 5.34 -16 5 C-14.41925436 4.18247697 -12.83528777 3.37118003 -11.25 2.5625 C-10.36828125 2.11003906 -9.4865625 1.65757812 -8.578125 1.19140625 C-2.88188976 -1.44094488 -2.88188976 -1.44094488 0 0 Z " fill="#A6EDFB" transform="translate(300,367)"/>
<path d="M0 0 C0.33 0 0.66 0 1 0 C0.42085333 6.01326751 -0.22337945 12.00892722 -1 18 C-1.33 18 -1.66 18 -2 18 C-2.05397335 15.5622037 -2.09365616 13.12560315 -2.125 10.6875 C-2.14175781 9.99720703 -2.15851562 9.30691406 -2.17578125 8.59570312 C-2.21217794 4.82864604 -2.14378864 3.21568296 0 0 Z " fill="#FBBA58" transform="translate(8,197)"/>
<path d="M0 0 C2.475 0.99 2.475 0.99 5 2 C5 2.99 5 3.98 5 5 C3.35 5.66 1.7 6.32 0 7 C0 4.69 0 2.38 0 0 Z " fill="#42D1F1" transform="translate(409,325)"/>
<path d="M0 0 C0.66 0.33 1.32 0.66 2 1 C-0.85276137 3.93200474 -3.65079784 6.64315404 -7 9 C-6.82374165 6.62051228 -6.30280227 5.29774151 -4.59765625 3.62109375 C-3.09350908 2.37884514 -1.54870149 1.18623944 0 0 Z " fill="#F65059" transform="translate(17,128)"/>
<path d="M0 0 C2.86724686 0.57344937 3.8614515 0.8614515 6 3 C3.1875 4.5625 3.1875 4.5625 0 6 C-0.99 5.67 -1.98 5.34 -3 5 C-1.68 4.67 -0.36 4.34 1 4 C0.67 2.68 0.34 1.36 0 0 Z " fill="#FACBCB" transform="translate(336,173)"/>
<path d="M0 0 C-1.26691507 0.67408308 -2.53870749 1.33900497 -3.8125 2 C-4.52019531 2.37125 -5.22789062 2.7425 -5.95703125 3.125 C-8 4 -8 4 -11 4 C-11 3.34 -11 2.68 -11 2 C-4.03571429 -1.34821429 -4.03571429 -1.34821429 0 0 Z " fill="#A4ECFA" transform="translate(356,343)"/>
<path d="M0 0 C0 0.66 0 1.32 0 2 C-3.465 3.485 -3.465 3.485 -7 5 C-7.66 4.34 -8.32 3.68 -9 3 C-2.25 0 -2.25 0 0 0 Z " fill="#F54E56" transform="translate(68,107)"/>
</svg>
